<svg xmlns="http://www.w3.org/2000/svg">
    <symbol id="menu-fire" xmlns="http://www.w3.org/2000/svg" viewBox="0 0 22 22" fill="inherit">
        <g clip-path="url(#clip0_1552_74576)">
            <path d="M9.53854 1.4668C9.13353 1.4668 8.80521 1.79512 8.80521 2.20013C8.80521 5.9086 3.67188 8.80013 3.67188 13.9335C3.67188 17.8332 7.89844 20.3545 9.38672 20.5177C9.43664 20.5282 9.48752 20.5335 9.53854 20.5335C9.94355 20.5335 10.2719 20.2051 10.2719 19.8001C10.2718 19.5795 10.1723 19.3707 10.0012 19.2315C10.0012 19.231 10.0012 19.2306 10.0012 19.2301C9.33384 18.6889 8.07188 17.1188 8.07188 15.6852C8.07188 13.3319 10.2719 12.4668 10.2719 12.4668C9.01714 16.0161 13.1285 16.445 13.9557 19.9591H13.9572C14.0316 20.2943 14.3286 20.5329 14.6719 20.5335C14.8263 20.5331 14.9767 20.484 15.1016 20.3931C15.1148 20.3835 15.1277 20.3735 15.1402 20.363C15.2596 20.2855 18.3385 18.2491 18.3385 13.9335C18.3385 12.1715 17.4573 9.14516 16.8232 7.80469C16.8227 7.80358 16.8223 7.80149 16.8217 7.80039C16.8213 7.79943 16.8208 7.79848 16.8203 7.79752C16.7098 7.5176 16.4395 7.3336 16.1385 7.33346C15.7852 7.3338 15.4823 7.5861 15.4181 7.93359C15.4181 7.93455 15.4181 7.9355 15.4181 7.93646C15.4163 7.94447 15.0795 9.44034 13.9385 10.2668C13.9385 6.8116 11.444 3.24265 10.1286 1.76615C10.1089 1.73941 10.0874 1.71405 10.0642 1.69023C9.92637 1.54778 9.73675 1.46718 9.53854 1.4668V1.4668Z" fill="inherit"/>
        </g>
    </symbol>
    <symbol id="menu-diamond" xmlns="http://www.w3.org/2000/svg" viewBox="0 0 22 22" fill="inherit">
        <path d="M16.1286 3.58116C16.074 3.58227 16.0197 3.58948 15.9667 3.60264H5.98078C5.94432 3.59653 5.90745 3.59318 5.87049 3.59262C5.61718 3.59122 5.38109 3.72064 5.24601 3.93493L0.973488 8.92074C0.809182 9.06638 0.718769 9.27797 0.72709 9.49737C0.735412 9.71678 0.841593 9.92091 1.01646 10.0537L10.4667 19.5039C10.4691 19.5068 10.4715 19.5097 10.4739 19.5125L10.4839 19.5211C10.5184 19.5559 10.5563 19.5871 10.5971 19.6142C10.599 19.6152 10.6009 19.6161 10.6028 19.6171C10.6204 19.6289 10.6386 19.6398 10.6572 19.65C10.661 19.6515 10.6648 19.6529 10.6687 19.6543C10.753 19.6979 10.8449 19.7246 10.9394 19.7331C10.9641 19.7353 10.989 19.7363 11.0139 19.736C11.0234 19.7357 11.033 19.7352 11.0425 19.7345C11.0549 19.7339 11.0674 19.733 11.0797 19.7317C11.0821 19.7317 11.0845 19.7317 11.0869 19.7317C11.0912 19.7308 11.0955 19.7298 11.0998 19.7288C11.1195 19.7263 11.1391 19.7229 11.1585 19.7188C11.1778 19.7148 11.1969 19.71 11.2158 19.7045C11.2206 19.7031 11.2254 19.7017 11.2301 19.7002C11.2354 19.6983 11.2407 19.6964 11.2459 19.6944C11.2865 19.6803 11.3258 19.6625 11.3633 19.6414C11.3638 19.641 11.3643 19.6405 11.3648 19.64C11.3814 19.6306 11.3976 19.6206 11.4135 19.6099C11.4173 19.6071 11.4211 19.6042 11.4249 19.6013C11.4591 19.5774 11.4912 19.5506 11.5209 19.5211L11.5266 19.5168C11.53 19.5131 11.5333 19.5092 11.5366 19.5054L20.9898 10.0523C21.1639 9.91924 21.2695 9.7153 21.2775 9.4963C21.2856 9.2773 21.1952 9.06617 21.0313 8.92074L16.7903 3.97361C16.6615 3.72832 16.4056 3.5765 16.1286 3.58116ZM11.0024 5.59926L13.2425 8.73598H8.76229L11.0024 5.59926ZM16.4666 5.84704L18.9416 8.73598H15.6416L16.4666 5.84704ZM5.5382 5.84848L6.3632 8.73598H3.0632L5.5382 5.84848ZM8.40422 10.2026H13.6006L11.0024 16.9588L8.40422 10.2026Z" fill="black"/>
    </symbol>
    <symbol id="menu-clever" xmlns="http://www.w3.org/2000/svg" viewBox="0 0 23 22" fill="inherit">
        <g clip-path="url(#clip0_1552_74589)">
            <path d="M11.7325 1.00031C10.7998 0.983029 9.89956 1.69635 9.63978 2.72944C9.30595 4.05242 9.97536 6.96342 10.3353 8.35101C9.27926 7.37878 7.02833 5.41431 5.70227 5.08203C4.51928 4.78436 3.31089 5.42224 3.04322 6.48216C2.92861 6.93828 2.99642 7.36133 3.16641 7.73207C3.31332 8.05358 3.23226 8.41123 2.95458 8.63044C2.61538 8.89811 2.34407 9.2609 2.241 9.66702C1.97332 10.7285 2.73757 11.8601 3.92056 12.1578C5.24661 12.4909 8.16051 11.8222 9.54964 11.4623C8.57586 12.5153 6.6077 14.7648 6.27464 16.0878C5.97774 17.2685 6.61629 18.4747 7.67929 18.7409C8.08618 18.8432 8.53457 18.7764 8.93069 18.6041C9.25451 18.4634 9.60999 18.5608 9.82305 18.8415C10.07 19.1669 10.4118 19.427 10.8686 19.5416C11.9324 19.8077 13.0648 19.0457 13.3624 17.865C13.6963 16.542 13.0269 13.631 12.6669 12.2434C13.7214 13.2157 15.9747 15.1809 17.3 15.5124C18.4829 15.8093 19.6921 15.1722 19.959 14.1123C20.0613 13.7062 19.9931 13.2577 19.8208 12.8624C19.6793 12.5393 19.7774 12.1854 20.0597 11.9715C20.3858 11.7246 20.6451 11.3843 20.7597 10.9289C21.0274 9.86749 20.2647 8.73505 19.0817 8.43815C17.7556 8.10509 14.8402 8.77223 13.4511 9.1322C14.4249 8.07921 16.393 5.83113 16.7261 4.50816C17.023 3.32747 16.3859 2.11974 15.3229 1.85361C14.866 1.739 14.4423 1.80758 14.07 1.9768C13.7477 2.12371 13.3901 2.04187 13.1717 1.76497C12.904 1.42654 12.5405 1.15592 12.1336 1.05439C12.0008 1.02093 11.8657 1.00278 11.7325 1.00031L11.7325 1.00031ZM14.9474 16.0487C14.9897 16.5426 14.9967 16.9801 14.9744 17.3693C16.0866 18.7553 17.3562 20.0439 18.7046 20.8831C18.8307 20.9616 18.9703 20.9973 19.1087 20.9973C19.3656 20.9973 19.6183 20.8698 19.7637 20.6352C19.9883 20.2753 19.8766 19.8007 19.5158 19.5761C18.4851 18.9354 17.4925 17.9698 16.5834 16.896C16.1049 16.7276 15.5612 16.4479 14.9474 16.0487V16.0487Z" fill="inherit"/>
        </g>
    </symbol>
    <symbol id="menu-crown" xmlns="http://www.w3.org/2000/svg" viewBox="0 0 22 22" fill="inherit">
        <g clip-path="url(#clip0_1552_74596)">
            <path d="M11.001 1.4668C10.191 1.4668 9.53438 2.12345 9.53438 2.93346C9.53462 3.47481 9.83305 3.97201 10.3107 4.22682L7.41029 9.66524L3.46432 7.34349C3.59717 7.11826 3.66739 6.86162 3.66771 6.60013C3.66771 5.79011 3.01106 5.13346 2.20104 5.13346C1.39102 5.13346 0.734375 5.79011 0.734375 6.60013C0.734375 7.41015 1.39102 8.0668 2.20104 8.0668C2.24985 8.06636 2.29861 8.0635 2.34714 8.0582L2.93438 13.9335H5.13438H14.6677H16.8677H19.0677L19.6549 8.05964C19.7035 8.06445 19.7523 8.06684 19.801 8.0668C20.6111 8.0668 21.2677 7.41015 21.2677 6.60013C21.2677 5.79011 20.6111 5.13346 19.801 5.13346C18.991 5.13346 18.3344 5.79011 18.3344 6.60013C18.3347 6.86162 18.4049 7.11826 18.5378 7.34349L14.5918 9.66524L11.6914 4.22682C12.169 3.97201 12.4675 3.47481 12.4677 2.93346C12.4677 2.12345 11.8111 1.4668 11.001 1.4668H11.001ZM2.93438 15.4001V16.8668C2.93438 17.6771 3.59071 18.3335 4.40104 18.3335H17.601C18.4114 18.3335 19.0677 17.6771 19.0677 16.8668V15.4001H2.93438Z" fill="inherit"/>
        </g>        
    </symbol>
    <symbol id="menu-casino" xmlns="http://www.w3.org/2000/svg" viewBox="0 0 22 22" fill="inherit">
        <path d="M11 0C4.94857 0 0 4.94857 0 11C0 17.0514 4.94857 22 11 22C17.0514 22 22 17.0514 22 11C22 4.94857 17.0514 0 11 0ZM11 1.08854C11.5514 1.08854 12.11 1.19596 12.6615 1.28906V3.58073C12.11 3.48763 11.5514 3.38021 11 3.38021C10.4486 3.38021 9.88997 3.48763 9.33854 3.58073V1.28906C9.88997 1.19596 10.4486 1.08854 11 1.08854ZM11 4.58333C14.5736 4.58333 17.4167 7.42643 17.4167 11C17.4167 14.5736 14.5736 17.4167 11 17.4167C7.42643 17.4167 4.58333 14.5736 4.58333 11C4.58333 7.42643 7.42643 4.58333 11 4.58333ZM3.38021 4.66927L5.41406 5.78646C4.59049 6.61003 4.0319 7.60905 3.66667 8.70833L1.74739 7.61979C2.11263 6.52051 2.64616 5.49284 3.38021 4.66927ZM18.6198 4.66927C19.3538 5.49284 19.8874 6.52051 20.2526 7.61979L18.3333 8.70833C17.9681 7.60905 17.4059 6.61003 16.6719 5.78646L18.6198 4.66927ZM3.66667 13.2917C4.0319 14.391 4.59408 15.39 5.32812 16.2135L3.38021 17.3307C2.64616 16.5072 2.11263 15.4795 1.74739 14.3802L3.66667 13.2917ZM18.2474 13.2917L20.1667 14.3802C19.891 15.4795 19.3538 16.5072 18.6198 17.3307L16.5859 16.2135C17.32 15.39 17.9717 14.391 18.2474 13.2917ZM9.33854 18.4193C9.88997 18.5124 10.4486 18.6198 11 18.6198C11.5514 18.6198 12.11 18.5124 12.6615 18.4193V20.7109C12.11 20.804 11.5514 20.9115 11 20.9115C10.4486 20.9115 9.88997 20.804 9.33854 20.7109V18.4193Z" fill="inherit"/>
        <path d="M11.0239 6.95508C11.0239 6.95508 7.39453 8.95546 7.39453 11.4237C7.39453 12.4402 8.1927 13.2383 9.20919 13.2383C9.7465 13.2383 10.2172 12.9506 10.5475 12.6826C10.3107 13.3248 9.99602 14.0606 9.57212 14.6901C10.5518 14.5086 11.5314 14.5086 12.4756 14.6901C12.0715 14.0677 11.7497 13.3433 11.5115 12.7053C11.8405 12.9676 12.3125 13.2383 12.8385 13.2383C13.855 13.2383 14.6532 12.4402 14.6532 11.4237C14.6532 8.95546 11.0239 6.95508 11.0239 6.95508Z" fill="inherit"/>
    </symbol>
    <symbol id="menu-camera" xmlns="http://www.w3.org/2000/svg" viewBox="0 0 22 22" fill="inherit">
        <g clip-path="url(#clip0_1552_73836)">
            <path d="M10.2677 2.93367C10.0732 2.9337 9.88673 3.01098 9.74922 3.14851L7.76406 5.13367H2.20104C1.39071 5.13367 0.734375 5.79 0.734375 6.60033V16.867C0.734375 17.6773 1.39071 18.3337 2.20104 18.3337H13.9344C14.7447 18.3337 15.401 17.6773 15.401 16.867V6.60033V4.40033C15.401 3.59876 14.736 2.93367 13.9344 2.93367H10.2677ZM16.8677 2.93367V3.54382C16.8546 3.62302 16.8546 3.70382 16.8677 3.78302V4.40033H17.601H18.3344H19.0677C19.3322 4.40407 19.5782 4.26512 19.7115 4.03669C19.8448 3.80826 19.8448 3.52574 19.7115 3.29731C19.5782 3.06888 19.3322 2.92993 19.0677 2.93367H18.3344H17.601H16.8677ZM10.5714 4.40033H13.9344V5.13367H9.83802L10.5714 4.40033ZM20.5344 6.60033C20.389 6.60048 20.2469 6.64385 20.1262 6.72494L16.8677 8.80033V11.7337V14.667L20.1161 16.7367C20.1279 16.7442 20.1398 16.7513 20.152 16.7581C20.267 16.829 20.3993 16.8666 20.5344 16.867C20.9394 16.867 21.2677 16.5387 21.2677 16.1337V11.7337V7.33367C21.2677 6.92866 20.9394 6.60033 20.5344 6.60033V6.60033ZM2.93437 7.33367H6.60104V9.53367H2.93437V7.33367Z" fill="inherit"/>
        </g>
    </symbol>
    <symbol id="menu-slot" xmlns="http://www.w3.org/2000/svg" viewBox="0 0 22 22" fill="inherit">
        <path d="M9.084 1.27539C7.52359 1.27539 6.11133 1.67902 5.08874 2.08264H3.43325C2.54124 2.08264 1.81875 2.80513 1.81875 3.69714V18.2276C1.52762 18.2235 1.25684 18.3765 1.11007 18.6279C0.963309 18.8794 0.963309 19.1904 1.11007 19.4419C1.25684 19.6933 1.52762 19.8463 1.81875 19.8421H16.3493C16.6404 19.8463 16.9112 19.6933 17.0579 19.4419C17.2047 19.1904 17.2047 18.8794 17.0579 18.6279C16.9112 18.3765 16.6404 18.2235 16.3493 18.2276V3.69714C16.3493 2.80513 15.6268 2.08264 14.7347 2.08264H13.0793C12.0567 1.67901 10.6444 1.27539 9.084 1.27539ZM20.3855 3.69714C19.4938 3.69714 18.771 4.41998 18.771 5.31164C18.7715 5.88799 19.0791 6.42039 19.5783 6.70856V10.9624C19.5783 11.4185 19.2271 11.7696 18.771 11.7696H17.9638V13.3841H18.771C20.0989 13.3841 21.1927 12.2903 21.1927 10.9624V6.70699C21.6914 6.41909 21.999 5.88743 22 5.31164C22 4.41998 21.2772 3.69714 20.3855 3.69714L20.3855 3.69714ZM5.04775 4.50439H13.1202C14.0123 4.50439 14.7348 5.22688 14.7348 6.11889V9.34789C14.7348 10.2399 14.0123 10.9624 13.1202 10.9624H5.04775C4.15574 10.9624 3.43325 10.2399 3.43325 9.34789V6.11889C3.43325 5.22688 4.15574 4.50439 5.04775 4.50439ZM5.04775 6.11889V9.34789H6.66225V6.11889H5.04775ZM8.27675 6.11889V9.34789H9.89125V6.11889H8.27675ZM11.5057 6.11889V9.34789H13.1202V6.11889H11.5057ZM5.04775 13.3841H13.1202V16.6131H5.04775V13.3841Z" fill="inherit"/>
    </symbol>
    <symbol id="plus" xmlns="http://www.w3.org/2000/svg" viewBox="0 0 17 17" fill="none">
        <path d="M8.5 4.25V12.75" stroke="#222222" stroke-width="1.36607" stroke-linecap="square" stroke-linejoin="round"/>
        <path d="M4.25 8.5H12.75" stroke="#222222" stroke-width="1.36607" stroke-linecap="square" stroke-linejoin="round"/>
    </symbol>
    <symbol id="best-offers" xmlns="http://www.w3.org/2000/svg" viewBox="0 0 102 31" fill="none">
        <g filter="url(#filter0_dd_2491_41024)">
            <path d="M5 8C5 5.79086 6.79086 4 9 4H102V24H9C6.79086 24 5 22.2091 5 20V8Z" fill="#FFD600"/><g clip-path="url(#clip0_2491_41024)"><path d="M22.625 15.5C22.625 18.6481 20.1477 21.125 16.9996 21.125C13.8515 21.125 11.375 18.6481 11.375 15.5C11.375 12.3519 16.4296 9.725 15.8596 6.875C17 6.875 22.625 10.9404 22.625 15.5Z" fill="#DD2C00"/><path d="M20.375 17C20.375 14.1504 17 11.375 17 11.375C17 13.655 13.625 14.7204 13.625 17C13.625 18.8885 15.1111 20.375 17 20.375C18.8889 20.375 20.375 18.8885 20.375 17Z" fill="#FF5722"/><path d="M15.125 18.2773C15.1254 17 17.0004 16.2691 17.0004 15.125C17.0004 15.125 18.875 16.562 18.875 18.2773C18.875 19.2241 18.0361 19.9925 17 19.9925C15.9639 19.9925 15.1246 19.2245 15.125 18.2773H15.125Z" fill="#FFC107"/></g>
            <path d="M28.6953 18.5V10.5H31.8984C32.487 10.5 32.9779 10.5872 33.3711 10.7617C33.7643 10.9362 34.0599 11.1784 34.2578 11.4883C34.4557 11.7956 34.5547 12.1497 34.5547 12.5508C34.5547 12.8633 34.4922 13.138 34.3672 13.375C34.2422 13.6094 34.0703 13.8021 33.8516 13.9531C33.6354 14.1016 33.388 14.207 33.1094 14.2695V14.3477C33.4141 14.3607 33.6992 14.4466 33.9648 14.6055C34.2331 14.7643 34.4505 14.987 34.6172 15.2734C34.7839 15.5573 34.8672 15.8958 34.8672 16.2891C34.8672 16.7135 34.7617 17.0924 34.5508 17.4258C34.3424 17.7565 34.0339 18.0182 33.625 18.2109C33.2161 18.4036 32.7122 18.5 32.1133 18.5H28.6953ZM30.3867 17.1172H31.7656C32.237 17.1172 32.5807 17.0273 32.7969 16.8477C33.013 16.6654 33.1211 16.4232 33.1211 16.1211C33.1211 15.8997 33.0677 15.7044 32.9609 15.5352C32.8542 15.3659 32.7018 15.2331 32.5039 15.1367C32.3086 15.0404 32.0755 14.9922 31.8047 14.9922H30.3867V17.1172ZM30.3867 13.8477H31.6406C31.8724 13.8477 32.0781 13.8073 32.2578 13.7266C32.4401 13.6432 32.5833 13.526 32.6875 13.375C32.7943 13.224 32.8477 13.043 32.8477 12.832C32.8477 12.543 32.7448 12.3099 32.5391 12.1328C32.3359 11.9557 32.0469 11.8672 31.6719 11.8672H30.3867V13.8477ZM36.1878 18.5V10.5H41.5784V11.8945H37.8792V13.8008H41.3011V15.1953H37.8792V17.1055H41.594V18.5H36.1878ZM47.483 12.8008C47.4517 12.4857 47.3176 12.2409 47.0806 12.0664C46.8436 11.8919 46.522 11.8047 46.1158 11.8047C45.8397 11.8047 45.6067 11.8437 45.4166 11.9219C45.2265 11.9974 45.0806 12.1029 44.9791 12.2383C44.8801 12.3737 44.8306 12.5273 44.8306 12.6992C44.8254 12.8424 44.8554 12.9674 44.9205 13.0742C44.9882 13.181 45.0806 13.2734 45.1978 13.3516C45.315 13.4271 45.4504 13.4935 45.6041 13.5508C45.7577 13.6055 45.9218 13.6523 46.0962 13.6914L46.815 13.8633C47.164 13.9414 47.4843 14.0456 47.7759 14.1758C48.0676 14.306 48.3202 14.4661 48.5337 14.6562C48.7473 14.8464 48.9127 15.0703 49.0298 15.3281C49.1496 15.5859 49.2108 15.8815 49.2134 16.2148C49.2108 16.7044 49.0858 17.1289 48.8384 17.4883C48.5936 17.8451 48.2395 18.1224 47.7759 18.3203C47.315 18.5156 46.759 18.6133 46.108 18.6133C45.4621 18.6133 44.8996 18.5143 44.4205 18.3164C43.9439 18.1185 43.5715 17.8255 43.3033 17.4375C43.0377 17.0469 42.8983 16.5638 42.8853 15.9883H44.522C44.5403 16.2565 44.6171 16.4805 44.7525 16.6602C44.8905 16.8372 45.0741 16.9714 45.3033 17.0625C45.5351 17.151 45.7968 17.1953 46.0884 17.1953C46.3749 17.1953 46.6236 17.1536 46.8345 17.0703C47.0481 16.987 47.2134 16.8711 47.3306 16.7227C47.4478 16.5742 47.5064 16.4036 47.5064 16.2109C47.5064 16.0312 47.453 15.8802 47.3462 15.7578C47.2421 15.6354 47.0884 15.5312 46.8853 15.4453C46.6848 15.3594 46.4387 15.2812 46.147 15.2109L45.2759 14.9922C44.6015 14.8281 44.0689 14.5716 43.6783 14.2227C43.2877 13.8737 43.0936 13.4036 43.0962 12.8125C43.0936 12.3281 43.2226 11.9049 43.483 11.543C43.746 11.181 44.1067 10.8984 44.565 10.6953C45.0233 10.4922 45.5442 10.3906 46.1275 10.3906C46.7212 10.3906 47.2395 10.4922 47.6822 10.6953C48.1275 10.8984 48.4739 11.181 48.7212 11.543C48.9686 11.9049 49.0962 12.3242 49.1041 12.8008H47.483ZM50.2664 11.8945V10.5H56.8368V11.8945H54.3875V18.5H52.7157V11.8945H50.2664ZM68.2562 14.5C68.2562 15.3724 68.0909 16.1146 67.7602 16.7266C67.432 17.3385 66.9841 17.806 66.4164 18.1289C65.8513 18.4492 65.2159 18.6094 64.5102 18.6094C63.7992 18.6094 63.1612 18.4479 62.5961 18.125C62.031 17.8021 61.5844 17.3346 61.2562 16.7227C60.9281 16.1107 60.7641 15.3698 60.7641 14.5C60.7641 13.6276 60.9281 12.8854 61.2562 12.2734C61.5844 11.6615 62.031 11.1953 62.5961 10.875C63.1612 10.5521 63.7992 10.3906 64.5102 10.3906C65.2159 10.3906 65.8513 10.5521 66.4164 10.875C66.9841 11.1953 67.432 11.6615 67.7602 12.2734C68.0909 12.8854 68.2562 13.6276 68.2562 14.5ZM66.5414 14.5C66.5414 13.9349 66.4568 13.4583 66.2875 13.0703C66.1208 12.6823 65.8852 12.388 65.5805 12.1875C65.2758 11.987 64.919 11.8867 64.5102 11.8867C64.1013 11.8867 63.7445 11.987 63.4398 12.1875C63.1352 12.388 62.8982 12.6823 62.7289 13.0703C62.5622 13.4583 62.4789 13.9349 62.4789 14.5C62.4789 15.0651 62.5622 15.5417 62.7289 15.9297C62.8982 16.3177 63.1352 16.612 63.4398 16.8125C63.7445 17.013 64.1013 17.1133 64.5102 17.1133C64.919 17.1133 65.2758 17.013 65.5805 16.8125C65.8852 16.612 66.1208 16.3177 66.2875 15.9297C66.4568 15.5417 66.5414 15.0651 66.5414 14.5ZM69.7292 18.5V10.5H75.0261V11.8945H71.4206V13.8008H74.6745V15.1953H71.4206V18.5H69.7292ZM76.3838 18.5V10.5H81.6806V11.8945H78.0752V13.8008H81.3291V15.1953H78.0752V18.5H76.3838ZM83.0383 18.5V10.5H88.4289V11.8945H84.7297V13.8008H88.1516V15.1953H84.7297V17.1055H88.4446V18.5H83.0383ZM89.9937 18.5V10.5H93.1499C93.7541 10.5 94.2697 10.6081 94.6968 10.8242C95.1265 11.0378 95.4533 11.3411 95.6773 11.7344C95.9038 12.125 96.0171 12.5846 96.0171 13.1133C96.0171 13.6445 95.9025 14.1016 95.6734 14.4844C95.4442 14.8646 95.1122 15.1562 94.6773 15.3594C94.245 15.5625 93.7215 15.6641 93.107 15.6641H90.9937V14.3047H92.8335C93.1564 14.3047 93.4247 14.2604 93.6382 14.1719C93.8517 14.0833 94.0106 13.9505 94.1148 13.7734C94.2215 13.5964 94.2749 13.3763 94.2749 13.1133C94.2749 12.8477 94.2215 12.6237 94.1148 12.4414C94.0106 12.2591 93.8504 12.1211 93.6343 12.0273C93.4208 11.931 93.1512 11.8828 92.8257 11.8828H91.6851V18.5H89.9937ZM94.314 14.8594L96.3023 18.5H94.4351L92.4898 14.8594H94.314Z" fill="#222222"/>
            <path d="M103 4V3H102H9C6.23858 3 4 5.23858 4 8V20C4 22.7614 6.23858 25 9 25H102H103V24V4Z" stroke="white" stroke-width="2"/>
        </g>
        <defs>
            <filter id="filter0_dd_2491_41024" x="0.814636" y="0.907318" width="105.371" height="29.4634" filterUnits="userSpaceOnUse" color-interpolation-filters="sRGB"><feFlood flood-opacity="0" result="BackgroundImageFix"/><feColorMatrix in="SourceAlpha" type="matrix" values="0 0 0 0 0 0 0 0 0 0 0 0 0 0 0 0 0 0 127 0" result="hardAlpha"/><feOffset dy="2.18536"/><feGaussianBlur stdDeviation="1.09268"/><feColorMatrix type="matrix" values="0 0 0 0 0 0 0 0 0 0 0 0 0 0 0 0 0 0 0.12 0"/><feBlend mode="normal" in2="BackgroundImageFix" result="effect1_dropShadow_2491_41024"/><feColorMatrix in="SourceAlpha" type="matrix" values="0 0 0 0 0 0 0 0 0 0 0 0 0 0 0 0 0 0 127 0" result="hardAlpha"/><feOffset/><feGaussianBlur stdDeviation="0.546341"/><feColorMatrix type="matrix" values="0 0 0 0 0 0 0 0 0 0 0 0 0 0 0 0 0 0 0.08 0"/><feBlend mode="normal" in2="effect1_dropShadow_2491_41024" result="effect2_dropShadow_2491_41024"/><feBlend mode="normal" in="SourceGraphic" in2="effect2_dropShadow_2491_41024" result="shape"/></filter><clipPath id="clip0_2491_41024"><rect width="18" height="18" fill="white" transform="translate(8 5)"/></clipPath>
        </defs>
    </symbol>
    <symbol id="exclusive-offers" xmlns="http://www.w3.org/2000/svg" viewBox="0 0 98 24" fill="none">
        <path d="M6 1C3.23858 1 1 3.23858 1 6V18C1 20.7614 3.23858 23 6 23H92C94.7614 23 97 20.7614 97 18V6C97 3.23858 94.7614 1 92 1H6Z" fill="#FFD600" stroke="white" stroke-width="2"/><g clip-path="url(#clip0_2514_86017)"><path d="M21.625 13.5C21.625 16.6481 19.1477 19.125 15.9996 19.125C12.8515 19.125 10.375 16.6481 10.375 13.5C10.375 10.3519 15.4296 7.725 14.8596 4.875C16 4.875 21.625 8.94038 21.625 13.5Z" fill="#DD2C00"/><path d="M19.375 15C19.375 12.1504 16 9.375 16 9.375C16 11.655 12.625 12.7204 12.625 15C12.625 16.8885 14.1111 18.375 16 18.375C17.8889 18.375 19.375 16.8885 19.375 15Z" fill="#FF5722"/><path d="M14.125 16.2773C14.1254 15 16.0004 14.2691 16.0004 13.125C16.0004 13.125 17.875 14.562 17.875 16.2773C17.875 17.2241 17.0361 17.9925 16 17.9925C14.9639 17.9925 14.1246 17.2245 14.125 16.2773H14.125Z" fill="#FFC107"/></g><path d="M27.6953 16V8H33.0859V9.39453H29.3867V11.3008H32.8086V12.6953H29.3867V14.6055H33.1016V16H27.6953ZM36.2366 8L37.8499 10.7266H37.9124L39.5335 8H41.4436L39.0022 12L41.4983 16H39.553L37.9124 13.2695H37.8499L36.2093 16H34.2718L36.7757 12L34.3186 8H36.2366ZM49.4166 10.8008H47.7056C47.6744 10.5794 47.6106 10.3828 47.5142 10.2109C47.4179 10.0365 47.2942 9.88802 47.1431 9.76562C46.9921 9.64323 46.8176 9.54948 46.6197 9.48437C46.4244 9.41927 46.2121 9.38672 45.983 9.38672C45.5689 9.38672 45.2082 9.48958 44.9009 9.69531C44.5936 9.89844 44.3554 10.1953 44.1861 10.5859C44.0168 10.974 43.9322 11.4453 43.9322 12C43.9322 12.5703 44.0168 13.0495 44.1861 13.4375C44.358 13.8255 44.5976 14.1185 44.9048 14.3164C45.2121 14.5143 45.5676 14.6133 45.9712 14.6133C46.1978 14.6133 46.4074 14.5833 46.6002 14.5234C46.7955 14.4635 46.9686 14.3763 47.1197 14.2617C47.2707 14.1445 47.3957 14.0026 47.4947 13.8359C47.5962 13.6693 47.6666 13.4792 47.7056 13.2656L49.4166 13.2734C49.3723 13.6406 49.2616 13.9948 49.0845 14.3359C48.9101 14.6745 48.6744 14.9779 48.3775 15.2461C48.0832 15.5117 47.7317 15.7227 47.3228 15.8789C46.9166 16.0326 46.4569 16.1094 45.9439 16.1094C45.2304 16.1094 44.5923 15.9479 44.0298 15.625C43.4699 15.3021 43.0272 14.8346 42.7017 14.2227C42.3788 13.6107 42.2173 12.8698 42.2173 12C42.2173 11.1276 42.3814 10.3854 42.7095 9.77344C43.0377 9.16146 43.483 8.69531 44.0455 8.375C44.608 8.05208 45.2408 7.89062 45.9439 7.89062C46.4074 7.89062 46.8371 7.95573 47.233 8.08594C47.6314 8.21615 47.9843 8.40625 48.2916 8.65625C48.5989 8.90365 48.8489 9.20703 49.0416 9.56641C49.2369 9.92578 49.3619 10.3372 49.4166 10.8008ZM50.8495 16V8H52.5409V14.6055H55.9705V16H50.8495ZM62.2521 8H63.9435V13.1953C63.9435 13.7786 63.8042 14.2891 63.5255 14.7266C63.2495 15.1641 62.8627 15.5052 62.3654 15.75C61.868 15.9922 61.2885 16.1133 60.6271 16.1133C59.963 16.1133 59.3823 15.9922 58.8849 15.75C58.3875 15.5052 58.0008 15.1641 57.7247 14.7266C57.4487 14.2891 57.3107 13.7786 57.3107 13.1953V8H59.0021V13.0508C59.0021 13.3555 59.0685 13.6263 59.2013 13.8633C59.3367 14.1003 59.5268 14.2865 59.7716 14.4219C60.0164 14.5573 60.3015 14.625 60.6271 14.625C60.9552 14.625 61.2404 14.5573 61.4825 14.4219C61.7273 14.2865 61.9161 14.1003 62.0489 13.8633C62.1844 13.6263 62.2521 13.3555 62.2521 13.0508V8ZM69.8949 10.3008C69.8637 9.98568 69.7296 9.74089 69.4926 9.56641C69.2556 9.39193 68.934 9.30469 68.5277 9.30469C68.2517 9.30469 68.0186 9.34375 67.8285 9.42187C67.6384 9.4974 67.4926 9.60286 67.391 9.73828C67.2921 9.8737 67.2426 10.0273 67.2426 10.1992C67.2374 10.3424 67.2673 10.4674 67.3324 10.5742C67.4001 10.681 67.4926 10.7734 67.6098 10.8516C67.727 10.9271 67.8624 10.9935 68.016 11.0508C68.1697 11.1055 68.3337 11.1523 68.5082 11.1914L69.227 11.3633C69.5759 11.4414 69.8962 11.5456 70.1879 11.6758C70.4796 11.806 70.7322 11.9661 70.9457 12.1562C71.1592 12.3464 71.3246 12.5703 71.4418 12.8281C71.5616 13.0859 71.6228 13.3815 71.6254 13.7148C71.6228 14.2044 71.4978 14.6289 71.2504 14.9883C71.0056 15.3451 70.6514 15.6224 70.1879 15.8203C69.727 16.0156 69.171 16.1133 68.5199 16.1133C67.8741 16.1133 67.3116 16.0143 66.8324 15.8164C66.3559 15.6185 65.9835 15.3255 65.7152 14.9375C65.4496 14.5469 65.3103 14.0638 65.2973 13.4883H66.934C66.9522 13.7565 67.029 13.9805 67.1645 14.1602C67.3025 14.3372 67.4861 14.4714 67.7152 14.5625C67.947 14.651 68.2087 14.6953 68.5004 14.6953C68.7868 14.6953 69.0355 14.6536 69.2465 14.5703C69.46 14.487 69.6254 14.3711 69.7426 14.2227C69.8598 14.0742 69.9184 13.9036 69.9184 13.7109C69.9184 13.5312 69.865 13.3802 69.7582 13.2578C69.654 13.1354 69.5004 13.0312 69.2973 12.9453C69.0967 12.8594 68.8506 12.7812 68.559 12.7109L67.6879 12.4922C67.0134 12.3281 66.4809 12.0716 66.0902 11.7227C65.6996 11.3737 65.5056 10.9036 65.5082 10.3125C65.5056 9.82812 65.6345 9.40495 65.8949 9.04297C66.1579 8.68099 66.5186 8.39844 66.977 8.19531C67.4353 7.99219 67.9561 7.89062 68.5395 7.89062C69.1332 7.89062 69.6514 7.99219 70.0941 8.19531C70.5395 8.39844 70.8858 8.68099 71.1332 9.04297C71.3806 9.40495 71.5082 9.82422 71.516 10.3008H69.8949ZM74.6745 8V16H72.9831V8H74.6745ZM77.7314 8L79.665 14.0781H79.7392L81.6767 8H83.5517L80.7939 16H78.6142L75.8525 8H77.7314ZM84.7346 16V8H90.1252V9.39453H86.426V11.3008H89.8479V12.6953H86.426V14.6055H90.1409V16H84.7346Z" fill="#222222"/><defs><clipPath id="clip0_2514_86017"><rect width="18" height="18" fill="white" transform="translate(7 3)"/></clipPath></defs>
    </symbol>
    <symbol id="star" xmlns="http://www.w3.org/2000/svg" viewBox="0 0 16 15" fill="inherit">
        <path d="M8 0L10.1254 5.07459L15.6085 5.52786L11.439 9.1174L12.7023 14.4721L8 11.616L3.29772 14.4721L4.56098 9.1174L0.391548 5.52786L5.87457 5.07459L8 0Z" fill="inherit"/>
    </symbol>
    <symbol id="icon-box" viewBox="0 0 20 20" fill="none" xmlns="http://www.w3.org/2000/svg">
        <path d="M2.4974 9.5451V16.666V18.3327H4.16406H9.29965V9.5451H2.4974Z" fill="currentColor"/>
        <path fill-rule="evenodd" clip-rule="evenodd" d="M5.83073 1.66602C4.46029 1.66602 3.33073 2.79557 3.33073 4.16602C3.33073 4.45898 3.39258 4.73568 3.48698 4.99935H3.33073L3.32863 4.99935H1.66406V6.66602V8.33268H18.3307V6.66602V4.99935H16.6641H16.5078C16.6022 4.73568 16.6641 4.45899 16.6641 4.16602C16.6641 2.79557 15.5345 1.66602 14.1641 1.66602C12.8359 1.66602 11.804 2.50911 10.987 3.33268H9.00781C8.19076 2.50911 7.15885 1.66602 5.83073 1.66602ZM8.07031 4.73893C7.34115 3.9707 6.38086 3.33268 5.83073 3.33268C5.35872 3.33268 4.9974 3.69401 4.9974 4.16602C4.9974 4.63802 5.35873 4.99935 5.83073 4.99935H8.27865C8.22854 4.94187 8.20645 4.90975 8.18581 4.87972C8.16086 4.84342 8.13801 4.81019 8.07031 4.73893ZM14.9974 4.16602C14.9974 3.69401 14.6361 3.33268 14.1641 3.33268C13.6139 3.33268 12.6536 3.97071 11.9245 4.73893C11.8568 4.81019 11.8339 4.84342 11.809 4.87972C11.7883 4.90975 11.7663 4.94187 11.7161 4.99935H14.1641C14.6361 4.99935 14.9974 4.63802 14.9974 4.16602Z" fill="currentColor"/>
        <path d="M17.4974 16.666V9.5451H10.695V18.3327H15.8307H17.4974V16.666Z" fill="currentColor"/>
    </symbol>
    <symbol id="icon-check" viewBox="0 0 16 16" fill="none" xmlns="http://www.w3.org/2000/svg">
        <path d="M2.67578 8.28811L6.00019 11.6125L13.3139 4.29883" stroke="currentColor" stroke-width="1.8" stroke-linecap="square"/>
    </symbol>
    <symbol id="icon-close" viewBox="0 0 16 16" fill="none" xmlns="http://www.w3.org/2000/svg">
        <path d="M13.4218 2.57812L2.57812 13.4218" stroke="currentColor" stroke-width="1.73502"/>
        <path d="M2.57812 2.57812L13.4218 13.4218" stroke="currentColor" stroke-width="1.73502"/>
    </symbol>
    <symbol id="icon-arrow"  viewBox="0 0 16 16" fill="none" xmlns="http://www.w3.org/2000/svg">
        <path d="M13.7707 5.11523L8.00059 10.8853L2.23047 5.11523" stroke="currentColor" stroke-width="2"/>
    </symbol>
    <symbol id="icon-verified" viewBox="0 0 22 22" fill="none" xmlns="http://www.w3.org/2000/svg">
        <path d="M10.59 1.8569C10.7826 1.5592 11.2182 1.5592 11.4109 1.8569L12.8997 4.15752C13.0254 4.35181 13.2701 4.43133 13.4861 4.34805L16.0428 3.36191C16.3737 3.2343 16.726 3.49033 16.7069 3.84441L16.5591 6.58076C16.5466 6.81184 16.6979 7.02002 16.9215 7.07956L19.5696 7.78457C19.9123 7.8758 20.0469 8.29006 19.8233 8.56528L18.0953 10.6922C17.9494 10.8718 17.9494 11.1291 18.0953 11.3087L19.8233 13.4356C20.0469 13.7108 19.9123 14.1251 19.5696 14.2163L16.9215 14.9213C16.6979 14.9808 16.5466 15.189 16.5591 15.4201L16.7069 18.1565C16.726 18.5105 16.3737 18.7666 16.0428 18.639L13.4861 17.6528C13.2701 17.5695 13.0254 17.6491 12.8997 17.8433L11.4109 20.144C11.2182 20.4417 10.7826 20.4417 10.59 20.144L9.10118 17.8433C8.97545 17.6491 8.73072 17.5695 8.5148 17.6528L5.95805 18.639C5.62721 18.7666 5.27482 18.5105 5.29395 18.1565L5.44174 15.4201C5.45422 15.189 5.30297 14.9808 5.07934 14.9213L2.43125 14.2163C2.08859 14.1251 1.95398 13.7108 2.17758 13.4356L3.90554 11.3087C4.05146 11.1291 4.05146 10.8718 3.90554 10.6922L2.17758 8.56528C1.95398 8.29006 2.08858 7.8758 2.43125 7.78457L5.07934 7.07956C5.30297 7.02002 5.45422 6.81184 5.44174 6.58076L5.29395 3.84441C5.27482 3.49033 5.62721 3.2343 5.95805 3.36191L8.5148 4.34805C8.73072 4.43133 8.97545 4.35181 9.10118 4.15752L10.59 1.8569Z" fill="currentColor"/>
        <path d="M9.78763 13.8711C9.94877 14.0322 10.2227 14.0322 10.3838 13.8711L15.1212 9.13373C15.2823 8.9726 15.2823 8.69867 15.1212 8.53753L14.5411 7.95745C14.38 7.79631 14.1222 7.79631 13.961 7.95745L10.0938 11.8247L8.27296 10.02C8.11183 9.85884 7.85401 9.85884 7.69288 10.02L7.11279 10.6001C6.95166 10.7612 6.95166 11.0351 7.11279 11.1963L9.78763 13.8711Z" fill="white"/>
    </symbol>
    <symbol id="icon-recommended" xmlns="http://www.w3.org/2000/svg" viewBox="0 0 104 20" fill="none">
        <rect x="1" y="1" width="102" height="18" rx="4" fill="#FFD600"/><path d="M7.56889 13.5V6.95455H10.1513C10.6456 6.95455 11.0675 7.04297 11.4169 7.21982C11.7685 7.39453 12.0359 7.64276 12.2191 7.96449C12.4045 8.28409 12.4972 8.66016 12.4972 9.09268C12.4972 9.52734 12.4034 9.90128 12.2159 10.2145C12.0284 10.5256 11.7567 10.7642 11.4009 10.9304C11.0472 11.0966 10.619 11.1797 10.1161 11.1797H8.38707V10.0675H9.8924C10.1566 10.0675 10.3761 10.0312 10.5508 9.95881C10.7255 9.88636 10.8555 9.7777 10.9407 9.63281C11.0281 9.48793 11.0717 9.30788 11.0717 9.09268C11.0717 8.87535 11.0281 8.69212 10.9407 8.54297C10.8555 8.39382 10.7244 8.28089 10.5476 8.20419C10.3729 8.12536 10.1523 8.08594 9.88601 8.08594H8.95277V13.5H7.56889ZM11.1037 10.5213L12.7305 13.5H11.2028L9.61115 10.5213H11.1037ZM13.6551 13.5V6.95455H18.0657V8.09553H15.039V9.65518H17.8387V10.7962H15.039V12.359H18.0784V13.5H13.6551ZM25.1211 9.24609H23.7212C23.6957 9.06499 23.6435 8.90412 23.5646 8.76349C23.4858 8.62074 23.3846 8.49929 23.261 8.39915C23.1374 8.29901 22.9947 8.2223 22.8327 8.16903C22.6729 8.11577 22.4993 8.08913 22.3118 8.08913C21.973 8.08913 21.6779 8.1733 21.4265 8.34162C21.1751 8.50781 20.9801 8.75071 20.8416 9.07031C20.7031 9.38778 20.6339 9.77344 20.6339 10.2273C20.6339 10.6939 20.7031 11.0859 20.8416 11.4034C20.9822 11.7209 21.1783 11.9606 21.4297 12.1225C21.6811 12.2844 21.9719 12.3654 22.3022 12.3654C22.4876 12.3654 22.6591 12.3409 22.8168 12.2919C22.9766 12.2429 23.1183 12.1715 23.2418 12.0778C23.3654 11.9819 23.4677 11.8658 23.5487 11.7294C23.6318 11.593 23.6893 11.4375 23.7212 11.2628L25.1211 11.2692C25.0849 11.5696 24.9943 11.8594 24.8494 12.1385C24.7067 12.4155 24.5139 12.6637 24.271 12.8832C24.0302 13.1005 23.7425 13.2731 23.408 13.4009C23.0756 13.5266 22.6996 13.5895 22.2798 13.5895C21.696 13.5895 21.174 13.4574 20.7138 13.1932C20.2557 12.929 19.8935 12.5465 19.6271 12.0458C19.3629 11.5451 19.2308 10.9389 19.2308 10.2273C19.2308 9.51349 19.3651 8.90625 19.6335 8.40554C19.902 7.90483 20.2663 7.52344 20.7266 7.26136C21.1868 6.99716 21.7045 6.86506 22.2798 6.86506C22.6591 6.86506 23.0107 6.91832 23.3345 7.02486C23.6605 7.13139 23.9492 7.28693 24.2006 7.49148C24.4521 7.69389 24.6566 7.94212 24.8143 8.23615C24.9741 8.53018 25.0764 8.86683 25.1211 9.24609ZM32.3084 10.2273C32.3084 10.9411 32.1731 11.5483 31.9025 12.049C31.634 12.5497 31.2675 12.9322 30.8031 13.1964C30.3407 13.4585 29.8208 13.5895 29.2434 13.5895C28.6617 13.5895 28.1397 13.4574 27.6773 13.1932C27.215 12.929 26.8496 12.5465 26.5811 12.0458C26.3126 11.5451 26.1784 10.9389 26.1784 10.2273C26.1784 9.51349 26.3126 8.90625 26.5811 8.40554C26.8496 7.90483 27.215 7.52344 27.6773 7.26136C28.1397 6.99716 28.6617 6.86506 29.2434 6.86506C29.8208 6.86506 30.3407 6.99716 30.8031 7.26136C31.2675 7.52344 31.634 7.90483 31.9025 8.40554C32.1731 8.90625 32.3084 9.51349 32.3084 10.2273ZM30.9053 10.2273C30.9053 9.76491 30.8361 9.375 30.6976 9.05753C30.5612 8.74006 30.3684 8.49929 30.1191 8.33523C29.8698 8.17116 29.5779 8.08913 29.2434 8.08913C28.9089 8.08913 28.617 8.17116 28.3677 8.33523C28.1184 8.49929 27.9245 8.74006 27.786 9.05753C27.6496 9.375 27.5815 9.76491 27.5815 10.2273C27.5815 10.6896 27.6496 11.0795 27.786 11.397C27.9245 11.7145 28.1184 11.9553 28.3677 12.1193C28.617 12.2834 28.9089 12.3654 29.2434 12.3654C29.5779 12.3654 29.8698 12.2834 30.1191 12.1193C30.3684 11.9553 30.5612 11.7145 30.6976 11.397C30.8361 11.0795 30.9053 10.6896 30.9053 10.2273ZM33.5135 6.95455H35.2202L37.0227 11.3523H37.0994L38.902 6.95455H40.6087V13.5H39.2663V9.2397H39.212L37.5181 13.468H36.6041L34.9102 9.22372H34.8558V13.5H33.5135V6.95455ZM41.9289 6.95455H43.6355L45.4381 11.3523H45.5148L47.3173 6.95455H49.024V13.5H47.6817V9.2397H47.6274L45.9335 13.468H45.0194L43.3255 9.22372H43.2712V13.5H41.9289V6.95455ZM50.3442 13.5V6.95455H54.7547V8.09553H51.7281V9.65518H54.5278V10.7962H51.7281V12.359H54.7675V13.5H50.3442ZM61.5097 6.95455V13.5H60.3144L57.4668 9.38033H57.4188V13.5H56.0349V6.95455H57.2494L60.0747 11.071H60.1322V6.95455H61.5097ZM65.1534 13.5H62.8331V6.95455H65.1726C65.831 6.95455 66.3977 7.08558 66.8729 7.34766C67.348 7.6076 67.7134 7.98153 67.9691 8.46946C68.2269 8.95739 68.3558 9.54119 68.3558 10.2209C68.3558 10.9027 68.2269 11.4886 67.9691 11.9787C67.7134 12.4687 67.3459 12.8448 66.8665 13.1069C66.3892 13.369 65.8182 13.5 65.1534 13.5ZM64.217 12.3143H65.0959C65.505 12.3143 65.8491 12.2418 66.1282 12.0969C66.4095 11.9499 66.6204 11.723 66.761 11.4162C66.9038 11.1072 66.9752 10.7088 66.9752 10.2209C66.9752 9.73722 66.9038 9.34197 66.761 9.03516C66.6204 8.72834 66.4105 8.50249 66.1314 8.3576C65.8523 8.21271 65.5082 8.14027 65.0991 8.14027H64.217V12.3143ZM69.561 13.5V6.95455H73.9715V8.09553H70.9448V9.65518H73.7446V10.7962H70.9448V12.359H73.9843V13.5H69.561ZM77.572 13.5H75.2517V6.95455H77.5912C78.2496 6.95455 78.8163 7.08558 79.2915 7.34766C79.7666 7.6076 80.132 7.98153 80.3877 8.46946C80.6455 8.95739 80.7744 9.54119 80.7744 10.2209C80.7744 10.9027 80.6455 11.4886 80.3877 11.9787C80.132 12.4687 79.7645 12.8448 79.2851 13.1069C78.8078 13.369 78.2368 13.5 77.572 13.5ZM76.6356 12.3143H77.5145C77.9236 12.3143 78.2677 12.2418 78.5468 12.0969C78.8281 11.9499 79.039 11.723 79.1796 11.4162C79.3224 11.1072 79.3938 10.7088 79.3938 10.2209C79.3938 9.73722 79.3224 9.34197 79.1796 9.03516C79.039 8.72834 78.8291 8.50249 78.55 8.3576C78.2709 8.21271 77.9268 8.14027 77.5177 8.14027H76.6356V12.3143ZM84.2426 13.5V6.95455H86.8633C87.3448 6.95455 87.7465 7.02592 88.0682 7.16868C88.3899 7.31143 88.6318 7.50959 88.7937 7.76314C88.9556 8.01456 89.0366 8.30433 89.0366 8.63246C89.0366 8.88814 88.9855 9.11293 88.8832 9.30682C88.7809 9.49858 88.6403 9.65625 88.4613 9.77983C88.2845 9.90128 88.0821 9.98757 87.8541 10.0387V10.1026C88.1034 10.1133 88.3367 10.1836 88.554 10.3136C88.7735 10.4435 88.9514 10.6257 89.0877 10.8601C89.2241 11.0923 89.2923 11.3693 89.2923 11.6911C89.2923 12.0384 89.206 12.3484 89.0334 12.6211C88.863 12.8917 88.6105 13.1058 88.2759 13.2635C87.9414 13.4212 87.5291 13.5 87.0391 13.5H84.2426ZM85.6264 12.3686H86.7546C87.1403 12.3686 87.4215 12.2951 87.5984 12.1481C87.7752 11.9989 87.8637 11.8008 87.8637 11.5536C87.8637 11.3725 87.82 11.2127 87.7326 11.0742C87.6453 10.9357 87.5206 10.8271 87.3587 10.7482C87.1989 10.6694 87.0082 10.63 86.7866 10.63H85.6264V12.3686ZM85.6264 9.69354H86.6524C86.842 9.69354 87.0103 9.66051 87.1573 9.59446C87.3065 9.52628 87.4237 9.4304 87.5089 9.30682C87.5963 9.18324 87.6399 9.03516 87.6399 8.86257C87.6399 8.62607 87.5558 8.43537 87.3875 8.29048C87.2213 8.1456 86.9848 8.07315 86.6779 8.07315H85.6264V9.69354ZM89.9892 6.95455H91.5393L93.0318 9.77344H93.0958L94.5883 6.95455H96.1384L93.751 11.1861V13.5H92.3767V11.1861L89.9892 6.95455Z" fill="#222222"/><rect x="1" y="1" width="102" height="18" rx="4" stroke="white" stroke-width="2"/>
    </symbol>
    <symbol id="menu-casino" viewBox="0 0 22 22" fill="none" xmlns="http://www.w3.org/2000/svg">
        <g clip-path="url(#clip0_725_74846)">
            <path d="M10.9997 0C4.92407 0 0 4.92407 0 10.9997C0 17.0753 4.92407 21.9993 10.9997 21.9993C17.0753 21.9993 21.9993 17.0753 21.9993 10.9997C21.9993 4.92407 17.0753 0 10.9997 0ZM10.9997 1.09997C11.3821 1.09997 11.7602 1.12575 12.134 1.16872L11.8934 3.36865C11.6055 3.33428 11.3004 3.2999 10.9997 3.2999C10.6688 3.2999 10.3552 3.32998 10.0372 3.36865L9.76221 1.20309C10.1704 1.15153 10.5743 1.09997 10.9997 1.09997V1.09997ZM14.4371 1.7187C15.189 1.99799 15.9152 2.37181 16.5683 2.81867L15.3308 4.64049C14.8238 4.29245 14.2652 4.00027 13.6808 3.78114L14.4371 1.7187ZM7.45915 1.75307L8.24976 3.81551C7.6654 4.03894 7.10252 4.32253 6.5998 4.67486L5.32797 2.88742C5.97678 2.43626 6.70722 2.04096 7.45915 1.75308V1.75307ZM10.9997 4.39987C14.6433 4.39987 17.5995 7.35603 17.5995 10.9997C17.5995 14.6433 14.6433 17.5995 10.9997 17.5995C7.35603 17.5995 4.39987 14.6433 4.39987 10.9997C4.39987 7.35603 7.35603 4.39987 10.9997 4.39987ZM18.3557 4.39987C18.8842 4.98852 19.3526 5.62015 19.7307 6.32481L17.8057 7.39041C17.5135 6.84042 17.1182 6.33771 16.7058 5.87795L18.3557 4.39987ZM3.57489 4.46862L5.22485 5.91233C4.81665 6.37638 4.44713 6.90487 4.15925 7.45916L2.23431 6.42794C2.60383 5.71897 3.05069 5.06587 3.57489 4.46862V4.46862ZM8.66224 7.56228C8.37866 7.56228 8.12085 7.69118 7.90602 7.90602C7.47634 8.33569 7.47634 9.02317 7.90602 9.45285L9.45285 10.9997L7.90602 12.5465C7.47634 12.9762 7.47634 13.6637 7.90602 14.0933C8.33569 14.523 9.02317 14.523 9.45285 14.0933L10.9997 12.5465L12.5465 14.0933C12.9762 14.523 13.6637 14.523 14.0933 14.0933C14.523 13.6637 14.523 12.9762 14.0933 12.5465L12.5465 10.9997L14.0933 9.45285C14.523 9.02318 14.523 8.3357 14.0933 7.90602C13.6637 7.47635 12.9762 7.47635 12.5465 7.90602L10.9997 9.45285L9.45285 7.90603C9.23802 7.69119 8.94584 7.56229 8.66225 7.56229L8.66224 7.56228ZM20.59 8.55912C20.7834 9.32395 20.8951 10.1403 20.8994 10.9653L20.6588 10.9309L18.6994 10.9997C18.6994 10.3466 18.6135 9.71495 18.4588 9.10911L20.59 8.55912ZM1.37496 8.66224L3.50615 9.17785C3.36435 9.75792 3.2999 10.3766 3.2999 10.9997C3.2999 11.0083 3.2999 11.0255 3.2999 11.034H1.09997C1.09997 11.0212 1.09997 11.0126 1.09997 10.9997C1.09997 10.1962 1.1945 9.40988 1.37496 8.66224H1.37496ZM3.54052 12.8559C3.69091 13.466 3.90574 14.0676 4.19363 14.6089L2.23431 15.6402C1.86479 14.9441 1.60698 14.1879 1.40933 13.4059L3.54052 12.8559ZM18.4588 12.8559L20.59 13.3715C20.3967 14.1578 20.1346 14.9054 19.765 15.6058L17.8057 14.5746C18.0893 14.0332 18.3084 13.466 18.4588 12.8559H18.4588ZM16.7745 16.087L18.3901 17.5651C17.8616 18.1624 17.2944 18.6909 16.637 19.1463L15.3652 17.3245C15.8765 16.9722 16.3663 16.5511 16.7745 16.087H16.7745ZM5.25922 16.1214C5.67171 16.5854 6.12287 17.0065 6.63418 17.3589L5.39672 19.1463C4.73931 18.6952 4.13777 18.1581 3.60927 17.5651L5.25922 16.1214ZM8.28413 18.1838C8.8556 18.3987 9.47863 18.5577 10.106 18.6307L9.83096 20.8306C9.02317 20.7361 8.26264 20.5256 7.5279 20.2463L8.28413 18.1838ZM13.7496 18.1838L14.5058 20.2463C13.7711 20.5256 13.0106 20.7318 12.2028 20.8306L11.9278 18.6307C12.5508 18.5534 13.1781 18.3987 13.7496 18.1838H13.7496Z" fill="currentColor"/>
        </g>
        <defs>
            <clipPath id="clip0_725_74846">
                <rect width="22" height="22" fill="white"/>
            </clipPath>
        </defs>
    </symbol>
    <symbol id="menu-slots" viewBox="0 0 22 22" fill="none" xmlns="http://www.w3.org/2000/svg">
        <path d="M14.2066 0C14.2066 0 12.8512 0.757139 12.0993 2.14258C11.638 2.25755 10.3321 2.62093 8.82238 3.76473C7.097 5.07188 5.38522 7.39666 5.23909 10.976C5.11882 10.9625 4.99632 10.9505 4.86082 10.9505C3.08091 10.9505 1 12.0209 1 15.0353C1 17.7271 3.4104 20 6.26289 20C8.74697 20 11.5258 17.8769 11.5258 15.0353C11.5258 12.039 9.21645 10.9505 7.66495 10.9505C7.549 10.9505 7.44644 10.9624 7.34219 10.9721C7.4764 8.0045 8.7925 6.35294 10.1299 5.33975C10.2918 5.21711 10.4522 5.10648 10.6109 5.00393C10.1666 8.01001 11.5488 10.4464 12.9258 12.0267C13.3709 12.8621 13.6309 13.8632 13.6309 15.0236C13.6309 16.2503 13.295 17.3657 12.7161 18.3209C13.6003 18.7633 14.5884 18.9945 15.5778 18.9945C16.5672 18.9945 17.5576 18.7625 18.4313 18.2698C19.6417 17.5962 20.5244 16.3996 20.8612 15.002C21.1875 13.6144 20.9355 12.2281 20.1355 11.0919C18.304 8.46756 15.5772 8.66803 14.1983 9.44226C14.0309 9.53602 13.8891 9.63354 13.7625 9.73291C13.0861 8.74515 12.5853 7.57105 12.6071 6.15868C13.7843 7.13403 15.7132 7.0057 16.7887 6.71838C16.7887 6.71838 16.3445 4.45614 15.0351 3.40338C14.6295 3.07743 14.3245 2.86101 14.0668 2.68853C14.5022 2.20516 15.1605 1.79105 15.1605 1.79105L14.2066 0Z" fill="currentColor"/>
    </symbol>
    <symbol id="menu-tips" viewBox="0 0 23 24" fill="none" xmlns="http://www.w3.org/2000/svg">
        <path fill-rule="evenodd" clip-rule="evenodd" d="M6.3261 13.1562C5.12379 13.1562 4.01621 13.5479 3.12068 14.2104C2.66422 14.5481 2.26286 14.9561 1.93212 15.4185C1.29332 16.3116 0.917969 17.4076 0.917969 18.5911C0.917969 21.5896 3.35435 23.9992 6.3261 23.9992C8.06585 23.9992 9.60735 23.1791 10.595 21.91C10.9396 21.4672 11.2168 20.9698 11.4114 20.4335C11.6204 19.8577 11.7342 19.237 11.7342 18.5911C11.7341 17.0495 11.0972 15.6564 10.0708 14.6667C9.87933 14.4821 9.67436 14.3115 9.45743 14.1566C8.57521 13.5267 7.49544 13.1562 6.3261 13.1562ZM4.36935 20.5627L4.38873 20.5433C4.59789 20.3342 4.75736 20.1211 4.86846 19.9043C4.97709 19.6868 5.03352 19.4028 5.03352 19.0486C5.03352 18.9769 5.02843 18.9033 5.01818 18.8278H4.07416V17.9739H4.75348C4.71547 17.8571 4.68102 17.7369 4.65011 17.6133L4.64957 17.6111C4.61572 17.4532 4.59894 17.2872 4.59894 17.1135C4.59894 16.7432 4.67756 16.4196 4.83754 16.1454L4.83805 16.1445C5.00319 15.8712 5.23139 15.663 5.52131 15.5208C5.816 15.3736 6.15157 15.3008 6.52642 15.3008C6.94996 15.3008 7.30667 15.3816 7.59277 15.5475C7.87632 15.712 8.09301 15.934 8.24119 16.2133C8.38823 16.4904 8.46977 16.7979 8.48662 17.1348L8.49009 17.2042H7.38956L7.38686 17.1409C7.3765 16.8973 7.2993 16.6994 7.15788 16.5429L7.15718 16.5421C7.01968 16.3849 6.81854 16.3023 6.54282 16.3023C6.31705 16.3023 6.12467 16.3711 5.96232 16.5081C5.80717 16.639 5.72343 16.8468 5.72343 17.1463C5.72343 17.2815 5.74421 17.4228 5.7864 17.5706C5.82556 17.7027 5.86916 17.8371 5.91721 17.9739H7.46995V18.8278H6.1438C6.15326 18.9027 6.15801 18.9764 6.15801 19.0486C6.15801 19.2815 6.11254 19.5163 6.02248 19.7527C5.94792 19.9484 5.83379 20.1317 5.6812 20.3025H8.5113V21.2713H4.36935V20.5627Z" fill="currentColor"/>
        <path d="M12.0007 0C5.94929 0 1.00072 4.94857 1.00072 11C1.00072 12.5694 1.33354 14.0646 1.93212 15.4185C2.26286 14.9561 2.66422 14.5481 3.12068 14.2104C2.75212 13.2091 2.5476 12.1284 2.5476 11C2.5476 10.9417 2.55499 10.8844 2.56231 10.8276C2.56848 10.7798 2.57461 10.7324 2.57624 10.6849L3.46426 11.6302L5.87051 8.9948L5.49812 5.5L4.18041 5.72917C5.41576 3.89942 7.27058 2.528 9.45124 1.91927L8.79239 3.1224L12.0007 4.4974L15.2091 3.1224L14.5502 1.91927C16.7309 2.528 18.5857 3.89941 19.821 5.72917L18.5033 5.5L18.1309 8.99479L20.5372 11.6302L21.4252 10.6849C21.4268 10.7324 21.433 10.7798 21.4391 10.8276C21.44 10.8347 21.441 10.8418 21.4419 10.8489C21.4482 10.8987 21.4538 10.949 21.4538 11C21.4538 13.1842 20.6876 15.1895 19.4486 16.7865L19.2481 15.4974L15.8393 16.2135L14.0059 19.25L15.2663 19.8516C14.2458 20.2275 13.1537 20.4531 12.0007 20.4531C11.8025 20.4531 11.606 20.4465 11.4114 20.4335C11.2168 20.9698 10.9396 21.4672 10.595 21.91C11.0555 21.9694 11.5247 22 12.0007 22C18.0522 22 23.0007 17.0514 23.0007 11C23.0007 4.94857 18.0522 0 12.0007 0Z" fill="currentColor"/>
        <path d="M12.0007 7.33333L8.16218 10.1693L9.45743 14.1566C9.67436 14.3115 9.87933 14.4821 10.0708 14.6667H14.3783L15.8393 10.1693L12.0007 7.33333Z" fill="currentColor"/>
    </symbol>
    <symbol id="menu-predictions" viewBox="0 0 22 22" fill="none" xmlns="http://www.w3.org/2000/svg">
        <g clip-path="url(#clip0_645_60959)">
            <path d="M1.10156 2V3C1.10156 5.76667 2.22969 7.76202 3.24785 9.30469C4.26601 10.8474 5.06156 11.9444 5.06156 13H7.04156C7.04156 12.9838 7.03786 12.9692 7.03769 12.9531C8.00639 15.1662 9.02156 16 9.02156 16H12.9816C12.9816 16 13.9967 15.1662 14.9654 12.9531C14.9653 12.9692 14.9616 12.9838 14.9616 13H16.9416C16.9416 11.9444 17.7371 10.8474 18.7553 9.30469C19.7734 7.76202 20.9016 5.76667 20.9016 3V2H1.10156ZM3.27105 4H5.33226C5.39547 6.40807 5.67413 8.38024 6.0593 9.97461C5.69177 9.36679 5.28242 8.7819 4.89527 8.19531C4.09994 6.99027 3.49656 5.65498 3.27105 4ZM16.6709 4H18.7321C18.5066 5.65498 17.9032 6.99026 17.1078 8.19531C16.7207 8.78191 16.3114 9.36679 15.9438 9.97461C16.329 8.38024 16.6076 6.40807 16.6709 4ZM6.05156 18V20H15.9516V18H6.05156Z" fill="currentColor"/>
        </g>
        <defs>
            <clipPath id="clip0_645_60959">
                <rect width="22" height="22" fill="white"/>
            </clipPath>
        </defs>
    </symbol>
    <symbol id="menu-about" viewBox="0 0 22 22" fill="none" xmlns="http://www.w3.org/2000/svg">
        <g clip-path="url(#clip0_645_60942)">
            <path d="M11.0013 0C5.43327 0 0.917969 4.10352 0.917969 9.16667C0.917969 14.2298 5.43327 18.3333 11.0013 18.3333V22C11.0013 22 21.0846 17.0872 21.0846 9.16667C21.0846 4.10352 16.5693 1.27907e-06 11.0013 1.27907e-06V0ZM12.1221 13.8646H9.88053V7.48014H12.1221V13.8646ZM11.0049 5.68262C9.79102 5.68262 9.78385 4.78744 9.78385 4.57975C9.78385 4.36849 9.78385 3.48405 11.0049 3.48405C12.2295 3.48405 12.2259 4.36849 12.2259 4.57975C12.2259 4.78743 12.2188 5.68262 11.0049 5.68262Z" fill="currentColor"/>
        </g>
        <defs>
            <clipPath id="clip0_645_60942">
                <rect width="22" height="22" fill="white"/>
            </clipPath>
        </defs>
    </symbol>
    <symbol id="menu-contact" viewBox="0 0 22 22" fill="none" xmlns="http://www.w3.org/2000/svg">
        <g clip-path="url(#clip0_645_60947)">
            <path d="M16.5026 0H1.83594V18.3333L4.09538 22H19.2526V5.24577L16.5026 0ZM9.16927 5.5C10.1826 5.5 11.0026 6.31999 11.0026 7.33333C11.0026 8.34668 10.1826 9.16667 9.16927 9.16667C8.15593 9.16667 7.33594 8.34668 7.33594 7.33333C7.33594 6.31999 8.15593 5.5 9.16927 5.5ZM7.90169 10.1048C8.27767 10.3053 8.71094 10.4199 9.16569 10.4199C9.62402 10.4199 10.0537 10.3053 10.4333 10.1048C11.2497 10.3197 11.887 10.8245 12.1807 11.9167H6.1543C6.44792 10.8245 7.08529 10.3197 7.90169 10.1048ZM17.4193 20.1667H5.0765L3.96289 18.3333H16.5026V3.79199L17.4193 5.75423L17.4193 20.1667Z" fill="currentColor"/>
        </g>
        <defs>
            <clipPath id="clip0_645_60947">
                <rect width="22" height="22" fill="white"/>
            </clipPath>
        </defs>
    </symbol>
    <symbol id="casino-menu-1" viewBox="0 0 22 22" fill="none" xmlns="http://www.w3.org/2000/svg">
        <g clip-path="url(#clip0_645_60910)">
            <path d="M11 0C4.94857 0 0 4.94857 0 11C0 17.0514 4.94857 22 11 22C17.0514 22 22 17.0514 22 11C22 4.94857 17.0514 0 11 0ZM11 1.08854C11.5514 1.08854 12.11 1.19596 12.6615 1.28906V3.58073C12.11 3.48763 11.5514 3.38021 11 3.38021C10.4486 3.38021 9.88997 3.48763 9.33854 3.58073V1.28906C9.88997 1.19596 10.4486 1.08854 11 1.08854ZM11 4.58333C14.5736 4.58333 17.4167 7.42643 17.4167 11C17.4167 14.5736 14.5736 17.4167 11 17.4167C7.42643 17.4167 4.58333 14.5736 4.58333 11C4.58333 7.42643 7.42643 4.58333 11 4.58333ZM3.38021 4.66927L5.41406 5.78646C4.59049 6.61003 4.0319 7.60905 3.66667 8.70833L1.74739 7.61979C2.11263 6.52051 2.64616 5.49284 3.38021 4.66927ZM18.6198 4.66927C19.3538 5.49284 19.8874 6.52051 20.2526 7.61979L18.3333 8.70833C17.9681 7.60905 17.4059 6.61003 16.6719 5.78646L18.6198 4.66927ZM3.66667 13.2917C4.0319 14.391 4.59408 15.39 5.32812 16.2135L3.38021 17.3307C2.64616 16.5072 2.11263 15.4795 1.74739 14.3802L3.66667 13.2917ZM18.2474 13.2917L20.1667 14.3802C19.891 15.4795 19.3538 16.5072 18.6198 17.3307L16.5859 16.2135C17.32 15.39 17.9717 14.391 18.2474 13.2917ZM9.33854 18.4193C9.88997 18.5124 10.4486 18.6198 11 18.6198C11.5514 18.6198 12.11 18.5124 12.6615 18.4193V20.7109C12.11 20.804 11.5514 20.9115 11 20.9115C10.4486 20.9115 9.88997 20.804 9.33854 20.7109V18.4193Z" fill="currentColor"/>
            <path d="M8.30334 13.8747L8.32993 13.8481C8.61683 13.5612 8.83558 13.2689 8.98798 12.9715C9.137 12.6732 9.21441 12.2837 9.21441 11.7977C9.21441 11.6994 9.20743 11.5984 9.19338 11.4948H7.89842V10.3234H8.83027C8.77813 10.1633 8.73087 9.99841 8.68848 9.82883L8.68773 9.82584C8.64129 9.60914 8.61828 9.38152 8.61828 9.14319C8.61828 8.63525 8.72612 8.19142 8.94558 7.8152L8.94629 7.81399C9.17281 7.43906 9.48585 7.15352 9.88354 6.9585C10.2878 6.75645 10.7481 6.65663 11.2623 6.65663C11.8433 6.65663 12.3326 6.76745 12.7251 6.99507C13.114 7.22067 13.4113 7.5253 13.6146 7.90838C13.8163 8.28851 13.9281 8.71032 13.9512 9.1724L13.956 9.26771H12.4463L12.4426 9.1808C12.4284 8.84667 12.3225 8.57523 12.1285 8.36045L12.1276 8.35939C11.9389 8.14383 11.663 8.03045 11.2848 8.03045C10.9751 8.03045 10.7112 8.12484 10.4885 8.31274C10.2757 8.49232 10.1608 8.77732 10.1608 9.18818C10.1608 9.37364 10.1893 9.56756 10.2472 9.77021C10.3009 9.95148 10.3607 10.1359 10.4266 10.3234H12.5566V11.4948H10.7375C10.7504 11.5976 10.7569 11.6986 10.7569 11.7977C10.7569 12.1172 10.6946 12.4393 10.571 12.7636C10.4687 13.0321 10.3122 13.2834 10.1029 13.5178H13.9851V14.8466H8.30334V13.8747Z" fill="currentColor"/>
        </g>
        <defs>
            <clipPath id="clip0_645_60910">
                <rect width="22" height="22" fill="white"/>
            </clipPath>
        </defs>
    </symbol>
    <symbol id="casino-menu-2" viewBox="0 0 22 22" fill="none" xmlns="http://www.w3.org/2000/svg">
        <g clip-path="url(#clip0_645_60914)">
            <path d="M2.7487 10.5V18.333V20.1663H4.58203H10.2312V10.5H2.7487Z" fill="currentColor"/>
            <path fill-rule="evenodd" clip-rule="evenodd" d="M6.41536 1.83301C4.90788 1.83301 3.66536 3.07552 3.66536 4.58301C3.66536 4.90527 3.7334 5.20964 3.83724 5.49968H3.66536L3.66306 5.49968H1.83203V7.33301V9.16634H20.1654V7.33301V5.49968H18.332H18.1602C18.264 5.20964 18.332 4.90527 18.332 4.58301C18.332 3.07552 17.0895 1.83301 15.582 1.83301C14.1211 1.83301 12.986 2.76042 12.0872 3.66634H9.91016C9.01139 2.76042 7.8763 1.83301 6.41536 1.83301ZM8.87891 5.21322C8.07682 4.36817 7.02051 3.66634 6.41536 3.66634C5.89616 3.66634 5.4987 4.0638 5.4987 4.58301C5.4987 5.10221 5.89616 5.49968 6.41537 5.49968H9.10807C9.05295 5.43645 9.02866 5.40111 9.00595 5.36808C8.9785 5.32816 8.95337 5.2916 8.87891 5.21322ZM16.4987 4.58301C16.4987 4.0638 16.1012 3.66634 15.582 3.66634C14.9769 3.66634 13.9206 4.36817 13.1185 5.21322C13.044 5.2916 13.0189 5.32816 12.9914 5.36808C12.9687 5.40111 12.9444 5.43645 12.8893 5.49968H15.582C16.1012 5.49968 16.4987 5.10221 16.4987 4.58301Z" fill="currentColor"/>
            <path d="M19.2487 18.333V10.5H11.7661V20.1663H17.4154H19.2487V18.333Z" fill="currentColor"/>
        </g>
        <defs>
            <clipPath id="clip0_645_60914">
                <rect width="22" height="22" fill="white"/>
            </clipPath>
        </defs>
    </symbol>
    <symbol id="casino-menu-3" viewBox="0 0 22 22" fill="none" xmlns="http://www.w3.org/2000/svg">
        <g clip-path="url(#clip0_645_60919)">
            <path d="M2.3776 0C1.0778 0 0 1.0778 0 2.3776V16.8724C0 18.1722 1.0778 19.25 2.3776 19.25H13.2057C14.5055 19.25 15.5833 18.1722 15.5833 16.8724V2.3776C15.5833 1.0778 14.5055 0 13.2057 0L2.3776 0ZM2.3776 1.83333H13.2057C13.5566 1.83333 13.75 2.02669 13.75 2.3776V16.8724C13.75 17.2233 13.5566 17.4167 13.2057 17.4167H2.3776C2.02669 17.4167 1.83333 17.2233 1.83333 16.8724V2.3776C1.83333 2.02669 2.02669 1.83333 2.3776 1.83333ZM16.5 2.3776V4.29688L19.7083 5.1276C19.984 5.2207 20.1738 5.50716 20.0807 5.8724L16.5 19.8802C16.4069 20.1559 16.1204 20.3457 15.7552 20.2526L14.4948 19.8802C14.0365 20.0628 13.5566 20.2526 13.0052 20.2526H8.42188L15.2969 22H16.0417C17.141 22 18.0576 21.266 18.3333 20.1667L21.9141 6.13021C22.2793 4.93783 21.4486 3.56999 20.1667 3.29427L16.5 2.3776ZM11.3724 2.75L10.3698 5.5H10.7135L11 4.75521H12.0026L12.2891 5.5H12.6615L11.6302 2.75H11.3724ZM11.4583 3.29427L11.8307 4.4974H11L11.4583 3.29427ZM17.7031 5.5L16.0417 7.8776L16.4141 7.96354L16.8724 7.33333L17.875 7.61979V8.42188L18.2474 8.53646L17.9609 5.58594L17.7031 5.5ZM7.70573 5.95833C7.70573 5.95833 4.125 8.42188 4.125 10.2552C4.125 11.3545 4.85905 12.0885 5.95833 12.0885C6.50977 12.0885 7.14356 11.6481 7.41927 11.3724C7.41927 11.3724 7.13998 12.6507 6.58854 13.75C6.58854 13.9326 8.97331 13.8431 8.88021 13.75C8.32878 12.7402 8.07813 11.3724 8.07813 11.3724C8.44336 11.6481 8.98763 12.0026 9.53906 12.0026C10.6383 12.0026 11.3724 11.2686 11.3724 10.1693C11.3724 8.24284 7.79883 5.86523 7.70573 5.95833L7.70573 5.95833ZM17.7031 6.04427L17.7891 7.33333L17.0443 7.04688L17.7031 6.04427ZM2.92188 13.75L3.95312 16.5H4.21094L5.21354 13.75H4.86979L4.58333 14.4948H3.58073L3.29427 13.75H2.92188ZM3.7526 14.7526H4.58333L4.125 15.9557L3.7526 14.7526Z" fill="currentColor"/>
        </g>
        <defs>
            <clipPath id="clip0_645_60919">
                <rect width="22" height="22" fill="white"/>
            </clipPath>
        </defs>
    </symbol>
    <symbol id="casino-menu-4" viewBox="0 0 22 22" fill="none" xmlns="http://www.w3.org/2000/svg">
        <g clip-path="url(#clip0_645_60924)">
            <path d="M11.4557 0L0.914062 3.66667L11.4557 8.25L21.9974 3.66667L11.4557 0ZM11.513 2.92188C11.9714 2.92188 12.4225 2.98633 12.7448 3.1224C13.2962 3.30501 13.375 3.56999 13.375 3.7526C13.2819 3.8457 13.2031 4.13574 12.7448 4.41146C12.3796 4.50456 11.9141 4.58333 11.4557 4.58333C10.9974 4.58333 10.5283 4.50456 10.2526 4.41146C9.70118 4.22884 9.6224 3.93522 9.6224 3.7526C9.6224 3.56999 9.70118 3.30501 10.2526 3.1224C10.5749 2.98633 11.0547 2.92188 11.513 2.92188ZM0.914064 4.58333V16.5L10.9974 22V9.16667L0.914064 4.58333ZM21.9974 4.58333L11.9141 9.16667V22L21.9974 16.5V4.58333ZM8.07552 9.33854C8.25814 9.33854 8.35124 9.36003 8.53385 9.45312C9.2679 9.72884 9.79427 10.6276 9.79427 11.5443C9.97689 11.82 9.89095 12.0993 9.70834 12.375C9.52572 12.5576 9.26791 12.7474 8.99219 12.7474C8.80957 12.7474 8.60189 12.7546 8.41927 12.6615C7.68522 12.2962 7.15885 11.3652 7.15885 10.5417C7.15885 9.90072 7.52409 9.33854 8.07552 9.33854ZM15.6667 10.0833C15.7454 10.0726 15.8206 10.0833 15.8672 10.0833C16.4186 10.0833 16.7839 10.5524 16.7839 11.2865C16.9665 12.11 16.4007 13.0124 15.6667 13.3776C15.4841 13.4707 15.305 13.4635 15.1224 13.4635C14.8467 13.4635 14.5602 13.3955 14.3776 13.1198C14.195 12.9372 14.1198 12.6543 14.1198 12.2891C14.1198 11.4655 14.6748 10.5345 15.4089 10.1693C15.502 10.1227 15.5879 10.0941 15.6667 10.0833ZM5.32552 11.4583C5.50814 11.4583 5.60124 11.4512 5.78385 11.5443C6.5179 11.9095 6.95833 12.7546 6.95833 13.5781C7.05143 13.9434 6.9655 14.1976 6.8724 14.3802C6.68978 14.5628 6.40332 14.6667 6.1276 14.6667C5.94499 14.6667 5.76595 14.6738 5.58333 14.5807C4.94238 14.2155 4.40885 13.3704 4.40885 12.5469C4.40885 11.9059 4.77409 11.4583 5.32552 11.4583ZM19.1328 12.8333C19.2116 12.8226 19.2868 12.8333 19.3333 12.8333C19.8848 12.8333 20.1641 13.2809 20.1641 13.9219C20.1641 14.6559 19.7165 15.5046 19.0755 15.8698C18.8929 15.9629 18.6852 15.9557 18.5026 15.9557C18.2269 15.9557 18.055 15.8519 17.8724 15.6693C17.6898 15.4867 17.7005 15.2288 17.7005 14.9531C17.7005 14.1296 18.2341 13.195 18.875 12.9193C18.9681 12.8727 19.054 12.8441 19.1328 12.8333ZM2.66146 13.3776C2.84408 13.3776 2.93718 13.3704 3.11979 13.4635C3.76074 13.8288 4.29427 14.6738 4.29427 15.4974C4.29427 15.8626 4.2155 16.1455 4.1224 16.3281C3.93978 16.5107 3.7679 16.5859 3.49219 16.5859C3.30957 16.5859 3.10189 16.5931 2.91927 16.5C2.27832 16.1348 1.83073 15.3184 1.83073 14.4948C1.83073 13.8538 2.20313 13.3776 2.66146 13.3776Z" fill="currentColor"/>
        </g>
        <defs>
            <clipPath id="clip0_645_60924">
                <rect width="22" height="22" fill="white"/>
            </clipPath>
        </defs>
    </symbol>
    <symbol id="casino-menu-5" viewBox="0 0 22 22" fill="none" xmlns="http://www.w3.org/2000/svg">
        <g clip-path="url(#clip0_645_60929)">
            <path d="M16.0443 0H6.8776C5.61169 0 4.58594 1.02575 4.58594 2.29167V19.7083C4.58594 20.9743 5.61169 22 6.8776 22H16.0443C17.3102 22 18.3359 20.9743 18.3359 19.7083V2.29167C18.3359 1.02575 17.3102 0 16.0443 0V0ZM16.5026 20.1667H6.41927V1.83333H8.2526L9.16927 3.66667H13.7526L14.6693 1.83333H16.5026V20.1667Z" fill="currentColor"/>
        </g>
        <defs>
            <clipPath id="clip0_645_60929">
                <rect width="22" height="22" fill="white"/>
            </clipPath>
        </defs>
    </symbol>
    <symbol id="casino-menu-6" viewBox="0 0 22 22" fill="none" xmlns="http://www.w3.org/2000/svg">
        <g clip-path="url(#clip0_645_60934)">
            <path d="M4.60156 1L1.16406 16.8073H5.72135L6.84115 11.5729H10.0964C13.2148 11.5729 15.832 9.65885 16.5286 6.39063C17.3197 2.68945 14.6699 1 12.388 1L4.60156 1ZM8.48177 4.22917H10.6953C11.8118 4.22917 12.5573 5.18945 12.2318 6.39062C11.9518 7.5918 10.793 8.55208 9.6276 8.55208H7.49219L8.48177 4.22917ZM18.4818 5.53125C18.4785 6.00651 18.446 6.50456 18.3255 7.06771C18.0163 8.52279 17.3783 9.80859 16.5026 10.8177C16.1348 11.9049 15.0605 12.7448 13.9766 12.7448H13.9245C12.873 13.2233 11.6849 13.474 10.4089 13.474H8.3776L7.51823 17.5104L7.25781 18.7083H6.00781L5.51302 21H10.0703L11.1901 15.7656H14.4453C17.5638 15.7656 20.1777 13.8255 20.8776 10.5573C21.4635 7.8099 20.1289 6.19206 18.4818 5.53125V5.53125Z" fill="currentColor"/>
        </g>
        <defs>
            <clipPath id="clip0_645_60934">
                <rect width="22" height="22" fill="white"/>
            </clipPath>
        </defs>
    </symbol>
    <symbol id="casino-menu-7" viewBox="0 0 22 22" fill="none" xmlns="http://www.w3.org/2000/svg">
        <path d="M10.0833 0C9.5319 0.00358012 8.99479 0.236329 8.67969 1.11719C8.4362 1.79037 7.72363 1.83333 6.875 1.83333C6.72819 1.83333 6.57064 1.83333 6.41667 1.83333C5.53223 1.83333 5.30664 2.50651 5.72917 3.1224C5.95475 3.44824 7.35124 5.84017 7.70573 6.41667C7.77735 6.53483 7.92057 6.64225 8.10677 6.73177C8.11393 6.73535 8.12826 6.72819 8.13542 6.73177C8.50781 6.90723 9.03418 7.01465 9.56771 7.07552C9.91504 7.11491 10.2516 7.14356 10.5417 7.13281C10.7852 7.12565 11.0609 7.10059 11.3438 7.04688C12.0527 6.91439 12.7581 6.63509 12.9479 6.21615C12.9873 6.13379 13.016 6.02637 13.0052 5.92969C12.8691 4.51888 14.3086 2.66765 14.4948 2.40625C14.8099 1.95866 14.7669 0.973962 13.8073 0.973962C13.6211 0.973962 13.3812 1.03125 13.1198 1.11719C12.8691 1.19955 12.4645 1.66146 12.0885 1.66146C11.9059 1.66146 11.7412 1.54688 11.6016 1.23177C11.1755 0.261397 10.5739 0 10.0833 0ZM9.96875 0.916667C10.0153 0.909506 10.0368 0.916667 10.0833 0.916667C10.3805 0.916667 10.6061 1.29264 10.7422 1.60417C11.1289 2.48503 11.8164 2.57812 12.0885 2.57812C12.6221 2.57812 13.0374 2.27018 13.3203 2.0625C13.3704 2.02669 13.4206 1.97298 13.4635 1.94792C13.5817 1.91211 13.6605 1.89779 13.7214 1.89062L13.6927 1.94792C13.1807 2.64974 12.8154 3.31576 12.5469 3.92448C12.2783 4.21452 11.9346 4.4222 11.487 4.41146C10.6742 4.38997 10.5739 3.34798 10.0833 3.35156C9.5319 3.35514 9.46745 4.17513 8.96615 4.26823C7.96354 4.45085 7.14714 3.39811 6.61719 2.75H6.875C7.64486 2.75 9.06283 2.76432 9.53906 1.43229C9.67513 1.05632 9.83268 0.941733 9.96875 0.916667ZM12.8047 7.53385C12.0671 7.89909 11.1289 8.03158 10.5703 8.04948H10.3698C10.1979 8.04948 9.16309 8.04232 8.25 7.76302C3.50195 9.18815 0 13.9971 0 17.4167C0 21.4665 4.9235 22 11 22C17.0765 22 22 21.4665 22 17.4167C22 13.7751 18.0254 8.55436 12.8047 7.53385Z" fill="currentColor"/>
        <path d="M8.10369 18.5557V17.7171C8.39441 17.4263 8.61804 17.1282 8.77458 16.8225C8.93112 16.5095 9.00939 16.1069 9.00939 15.6149C9.00939 15.4882 8.99821 15.3578 8.97585 15.2236H7.70116V14.2396H8.66277C8.59568 14.0458 8.53604 13.8446 8.48386 13.6358C8.43914 13.4271 8.41677 13.2072 8.41677 12.9761C8.41677 12.4841 8.52113 12.0593 8.72985 11.7014C8.94603 11.3436 9.2442 11.0716 9.62437 10.8852C10.012 10.6914 10.4555 10.5945 10.955 10.5945C11.5215 10.5945 11.9911 10.7026 12.3638 10.9187C12.7365 11.1349 13.0198 11.4256 13.2136 11.7909C13.4074 12.1562 13.5155 12.5624 13.5379 13.0097H12.2185C12.2036 12.6593 12.0917 12.3686 11.883 12.1375C11.6743 11.899 11.3724 11.7797 10.9773 11.7797C10.6493 11.7797 10.3661 11.8804 10.1275 12.0816C9.889 12.2829 9.76973 12.596 9.76973 13.0209C9.76973 13.2147 9.79954 13.4159 9.85918 13.6247C9.91881 13.8259 9.9859 14.0309 10.0604 14.2396H12.1514V15.2236H10.3288C10.3512 15.3578 10.3623 15.4882 10.3623 15.6149C10.3623 15.9206 10.3027 16.2299 10.1834 16.543C10.0642 16.8561 9.86663 17.1468 9.59082 17.4152H13.5714V18.5557H8.10369Z" fill="currentColor"/>
    </symbol>
    <symbol id="casino-menu-8" viewBox="0 0 22 22" fill="none" xmlns="http://www.w3.org/2000/svg">
        <path d="M11 0.916992L2.75 4.58366C2.75 4.58366 2.75 8.25033 2.75 10.0837C2.75 17.2612 8.65242 20.6125 11 21.0837C13.3476 20.6125 19.25 17.2612 19.25 10.0837C19.25 8.25033 19.25 4.58366 19.25 4.58366L11 0.916992ZM10.0833 15.0465L6.24708 11.2102L7.54325 9.91407L10.0833 12.4542L15.3927 7.14483L16.6888 8.44099L10.0833 15.0465Z" fill="currentColor"/>
    </symbol>
    <symbol id="slots-menu-1" viewBox="0 0 22 22" fill="none" xmlns="http://www.w3.org/2000/svg">
        <path d="M16.1256 3.58018C16.0711 3.5813 16.0168 3.5885 15.9638 3.60167H5.97785C5.94139 3.59555 5.90452 3.5922 5.86756 3.59164C5.61425 3.59024 5.37816 3.71966 5.24308 3.93396L0.970558 8.91977C0.806253 9.0654 0.715839 9.27699 0.724161 9.4964C0.732482 9.7158 0.838663 9.91993 1.01353 10.0527L10.4638 19.503C10.4662 19.5059 10.4685 19.5087 10.4709 19.5116L10.481 19.5202C10.5155 19.5549 10.5534 19.5861 10.5941 19.6133C10.596 19.6142 10.5979 19.6152 10.5999 19.6161C10.6175 19.6279 10.6357 19.6389 10.6543 19.6491C10.6581 19.6505 10.6619 19.652 10.6657 19.6534C10.75 19.6969 10.842 19.7236 10.9364 19.7321C10.9612 19.7344 10.9861 19.7353 11.0109 19.735C11.0205 19.7347 11.03 19.7342 11.0396 19.7336C11.052 19.7329 11.0644 19.732 11.0768 19.7307C11.0792 19.7307 11.0816 19.7307 11.084 19.7307C11.0883 19.7298 11.0926 19.7288 11.0969 19.7278C11.1166 19.7253 11.1362 19.7219 11.1556 19.7178C11.1749 19.7138 11.194 19.709 11.2129 19.7035C11.2177 19.7021 11.2224 19.7007 11.2272 19.6992C11.2325 19.6973 11.2377 19.6954 11.243 19.6935C11.2836 19.6793 11.3229 19.6615 11.3604 19.6405C11.3609 19.64 11.3614 19.6395 11.3618 19.639C11.3785 19.6297 11.3947 19.6196 11.4105 19.609C11.4144 19.6061 11.4182 19.6033 11.422 19.6004C11.4562 19.5764 11.4883 19.5496 11.518 19.5202L11.5237 19.5159C11.5271 19.5121 11.5304 19.5083 11.5337 19.5044L20.9868 10.0513C21.161 9.91826 21.2666 9.71433 21.2746 9.49532C21.2826 9.27632 21.1923 9.0652 21.0284 8.91977L16.7874 3.97263C16.6586 3.72734 16.4026 3.57552 16.1256 3.58018ZM10.9995 5.59828L13.2396 8.735H8.75936L10.9995 5.59828ZM16.4637 5.84607L18.9387 8.735H15.6387L16.4637 5.84607ZM5.53527 5.8475L6.36027 8.735H3.06027L5.53527 5.8475ZM8.40129 10.2017H13.5976L10.9995 16.9578L8.40129 10.2017Z" fill="currentColor"/>
    </symbol>
    <symbol id="slots-menu-2" viewBox="0 0 22 22" fill="none" xmlns="http://www.w3.org/2000/svg">
        <g clip-path="url(#clip0_882_60263)">
            <path d="M9.53463 1.4668C9.12963 1.4668 8.8013 1.79512 8.8013 2.20013C8.8013 5.9086 3.66797 8.80013 3.66797 13.9335C3.66797 17.8332 7.89453 20.3545 9.38281 20.5177C9.43273 20.5282 9.48362 20.5335 9.53464 20.5335C9.93964 20.5335 10.268 20.2051 10.268 19.8001C10.2679 19.5795 10.1684 19.3707 9.99727 19.2315C9.99727 19.231 9.99727 19.2306 9.99727 19.2301C9.32993 18.6889 8.06797 17.1188 8.06797 15.6852C8.06797 13.3319 10.268 12.4668 10.268 12.4668C9.01324 16.0161 13.1246 16.445 13.9518 19.9591H13.9533C14.0277 20.2943 14.3247 20.5329 14.668 20.5335C14.8224 20.5331 14.9728 20.484 15.0977 20.3931C15.1109 20.3835 15.1238 20.3735 15.1363 20.363C15.2557 20.2855 18.3346 18.2491 18.3346 13.9335C18.3346 12.1715 17.4534 9.14516 16.8193 7.80469C16.8187 7.80358 16.8184 7.80149 16.8178 7.80039C16.8174 7.79943 16.8169 7.79848 16.8164 7.79752C16.7059 7.5176 16.4356 7.3336 16.1346 7.33346C15.7813 7.3338 15.4784 7.5861 15.4142 7.93359C15.4142 7.93455 15.4142 7.9355 15.4142 7.93646C15.4124 7.94447 15.0756 9.44034 13.9346 10.2668C13.9346 6.8116 11.4401 3.24265 10.1247 1.76615C10.105 1.73941 10.0835 1.71405 10.0603 1.69023C9.92247 1.54778 9.73285 1.46718 9.53463 1.4668V1.4668Z" fill="currentColor"/>
        </g>
        <defs>
            <clipPath id="clip0_882_60263">
                <rect width="22" height="22" fill="white"/>
            </clipPath>
        </defs>
    </symbol>
    <symbol id="slots-menu-3" viewBox="0 0 22 22" fill="none" xmlns="http://www.w3.org/2000/svg">
        <g clip-path="url(#clip0_882_48532)">
            <path d="M11.2315 1.00031C10.2988 0.983029 9.39859 1.69635 9.1388 2.72944C8.80498 4.05242 9.47439 6.96342 9.83436 8.35101C8.77829 7.37878 6.52735 5.41431 5.2013 5.08203C4.01831 4.78436 2.80991 5.42224 2.54224 6.48216C2.42764 6.93828 2.49544 7.36133 2.66543 7.73207C2.81234 8.05358 2.73128 8.41123 2.45361 8.63044C2.1144 8.89811 1.84309 9.2609 1.74002 9.66702C1.47235 10.7285 2.23659 11.8601 3.41958 12.1578C4.74563 12.4909 7.65954 11.8222 9.04866 11.4623C8.07489 12.5153 6.10672 14.7648 5.77367 16.0878C5.47677 17.2685 6.11531 18.4747 7.17831 18.7409C7.5852 18.8432 8.03359 18.7764 8.42972 18.6041C8.75354 18.4634 9.10902 18.5608 9.32208 18.8415C9.56898 19.1669 9.91078 19.427 10.3677 19.5416C11.4314 19.8077 12.5638 19.0457 12.8615 17.865C13.1953 16.542 12.5259 13.631 12.1659 12.2434C13.2204 13.2157 15.4737 15.1809 16.799 15.5124C17.982 15.8093 19.1911 15.1722 19.458 14.1123C19.5603 13.7062 19.4921 13.2577 19.3198 12.8624C19.1783 12.5393 19.2764 12.1854 19.5587 11.9715C19.8848 11.7246 20.1441 11.3843 20.2587 10.9289C20.5264 9.86748 19.7637 8.73505 18.5807 8.43815C17.2546 8.10509 14.3392 8.77223 12.9501 9.1322C13.9239 8.07921 15.892 5.83113 16.2251 4.50816C16.522 3.32747 15.885 2.11974 14.822 1.85361C14.3651 1.739 13.9413 1.80758 13.5691 1.9768C13.2468 2.12371 12.8891 2.04187 12.6707 1.76497C12.403 1.42654 12.0395 1.15592 11.6326 1.05439C11.4998 1.02093 11.3647 1.00278 11.2315 1.00031L11.2315 1.00031ZM14.4464 16.0487C14.4887 16.5426 14.4957 16.9801 14.4734 17.3693C15.5857 18.7553 16.8553 20.0439 18.2036 20.8831C18.3298 20.9616 18.4693 20.9973 18.6077 20.9973C18.8646 20.9973 19.1174 20.8698 19.2627 20.6352C19.4873 20.2753 19.3756 19.8007 19.0149 19.5761C17.9842 18.9354 16.9915 17.9698 16.0824 16.896C15.604 16.7276 15.0602 16.4479 14.4464 16.0487V16.0487Z" fill="currentColor"/>
        </g>
        <defs>
            <clipPath id="clip0_882_48532">
                <rect width="22" height="22" fill="white"/>
            </clipPath>
        </defs>
    </symbol>
    <symbol id="slots-menu-4" viewBox="0 0 22 22" fill="none" xmlns="http://www.w3.org/2000/svg">
        <g clip-path="url(#clip0_882_48537)">
            <path d="M11.0001 1.4668C10.19 1.4668 9.5334 2.12345 9.5334 2.93346C9.53365 3.47481 9.83207 3.97201 10.3097 4.22682L7.40931 9.66524L3.46335 7.34349C3.5962 7.11826 3.66642 6.86162 3.66673 6.60013C3.66673 5.79011 3.01008 5.13346 2.20007 5.13346C1.39005 5.13346 0.733398 5.79011 0.733398 6.60013C0.733398 7.41015 1.39005 8.0668 2.20007 8.0668C2.24888 8.06636 2.29763 8.0635 2.34616 8.0582L2.9334 13.9335H5.1334H14.6667H16.8667H19.0667L19.654 8.05964C19.7025 8.06445 19.7513 8.06684 19.8001 8.0668C20.6101 8.0668 21.2667 7.41015 21.2667 6.60013C21.2667 5.79011 20.6101 5.13346 19.8001 5.13346C18.99 5.13346 18.3334 5.79011 18.3334 6.60013C18.3337 6.86162 18.4039 7.11826 18.5368 7.34349L14.5908 9.66524L11.6904 4.22682C12.1681 3.97201 12.4665 3.47481 12.4667 2.93346C12.4667 2.12345 11.8101 1.4668 11.0001 1.4668H11.0001ZM2.9334 15.4001V16.8668C2.9334 17.6771 3.58973 18.3335 4.40007 18.3335H17.6001C18.4104 18.3335 19.0667 17.6771 19.0667 16.8668V15.4001H2.9334Z" fill="currentColor"/>
        </g>
        <defs>
            <clipPath id="clip0_882_48537">
                <rect width="22" height="22" fill="white"/>
            </clipPath>
        </defs>
    </symbol>
    <symbol id="slots-menu-5" viewBox="0 0 22 22" fill="none" xmlns="http://www.w3.org/2000/svg">
        <path d="M11 0C4.94857 0 0 4.94857 0 11C0 17.0514 4.94857 22 11 22C17.0514 22 22 17.0514 22 11C22 4.94857 17.0514 0 11 0ZM11 1.08854C11.5514 1.08854 12.11 1.19596 12.6615 1.28906V3.58073C12.11 3.48763 11.5514 3.38021 11 3.38021C10.4486 3.38021 9.88997 3.48763 9.33854 3.58073V1.28906C9.88997 1.19596 10.4486 1.08854 11 1.08854ZM11 4.58333C14.5736 4.58333 17.4167 7.42643 17.4167 11C17.4167 14.5736 14.5736 17.4167 11 17.4167C7.42643 17.4167 4.58333 14.5736 4.58333 11C4.58333 7.42643 7.42643 4.58333 11 4.58333ZM3.38021 4.66927L5.41406 5.78646C4.59049 6.61003 4.0319 7.60905 3.66667 8.70833L1.74739 7.61979C2.11263 6.52051 2.64616 5.49284 3.38021 4.66927ZM18.6198 4.66927C19.3538 5.49284 19.8874 6.52051 20.2526 7.61979L18.3333 8.70833C17.9681 7.60905 17.4059 6.61003 16.6719 5.78646L18.6198 4.66927ZM3.66667 13.2917C4.0319 14.391 4.59408 15.39 5.32812 16.2135L3.38021 17.3307C2.64616 16.5072 2.11263 15.4795 1.74739 14.3802L3.66667 13.2917ZM18.2474 13.2917L20.1667 14.3802C19.891 15.4795 19.3538 16.5072 18.6198 17.3307L16.5859 16.2135C17.32 15.39 17.9717 14.391 18.2474 13.2917ZM9.33854 18.4193C9.88997 18.5124 10.4486 18.6198 11 18.6198C11.5514 18.6198 12.11 18.5124 12.6615 18.4193V20.7109C12.11 20.804 11.5514 20.9115 11 20.9115C10.4486 20.9115 9.88997 20.804 9.33854 20.7109V18.4193Z" fill="currentColor"/>
        <path d="M11.0239 6.95508C11.0239 6.95508 7.39453 8.95546 7.39453 11.4237C7.39453 12.4402 8.1927 13.2383 9.20919 13.2383C9.7465 13.2383 10.2172 12.9506 10.5475 12.6826C10.3107 13.3248 9.99602 14.0606 9.57212 14.6901C10.5518 14.5086 11.5314 14.5086 12.4756 14.6901C12.0715 14.0677 11.7497 13.3433 11.5115 12.7053C11.8405 12.9676 12.3125 13.2383 12.8385 13.2383C13.855 13.2383 14.6532 12.4402 14.6532 11.4237C14.6532 8.95546 11.0239 6.95508 11.0239 6.95508Z" fill="currentColor"/>
    </symbol>
    <symbol id="slots-menu-6" viewBox="0 0 22 22" fill="none" xmlns="http://www.w3.org/2000/svg">
        <g clip-path="url(#clip0_882_48547)">
            <path d="M10.2667 2.93367C10.0723 2.9337 9.88575 3.01098 9.74824 3.14851L7.76309 5.13367H2.20007C1.38973 5.13367 0.733398 5.79 0.733398 6.60033V16.867C0.733398 17.6773 1.38973 18.3337 2.20007 18.3337H13.9334C14.7437 18.3337 15.4001 17.6773 15.4001 16.867V6.60033V4.40033C15.4001 3.59876 14.735 2.93367 13.9334 2.93367H10.2667ZM16.8667 2.93367V3.54382C16.8536 3.62302 16.8536 3.70382 16.8667 3.78302V4.40033H17.6001H18.3334H19.0667C19.3312 4.40407 19.5772 4.26512 19.7105 4.03669C19.8438 3.80826 19.8438 3.52574 19.7105 3.29731C19.5772 3.06888 19.3312 2.92993 19.0667 2.93367H18.3334H17.6001H16.8667ZM10.5704 4.40033H13.9334V5.13367H9.83704L10.5704 4.40033ZM20.5334 6.60033C20.388 6.60048 20.2459 6.64385 20.1252 6.72494L16.8667 8.80033V11.7337V14.667L20.1152 16.7367C20.1269 16.7442 20.1388 16.7513 20.151 16.7581C20.266 16.829 20.3983 16.8666 20.5334 16.867C20.9384 16.867 21.2667 16.5387 21.2667 16.1337V11.7337V7.33367C21.2667 6.92866 20.9384 6.60033 20.5334 6.60033V6.60033ZM2.9334 7.33367H6.60006V9.53367H2.9334V7.33367Z" fill="currentColor"/>
        </g>
        <defs>
            <clipPath id="clip0_882_48547">
                <rect width="22" height="22" fill="white"/>
            </clipPath>
        </defs>
    </symbol>
    <symbol id="icon-filter-1" viewBox="0 0 22 22" fill="none" xmlns="http://www.w3.org/2000/svg">
        <path d="M20.8601 8.53788L17.0451 3.21582L15.1406 8.53788H20.8601Z" fill="currentColor"/>
        <path d="M16.7137 2.99902H11.2188L14.8182 8.30876L16.7137 2.99902Z" fill="currentColor"/>
        <path d="M10.504 2.99902H5.27734L7.16643 8.29643L10.504 2.99902Z" fill="currentColor"/>
        <path d="M14.5083 8.53591L10.8595 3.1582L7.47266 8.53591H14.5083Z" fill="currentColor"/>
        <path d="M4.94891 3.21777L1.13672 8.53666H6.85324L4.94891 3.21777Z" fill="currentColor"/>
        <path d="M1.20312 8.91992L10.704 18.9819L6.98762 8.91992H1.20312Z" fill="currentColor"/>
        <path d="M7.39453 8.91992L10.9972 19.0002L14.5966 8.91992H7.39453Z" fill="currentColor"/>
        <path d="M11.2891 18.9819L20.7931 8.91992H15.0058L11.2891 18.9819Z" fill="currentColor"/>
    </symbol>
    <symbol id="icon-filter-2" viewBox="0 0 22 22" fill="none" xmlns="http://www.w3.org/2000/svg">
        <g clip-path="url(#clip0_645_60975)">
            <path d="M14.938 0.511719C11.3187 0.511719 8.38236 2.07551 8.38236 4.00805C8.38236 5.94059 11.3187 7.50437 14.938 7.50437C18.5572 7.50437 21.4936 5.94059 21.4936 4.00805C21.4936 2.07551 18.5572 0.511719 14.938 0.511719ZM8.43699 5.31917C8.40285 5.46257 8.38236 5.60598 8.38236 5.75621V6.63029C8.38236 7.37121 8.81599 8.0575 9.55691 8.62429C10.8339 8.88378 11.9367 9.34131 12.7801 9.93541C13.4527 10.0617 14.1834 10.1266 14.938 10.1266C18.5572 10.1266 21.4936 8.56283 21.4936 6.63029V5.75621C21.4936 5.60598 21.4731 5.46257 21.439 5.31917C21.0361 7.04343 18.2806 8.37845 14.938 8.37845C11.5953 8.37845 8.83989 7.04343 8.43699 5.31917ZM21.439 7.94141C21.0361 9.66568 18.2806 11.0007 14.938 11.0007C14.5692 11.0007 14.2244 10.9768 13.8727 10.9461C14.279 11.489 14.4975 12.107 14.5009 12.7489C14.6443 12.7523 14.7912 12.7489 14.938 12.7489C18.5572 12.7489 21.4936 11.1851 21.4936 9.25253V8.37845C21.4936 8.22822 21.4731 8.08482 21.439 7.94141V7.94141ZM7.07124 9.25253C3.45199 9.25253 0.515625 10.8163 0.515625 12.7489C0.515625 14.6814 3.45199 16.2452 7.07124 16.2452C10.6905 16.2452 13.6268 14.6814 13.6268 12.7489C13.6268 10.8163 10.6905 9.25253 7.07124 9.25253ZM21.439 10.5637C21.0361 12.2879 18.2806 13.6229 14.938 13.6229C14.7912 13.6229 14.6443 13.6264 14.5009 13.6229V15.3711C14.6443 15.3745 14.7912 15.3711 14.938 15.3711C18.5572 15.3711 21.4936 13.8073 21.4936 11.8748V11.0007C21.4936 10.8505 21.4731 10.7071 21.439 10.5637V10.5637ZM21.439 13.1859C21.0361 14.9102 18.2806 16.2452 14.938 16.2452C14.7912 16.2452 14.6443 16.2486 14.5009 16.2452V17.9933C14.6443 17.9968 14.7912 17.9933 14.938 17.9933C18.5572 17.9933 21.4936 16.4296 21.4936 14.497V13.6229C21.4936 13.4727 21.4731 13.3293 21.439 13.1859V13.1859ZM0.570256 14.06C0.536111 14.2034 0.515625 14.3468 0.515625 14.497V15.3711C0.515625 17.3036 3.45199 18.8674 7.07124 18.8674C10.6905 18.8674 13.6268 17.3036 13.6268 15.3711V14.497C13.6268 14.3468 13.6064 14.2034 13.5722 14.06C13.1693 15.7842 10.4139 17.1193 7.07124 17.1193C3.72856 17.1193 0.973153 15.7842 0.570256 14.06ZM0.570256 16.6822C0.536111 16.8256 0.515625 16.969 0.515625 17.1193V17.9933C0.515625 19.9259 3.45199 21.4897 7.07124 21.4897C10.6905 21.4897 13.6268 19.9259 13.6268 17.9933V17.1193C13.6268 16.969 13.6064 16.8256 13.5722 16.6822C13.1693 18.4065 10.4139 19.7415 7.07124 19.7415C3.72856 19.7415 0.973153 18.4065 0.570256 16.6822Z" fill="currentColor"/>
        </g>
        <defs>
            <clipPath id="clip0_645_60975">
                <rect width="22" height="22" fill="white"/>
            </clipPath>
        </defs>
    </symbol>
    <symbol id="icon-filter-3" viewBox="0 0 22 22" fill="none" xmlns="http://www.w3.org/2000/svg">
        <g clip-path="url(#clip0_645_60980)">
            <path d="M2.7487 10.5V18.333V20.1663H4.58203H10.2312V10.5H2.7487Z" fill="currentColor"/>
            <path fill-rule="evenodd" clip-rule="evenodd" d="M6.41536 1.83301C4.90788 1.83301 3.66536 3.07552 3.66536 4.58301C3.66536 4.90527 3.7334 5.20964 3.83724 5.49968H3.66536L3.66306 5.49968H1.83203V7.33301V9.16634H20.1654V7.33301V5.49968H18.332H18.1602C18.264 5.20964 18.332 4.90527 18.332 4.58301C18.332 3.07552 17.0895 1.83301 15.582 1.83301C14.1211 1.83301 12.986 2.76042 12.0872 3.66634H9.91016C9.01139 2.76042 7.8763 1.83301 6.41536 1.83301ZM8.87891 5.21322C8.07682 4.36817 7.02051 3.66634 6.41536 3.66634C5.89616 3.66634 5.4987 4.0638 5.4987 4.58301C5.4987 5.10221 5.89616 5.49968 6.41537 5.49968H9.10807C9.05295 5.43645 9.02866 5.40111 9.00595 5.36808C8.9785 5.32816 8.95337 5.2916 8.87891 5.21322ZM16.4987 4.58301C16.4987 4.0638 16.1012 3.66634 15.582 3.66634C14.9769 3.66634 13.9206 4.36817 13.1185 5.21322C13.044 5.2916 13.0189 5.32816 12.9914 5.36808C12.9687 5.40111 12.9444 5.43645 12.8893 5.49968H15.582C16.1012 5.49968 16.4987 5.10221 16.4987 4.58301Z" fill="currentColor"/>
            <path d="M19.2487 18.333V10.5H11.7661V20.1663H17.4154H19.2487V18.333Z" fill="currentColor"/>
        </g>
        <defs>
            <clipPath id="clip0_645_60980">
                <rect width="22" height="22" fill="white"/>
            </clipPath>
        </defs>
    </symbol>
    <symbol id="icon-filter-4" viewBox="0 0 28 28" fill="none" xmlns="http://www.w3.org/2000/svg">
        <g clip-path="url(#clip0_1856_74465)">
            <path d="M17.8621 2.28027C15.1958 2.28027 13.0345 4.44158 13.0345 7.10786C13.0345 9.77413 15.1958 11.9354 17.8621 11.9354C20.5283 11.9354 22.6897 9.77413 22.6897 7.10786C22.6897 4.44158 20.5283 2.28027 17.8621 2.28027ZM16.6627 4.69407H19.035V5.39463H17.2916L17.1926 6.48272C17.3833 6.31231 17.6518 6.22814 17.8941 6.22814C18.779 6.22814 19.3103 6.83718 19.3103 7.86594C19.3103 8.91449 18.6425 9.46508 17.731 9.46508C17.0493 9.46508 16.7088 9.32084 16.4138 9.09829L16.7872 8.40338C17.1212 8.64573 17.4228 8.73811 17.7178 8.73811C18.2488 8.73811 18.6428 8.43042 18.6428 7.86028C18.6428 7.25104 18.269 6.94191 17.863 6.94191C17.6207 6.94191 17.3773 7.04056 17.1615 7.27663L16.4798 6.98905L16.6627 4.69407ZM24.8621 5.17682C24.36 5.17682 23.8871 5.29732 23.4666 5.50684C23.5863 6.00794 23.6552 6.5411 23.6552 7.10786C23.6552 8.40648 23.3273 9.61368 22.734 10.6154C23.2935 11.1334 24.0394 11.4527 24.8621 11.4527C26.5952 11.4527 28 10.0479 28 8.31476C28 6.58165 26.5952 5.17682 24.8621 5.17682ZM0 8.07338V24.4872H27.0345V12.3522C26.4547 12.6655 25.7986 12.852 25.1034 12.8887V20.6251C24.037 20.6251 23.1724 21.4897 23.1724 22.5561H3.86207C3.86207 21.4897 2.99745 20.6251 1.93103 20.6251V11.9354C2.99745 11.9354 3.86207 11.0708 3.86207 10.0044H12.3C11.9891 9.41014 11.7749 8.75986 11.6682 8.07338H0ZM13.5172 12.901C11.1174 12.901 9.17241 15.2785 9.17241 18.2113C9.17241 19.0812 9.34728 19.9005 9.65046 20.6251H17.384C17.6877 19.9005 17.8621 19.0812 17.8621 18.2113C17.8621 15.2785 15.917 12.901 13.5172 12.901H13.5172ZM5.31034 14.832C4.51048 14.832 3.86207 15.4804 3.86207 16.2803C3.86207 17.0801 4.51048 17.7285 5.31034 17.7285C6.11021 17.7285 6.75862 17.0801 6.75862 16.2803C6.75862 15.4804 6.11021 14.832 5.31034 14.832ZM21.7241 14.832C20.9243 14.832 20.2759 15.4804 20.2759 16.2803C20.2759 17.0801 20.9243 17.7285 21.7241 17.7285C22.524 17.7285 23.1724 17.0801 23.1724 16.2803C23.1724 15.4804 22.524 14.832 21.7241 14.832Z" fill="currentColor"/>
        </g>
        <defs>
            <clipPath id="clip0_1856_74465">
                <rect width="28" height="28" fill="white"/>
            </clipPath>
        </defs>
    </symbol>
    <svg id="icon-filter-5" viewBox="0 0 28 28" fill="none" xmlns="http://www.w3.org/2000/svg">
        <path d="M3.0625 5.25C2.09606 5.25 1.3125 6.03356 1.3125 7V9.1875H26.6875V7C26.6875 6.03356 25.9039 5.25 24.9375 5.25H3.0625ZM1.3125 10.9666V21C1.3125 21.9664 2.09606 22.75 3.0625 22.75H16.1875C16.4062 21 16.625 18.0127 16.625 18.0127L18.0127 16.625H18.375C20.5586 16.625 21.2139 15.9136 21.3127 15.7876L21.6562 15.3125H22.0938H23.8438L24.1881 15.7885C24.2774 15.9022 25.4953 16.474 26.6875 16.1354V11.8125L1.3125 10.9666ZM4.375 14H10.9375V15.75H4.375V14ZM22.0938 16.1875C22.0938 16.1875 21.4659 17.5 18.375 17.5L17.5 18.375V21.8177C17.5 26.3354 22.75 28 22.75 28C22.75 28 28 26.3354 28 21.8177V18.375L27.125 17.5C24.0341 17.5 23.4062 16.1875 23.4062 16.1875H22.0938Z" fill="currentColor"/>
    </svg>
    <symbol id="icon-filter-6" viewBox="0 0 28 28" fill="none" xmlns="http://www.w3.org/2000/svg">
        <path d="M7.46718 1C6.86581 1.00006 6.37831 1.48756 6.37825 2.08893V12.9782C5.77716 12.9782 5.28932 13.4661 5.28932 14.0672C5.28932 14.6683 5.77716 15.1561 6.37825 15.1561H21.6233C22.2244 15.1561 22.7122 14.6683 22.7122 14.0672C22.7122 13.4661 22.2244 12.9782 21.6233 12.9782V2.08893C21.6232 1.48756 21.1357 1.00006 20.5344 1H7.46718ZM10.734 3.17786H17.2676C17.2676 4.38066 18.2426 5.35573 19.4454 5.35573V14.0672H17.2676C17.2676 12.2628 15.8051 10.8004 14.0008 10.8004C12.1964 10.8004 10.734 12.2628 10.734 14.0672H8.55611V5.35573C9.75892 5.35573 10.734 4.38066 10.734 3.17786ZM3.11146 4.2668C1.90819 4.2668 0.933594 5.24139 0.933594 6.44466V20.6008C0.933594 21.804 1.90819 22.7786 3.11146 22.7786H24.8901C26.0934 22.7786 27.068 21.804 27.068 20.6008V6.44466C27.068 5.24139 26.0934 4.2668 24.8901 4.2668H23.8012V6.44466H24.8901V18.4229H3.11146V6.44466H4.20039V4.2668H3.11146ZM14.0008 6.44466C13.3994 6.44466 12.9118 6.93219 12.9118 7.53359C12.9118 8.13499 13.3994 8.62252 14.0008 8.62252C14.6022 8.62252 15.0897 8.13499 15.0897 7.53359C15.0897 6.93219 14.6022 6.44466 14.0008 6.44466ZM14.0008 19.5118C14.6019 19.5118 15.0897 19.9997 15.0897 20.6008C15.0897 21.2019 14.6019 21.6897 14.0008 21.6897C13.3997 21.6897 12.9118 21.2019 12.9118 20.6008C12.9118 19.9997 13.3997 19.5118 14.0008 19.5118Z" fill="currentColor"/>
        <path d="M7.60015 25.4965C7.79292 25.1662 8.14431 24.9619 8.52519 24.9565H7.38685V27.1344H8.52519C8.14431 27.129 7.79292 26.9247 7.60015 26.5944C7.40218 26.2552 7.40218 25.8357 7.60015 25.4965Z" fill="currentColor"/>
        <path d="M20.4014 25.4965C20.4067 25.5055 20.4118 25.5146 20.4168 25.5237V24.9565H19.4764C19.8572 24.9619 20.2086 25.1662 20.4014 25.4965Z" fill="currentColor"/>
        <path d="M20.4014 26.5944C20.2086 26.9247 19.8572 27.129 19.4764 27.1344H20.4168V26.5671C20.4118 26.5763 20.4067 26.5854 20.4014 26.5944Z" fill="currentColor"/>
        <path d="M7.60015 25.4965C7.40218 25.8357 7.40218 26.2552 7.60015 26.5944C7.79292 26.9247 8.14431 27.129 8.52519 27.1344H8.55611H19.4454H19.4764C19.8572 27.129 20.2086 26.9247 20.4014 26.5944C20.4067 26.5854 20.4118 26.5763 20.4168 26.5671V25.5237C20.4118 25.5146 20.4067 25.5055 20.4014 25.4965C20.2086 25.1662 19.8572 24.9619 19.4764 24.9565H19.4454H8.55611H8.52519C8.14431 24.9619 7.79292 25.1662 7.60015 25.4965Z" fill="currentColor"/>
    </symbol>
    <symbol id="icon-filter-7" viewBox="0 0 28 28" fill="none" xmlns="http://www.w3.org/2000/svg">
        <path d="M25.7401 1.50195L0.0273438 5.93786L0.81044 10.4747L2.83238 10.3993L2.68732 9.55147C3.78126 9.3658 4.51379 8.32651 4.3231 7.23257L22.1275 4.16193C22.3132 5.25587 23.3515 5.98839 24.4454 5.79771L25.1031 9.60636L27.125 9.53579L25.7401 1.50195ZM14.1309 8.09995C13.9703 8.09935 13.8086 8.11289 13.6467 8.14111C13.3883 8.18502 13.143 8.2648 12.9126 8.37536C12.7975 8.43063 12.6857 8.49319 12.5784 8.56354C12.4712 8.63389 12.3685 8.71145 12.2697 8.79582C12.1709 8.88019 12.0762 8.97096 11.9865 9.06828C11.7173 9.36025 11.49 9.70884 11.3131 10.0984L17.0486 9.89254C16.9458 9.73573 16.8358 9.58696 16.7193 9.44758C16.6029 9.3082 16.481 9.17782 16.3528 9.05751C15.9682 8.69656 15.5346 8.42569 15.0757 8.26559C14.7698 8.15886 14.4522 8.10115 14.1309 8.09995L14.1309 8.09995ZM21.6286 8.35085C21.5287 8.34761 21.427 8.35387 21.3248 8.37144C21.2364 8.38649 21.1508 8.40972 21.069 8.43906C20.9872 8.46841 20.9087 8.50477 20.8348 8.54687C20.6868 8.63108 20.5557 8.73932 20.4457 8.8654C20.3906 8.92844 20.3406 8.99511 20.2967 9.06632C20.2528 9.13754 20.2146 9.2129 20.183 9.29076C20.1514 9.36862 20.1268 9.44889 20.1085 9.53187C20.0902 9.61484 20.0789 9.70013 20.0752 9.78669L23.0762 9.67692C23.0762 9.65183 23.0705 9.62655 23.0654 9.60145C23.0303 9.39697 22.9558 9.20934 22.8498 9.04476C22.7439 8.88018 22.6067 8.73858 22.449 8.62724C22.2123 8.46023 21.9285 8.36059 21.6286 8.35085H21.6286ZM1.01626 11.4881V26.5424H27.1103V11.4881H1.01626ZM5.03073 13.4954H23.0958C23.0958 14.6039 23.9946 15.5026 25.1031 15.5026V22.5279C23.9946 22.5279 23.0958 23.4267 23.0958 24.5352H5.03073C5.03073 23.4267 4.13199 22.5279 3.02349 22.5279V15.5026C4.13199 15.5026 5.03073 14.6039 5.03073 13.4954ZM14.0633 15.9731C12.1233 15.9731 10.5506 18.0006 10.5506 20.5011C10.5506 21.2433 10.6914 21.9411 10.9368 22.5593H17.1898C17.4352 21.9416 17.5759 21.2433 17.5759 20.5011C17.5759 18.0001 16.0033 15.9731 14.0633 15.9731H14.0633ZM6.53615 17.5098C5.70473 17.5098 5.03073 18.1838 5.03073 19.0153C5.03073 19.8467 5.70473 20.5207 6.53615 20.5207C7.36758 20.5207 8.04158 19.8467 8.04158 19.0153C8.04158 18.1838 7.36758 17.5098 6.53615 17.5098ZM21.5904 17.5098C20.759 17.5098 20.085 18.1838 20.085 19.0153C20.085 19.8467 20.759 20.5207 21.5904 20.5207C22.4218 20.5207 23.0958 19.8467 23.0958 19.0153C23.0958 18.1838 22.4218 17.5098 21.5904 17.5098Z" fill="currentColor"/>
    </symbol>
</svg>