<svg width="22" height="22" viewBox="0 0 22 22" fill="none" xmlns="http://www.w3.org/2000/svg">
<g clip-path="url(#clip0_645_60975)">
<path d="M14.938 0.511719C11.3187 0.511719 8.38236 2.07551 8.38236 4.00805C8.38236 5.94059 11.3187 7.50437 14.938 7.50437C18.5572 7.50437 21.4936 5.94059 21.4936 4.00805C21.4936 2.07551 18.5572 0.511719 14.938 0.511719ZM8.43699 5.31917C8.40285 5.46257 8.38236 5.60598 8.38236 5.75621V6.63029C8.38236 7.37121 8.81599 8.0575 9.55691 8.62429C10.8339 8.88378 11.9367 9.34131 12.7801 9.93541C13.4527 10.0617 14.1834 10.1266 14.938 10.1266C18.5572 10.1266 21.4936 8.56283 21.4936 6.63029V5.75621C21.4936 5.60598 21.4731 5.46257 21.439 5.31917C21.0361 7.04343 18.2806 8.37845 14.938 8.37845C11.5953 8.37845 8.83989 7.04343 8.43699 5.31917ZM21.439 7.94141C21.0361 9.66568 18.2806 11.0007 14.938 11.0007C14.5692 11.0007 14.2244 10.9768 13.8727 10.9461C14.279 11.489 14.4975 12.107 14.5009 12.7489C14.6443 12.7523 14.7912 12.7489 14.938 12.7489C18.5572 12.7489 21.4936 11.1851 21.4936 9.25253V8.37845C21.4936 8.22822 21.4731 8.08482 21.439 7.94141V7.94141ZM7.07124 9.25253C3.45199 9.25253 0.515625 10.8163 0.515625 12.7489C0.515625 14.6814 3.45199 16.2452 7.07124 16.2452C10.6905 16.2452 13.6268 14.6814 13.6268 12.7489C13.6268 10.8163 10.6905 9.25253 7.07124 9.25253ZM21.439 10.5637C21.0361 12.2879 18.2806 13.6229 14.938 13.6229C14.7912 13.6229 14.6443 13.6264 14.5009 13.6229V15.3711C14.6443 15.3745 14.7912 15.3711 14.938 15.3711C18.5572 15.3711 21.4936 13.8073 21.4936 11.8748V11.0007C21.4936 10.8505 21.4731 10.7071 21.439 10.5637V10.5637ZM21.439 13.1859C21.0361 14.9102 18.2806 16.2452 14.938 16.2452C14.7912 16.2452 14.6443 16.2486 14.5009 16.2452V17.9933C14.6443 17.9968 14.7912 17.9933 14.938 17.9933C18.5572 17.9933 21.4936 16.4296 21.4936 14.497V13.6229C21.4936 13.4727 21.4731 13.3293 21.439 13.1859V13.1859ZM0.570256 14.06C0.536111 14.2034 0.515625 14.3468 0.515625 14.497V15.3711C0.515625 17.3036 3.45199 18.8674 7.07124 18.8674C10.6905 18.8674 13.6268 17.3036 13.6268 15.3711V14.497C13.6268 14.3468 13.6064 14.2034 13.5722 14.06C13.1693 15.7842 10.4139 17.1193 7.07124 17.1193C3.72856 17.1193 0.973153 15.7842 0.570256 14.06ZM0.570256 16.6822C0.536111 16.8256 0.515625 16.969 0.515625 17.1193V17.9933C0.515625 19.9259 3.45199 21.4897 7.07124 21.4897C10.6905 21.4897 13.6268 19.9259 13.6268 17.9933V17.1193C13.6268 16.969 13.6064 16.8256 13.5722 16.6822C13.1693 18.4065 10.4139 19.7415 7.07124 19.7415C3.72856 19.7415 0.973153 18.4065 0.570256 16.6822Z" fill="#222222"/>
</g>
<defs>
<clipPath id="clip0_645_60975">
<rect width="22" height="22" fill="white"/>
</clipPath>
</defs>
</svg>
