<svg width="20" height="20" viewBox="0 0 20 20" fill="none" xmlns="http://www.w3.org/2000/svg">
<path d="M5.53033 4.46967C5.23744 4.17678 4.76256 4.17678 4.46967 4.46967C4.17678 4.76256 4.17678 5.23744 4.46967 5.53033L5.53033 4.46967ZM15 15.75C15.4142 15.75 15.75 15.4142 15.75 15L15.75 8.25C15.75 7.83579 15.4142 7.5 15 7.5C14.5858 7.5 14.25 7.83579 14.25 8.25V14.25H8.25C7.83579 14.25 7.5 14.5858 7.5 15C7.5 15.4142 7.83579 15.75 8.25 15.75L15 15.75ZM4.46967 5.53033L14.4697 15.5303L15.5303 14.4697L5.53033 4.46967L4.46967 5.53033Z" fill="#F0284A"/>
</svg>
