<svg width="22" height="22" viewBox="0 0 22 22" fill="none" xmlns="http://www.w3.org/2000/svg">
<path d="M20.3068 13.0625C20.3068 11.3008 19.7251 9.625 18.7853 8.20703H18.8301L20.1278 6.91797C20.3515 6.74609 20.3515 6.40234 20.1278 6.1875L18.8748 4.98438C18.6511 4.76953 18.2931 4.76953 18.1141 4.98438L16.8612 6.1875C15.6082 5.19922 14.0867 4.51172 12.4311 4.25391V2.75H13.684C13.9525 2.75 14.221 2.53516 14.221 2.23438V0.515625C14.221 0.257812 13.9525 0 13.684 0H8.31419C8.00095 0 7.7772 0.257812 7.7772 0.515625V2.23438C7.7772 2.53516 8.00095 2.75 8.31419 2.75H9.56715V4.25391C5.09229 4.89844 1.69141 8.59375 1.69141 13.0625C1.69141 18.0039 5.85302 22 10.9991 22C16.1004 22 20.3068 18.0039 20.3068 13.0625ZM12.4311 14.6094C12.4311 14.9102 12.1626 15.125 11.8941 15.125H10.1041C9.79089 15.125 9.56715 14.9102 9.56715 14.6094V8.12109C9.56715 7.82031 9.79089 7.60547 10.1041 7.60547H11.8941C12.1626 7.60547 12.4311 7.82031 12.4311 8.12109V14.6094Z" fill="#222222"/>
</svg>
