<svg width="20" height="20" viewBox="0 0 20 20" fill="none" xmlns="http://www.w3.org/2000/svg">
<path d="M17.1594 14.6119C16.8677 15.267 16.5223 15.87 16.1222 16.4244C15.5768 17.1802 15.1303 17.7033 14.7861 17.9938C14.2526 18.4706 13.681 18.7148 13.0689 18.7287C12.6295 18.7287 12.0996 18.6072 11.4828 18.3607C10.8639 18.1153 10.2952 17.9938 9.77512 17.9938C9.22972 17.9938 8.64479 18.1153 8.01913 18.3607C7.39252 18.6072 6.88772 18.7357 6.50178 18.7484C5.91482 18.7727 5.32977 18.5215 4.74579 17.9938C4.37306 17.6778 3.90685 17.1362 3.34835 16.3688C2.74913 15.5494 2.25649 14.5992 1.87054 13.5159C1.4572 12.3458 1.25 11.2127 1.25 10.1158C1.25 8.85922 1.52937 7.77546 2.08894 6.86727C2.52871 6.13778 3.11376 5.56233 3.846 5.13989C4.57824 4.71745 5.36942 4.50218 6.22146 4.48841C6.68767 4.48841 7.29904 4.62857 8.05878 4.90402C8.81639 5.1804 9.30284 5.32056 9.51611 5.32056C9.67557 5.32056 10.216 5.15667 11.1321 4.82995C11.9984 4.52695 12.7296 4.40149 13.3285 4.45091C14.9516 4.57822 16.171 5.20008 16.982 6.32041C15.5304 7.17525 14.8123 8.37255 14.8266 9.9085C14.8397 11.1049 15.2863 12.1004 16.1639 12.8909C16.5616 13.2578 17.0058 13.5414 17.5 13.7428C17.3928 14.0448 17.2797 14.3342 17.1594 14.6119ZM13.4369 0.375107C13.4369 1.31282 13.0844 2.18836 12.3818 2.99875C11.534 3.96215 10.5084 4.51885 9.39632 4.431C9.38215 4.31851 9.37393 4.20011 9.37393 4.07569C9.37393 3.17548 9.77714 2.21209 10.4932 1.42438C10.8507 1.02555 11.3053 0.693928 11.8567 0.429387C12.4068 0.168793 12.9272 0.0246789 13.4167 0C13.431 0.125358 13.4369 0.250723 13.4369 0.375095V0.375107Z" fill="#222222"/>
</svg>
