<svg width="20" height="20" viewBox="0 0 20 20" fill="none" xmlns="http://www.w3.org/2000/svg">
<g clip-path="url(#clip0_645_60900)">
<path d="M8.66571 1.33301C8.29771 1.33301 7.99904 1.63167 7.99904 1.99967V5.03483L6.56154 7.64421C6.43973 7.45096 6.22747 7.33353 5.99904 7.33301H1.99904C1.81403 7.33293 1.63731 7.40973 1.51114 7.54504C1.38497 7.68035 1.32069 7.862 1.33368 8.04655L2.00034 17.3799C2.02499 17.7291 2.31559 17.9998 2.66571 17.9997H5.99904C6.36722 17.9996 6.66567 17.7012 6.66571 17.333H7.76467C8.00162 17.7358 8.42403 17.9997 8.90139 17.9997H15.3324C16.0688 17.9997 16.6657 17.4027 16.6657 16.6663C16.6652 16.4291 16.6014 16.1962 16.4808 15.9919C17.3399 15.915 17.9984 15.1955 17.999 14.333C17.9984 13.9253 17.8483 13.532 17.5772 13.2275C18.2307 12.9858 18.6649 12.3631 18.6657 11.6663C18.6651 11.1413 18.4171 10.6472 17.9964 10.333C18.4171 10.0188 18.6651 9.52473 18.6657 8.99967C18.6657 8.0792 17.9195 7.33301 16.999 7.33301H11.0043C11.1784 6.55556 11.3324 5.72649 11.3324 5.33301C11.3324 3.80567 10.1231 1.33301 9.30243 1.33301H8.66571ZM2.71519 8.66634H5.33238V16.6663H3.2868L2.71519 8.66634Z" fill="#222222"/>
</g>
<defs>
<clipPath id="clip0_645_60900">
<rect width="20" height="20" fill="white"/>
</clipPath>
</defs>
</svg>
