<svg width="20" height="20" viewBox="0 0 20 20" fill="none" xmlns="http://www.w3.org/2000/svg">
<path d="M2.78474 6.47949C2.44014 6.47949 2.14776 6.59966 1.90742 6.84C1.66708 7.08034 1.54688 7.36875 1.54688 7.70535V12.8736C1.54688 13.2186 1.66705 13.5107 1.90742 13.7511C2.14776 13.9915 2.44014 14.1117 2.78474 14.1117C3.12909 14.1117 3.4197 13.9915 3.65631 13.7511C3.89246 13.5108 4.01086 13.2186 4.01086 12.8736V7.70535C4.01086 7.36871 3.89069 7.08034 3.65031 6.84C3.40993 6.59966 3.12135 6.47949 2.78474 6.47949Z" fill="#222222"/>
<path d="M12.7344 1.83878L13.5878 0.264526C13.6438 0.160304 13.6239 0.0803828 13.5278 0.0241852C13.4236 -0.0242736 13.3435 0.000281275 13.2875 0.0961138L12.4222 1.68296C11.6607 1.34631 10.8554 1.17768 10.0062 1.17768C9.1568 1.17768 8.35141 1.34635 7.59028 1.68296L6.72493 0.0961138C6.6687 0.000281275 6.5886 -0.0240566 6.48459 0.0241852C6.38833 0.080636 6.3684 0.160304 6.42463 0.264526L7.27805 1.83878C6.4127 2.28008 5.7235 2.89468 5.21071 3.6839C4.69791 4.47356 4.44141 5.33649 4.44141 6.2742H15.5589C15.5589 5.33671 15.3024 4.47375 14.7896 3.6839C14.2768 2.89468 13.5916 2.28008 12.7344 1.83878ZM7.80054 4.12857C7.70825 4.22107 7.59802 4.26711 7.4699 4.26711C7.34152 4.26711 7.23353 4.22107 7.14544 4.12857C7.05735 4.0365 7.0133 3.9267 7.0133 3.79814C7.0133 3.67002 7.05735 3.56001 7.14544 3.46772C7.23353 3.37565 7.34177 3.32961 7.4699 3.32961C7.59802 3.32961 7.70825 3.37565 7.80054 3.46772C7.89261 3.56023 7.93886 3.67002 7.93886 3.79814C7.93861 3.92649 7.89239 4.0365 7.80054 4.12857ZM12.8665 4.12857C12.7782 4.22107 12.67 4.26711 12.5421 4.26711C12.4137 4.26711 12.3035 4.22107 12.2114 4.12857C12.1191 4.0365 12.0731 3.9267 12.0731 3.79814C12.0731 3.67002 12.1191 3.56001 12.2114 3.46772C12.3035 3.37565 12.4137 3.32961 12.5421 3.32961C12.6702 3.32961 12.7782 3.37565 12.8665 3.46772C12.9547 3.56023 12.9986 3.67002 12.9986 3.79814C12.9986 3.92649 12.9546 4.0365 12.8665 4.12857Z" fill="#222222"/>
<path d="M4.48828 14.71C4.48828 15.0789 4.61641 15.3912 4.8727 15.6475C5.1292 15.9038 5.44151 16.0319 5.81019 16.0319H6.69966L6.71185 18.7606C6.71185 19.1051 6.83202 19.3977 7.07236 19.6381C7.3127 19.8785 7.60132 19.9986 7.93771 19.9986C8.28209 19.9986 8.57465 19.8785 8.81503 19.6381C9.05541 19.3977 9.17558 19.1052 9.17558 18.7606V16.0322H10.8342V18.7606C10.8342 19.1051 10.9543 19.3977 11.1947 19.6381C11.4351 19.8785 11.7274 19.9986 12.072 19.9986C12.4164 19.9986 12.7089 19.8785 12.9493 19.6381C13.1897 19.3977 13.3098 19.1052 13.3098 18.7606V16.0322H14.2113C14.5718 16.0322 14.8801 15.904 15.1369 15.6477C15.3931 15.3914 15.5213 15.0791 15.5213 14.7102V6.70508H4.48828V14.71Z" fill="#222222"/>
<path d="M17.2298 6.47949C16.8932 6.47949 16.6048 6.59789 16.3644 6.83404C16.1241 7.07062 16.0039 7.36122 16.0039 7.70535V12.8736C16.0039 13.2186 16.124 13.5107 16.3644 13.7511C16.6048 13.9915 16.8934 14.1117 17.2298 14.1117C17.5742 14.1117 17.8667 13.9915 18.1071 13.7511C18.3475 13.5107 18.4676 13.2186 18.4676 12.8736V7.70535C18.4676 7.36119 18.3475 7.07062 18.1071 6.83404C17.8667 6.59789 17.5742 6.47949 17.2298 6.47949Z" fill="#222222"/>
</svg>
