<svg width="22" height="22" viewBox="0 0 22 22" fill="none" xmlns="http://www.w3.org/2000/svg">
<path d="M10.59 1.8569C10.7826 1.5592 11.2182 1.5592 11.4109 1.8569L12.8997 4.15752C13.0254 4.35181 13.2701 4.43133 13.4861 4.34805L16.0428 3.36191C16.3737 3.2343 16.726 3.49033 16.7069 3.84441L16.5591 6.58076C16.5466 6.81184 16.6979 7.02002 16.9215 7.07956L19.5696 7.78457C19.9123 7.8758 20.0469 8.29006 19.8233 8.56528L18.0953 10.6922C17.9494 10.8718 17.9494 11.1291 18.0953 11.3087L19.8233 13.4356C20.0469 13.7108 19.9123 14.1251 19.5696 14.2163L16.9215 14.9213C16.6979 14.9808 16.5466 15.189 16.5591 15.4201L16.7069 18.1565C16.726 18.5105 16.3737 18.7666 16.0428 18.639L13.4861 17.6528C13.2701 17.5695 13.0254 17.6491 12.8997 17.8433L11.4109 20.144C11.2182 20.4417 10.7826 20.4417 10.59 20.144L9.10118 17.8433C8.97545 17.6491 8.73072 17.5695 8.5148 17.6528L5.95805 18.639C5.62721 18.7666 5.27482 18.5105 5.29395 18.1565L5.44174 15.4201C5.45422 15.189 5.30297 14.9808 5.07934 14.9213L2.43125 14.2163C2.08859 14.1251 1.95398 13.7108 2.17758 13.4356L3.90554 11.3087C4.05146 11.1291 4.05146 10.8718 3.90554 10.6922L2.17758 8.56528C1.95398 8.29006 2.08858 7.8758 2.43125 7.78457L5.07934 7.07956C5.30297 7.02002 5.45422 6.81184 5.44174 6.58076L5.29395 3.84441C5.27482 3.49033 5.62721 3.2343 5.95805 3.36191L8.5148 4.34805C8.73072 4.43133 8.97545 4.35181 9.10118 4.15752L10.59 1.8569Z" fill="#222222"/>
<path d="M9.78763 13.8711C9.94877 14.0322 10.2227 14.0322 10.3838 13.8711L15.1212 9.13373C15.2823 8.9726 15.2823 8.69867 15.1212 8.53753L14.5411 7.95745C14.38 7.79631 14.1222 7.79631 13.961 7.95745L10.0938 11.8247L8.27296 10.02C8.11183 9.85884 7.85401 9.85884 7.69288 10.02L7.11279 10.6001C6.95166 10.7612 6.95166 11.0351 7.11279 11.1963L9.78763 13.8711Z" fill="white"/>
</svg>
