<svg width="18" height="18" viewBox="0 0 18 18" fill="none" xmlns="http://www.w3.org/2000/svg">
<path d="M8.63105 0.880881C8.76814 0.553585 9.23186 0.553585 9.36895 0.88088L11.5629 6.11915C11.6206 6.25684 11.7501 6.35096 11.8989 6.36326L17.5588 6.83115C17.9124 6.86038 18.0557 7.30141 17.7868 7.53293L13.4829 11.2382C13.3698 11.3356 13.3203 11.4879 13.3546 11.6332L14.6586 17.1607C14.74 17.506 14.3649 17.7786 14.0616 17.5944L9.20765 14.6461C9.08006 14.5686 8.91994 14.5686 8.79235 14.6461L3.9384 17.5944C3.63512 17.7786 3.25996 17.506 3.34143 17.1607L4.64544 11.6332C4.67972 11.4879 4.63023 11.3356 4.5171 11.2382L0.213192 7.53293C-0.0557235 7.30141 0.0875747 6.86038 0.441212 6.83115L6.10108 6.36326C6.24985 6.35096 6.3794 6.25684 6.43707 6.11915L8.63105 0.880881Z" fill="#222222"/>
</svg>
