<svg width="109" height="31" viewBox="0 0 109 31" fill="none" xmlns="http://www.w3.org/2000/svg">
<g filter="url(#filter0_dd_682_67809)">
<path d="M9 3C6.23858 3 4 5.23858 4 8V20C4 22.7614 6.23857 25 9 25H100C102.761 25 105 22.7614 105 20V8C105 5.23858 102.761 3 100 3H9Z" fill="#FFD600" stroke="white" stroke-width="2"/>
<g clip-path="url(#clip0_682_67809)">
<path d="M24.625 15.499C24.625 18.6471 22.1477 21.124 18.9996 21.124C15.8515 21.124 13.375 18.6471 13.375 15.499C13.375 12.3509 18.4296 9.72402 17.8596 6.87402C19 6.87402 24.625 10.9394 24.625 15.499Z" fill="#DD2C00"/>
<path d="M22.375 16.999C22.375 14.1494 19 11.374 19 11.374C19 13.654 15.625 14.7194 15.625 16.999C15.625 18.8875 17.1111 20.374 19 20.374C20.8889 20.374 22.375 18.8875 22.375 16.999Z" fill="#FF5722"/>
<path d="M17.1211 18.2753C17.1215 16.998 18.9965 16.2672 18.9965 15.123C18.9965 15.123 20.8711 16.56 20.8711 18.2753C20.8711 19.2222 20.0322 19.9905 18.9961 19.9905C17.96 19.9905 17.1207 19.2225 17.1211 18.2753H17.1211Z" fill="#FFC107"/>
</g>
<path d="M30.6953 18V10H33.8984C34.487 10 34.9779 10.0872 35.3711 10.2617C35.7643 10.4362 36.0599 10.6784 36.2578 10.9883C36.4557 11.2956 36.5547 11.6497 36.5547 12.0508C36.5547 12.3633 36.4922 12.638 36.3672 12.875C36.2422 13.1094 36.0703 13.3021 35.8516 13.4531C35.6354 13.6016 35.388 13.707 35.1094 13.7695V13.8477C35.4141 13.8607 35.6992 13.9466 35.9648 14.1055C36.2331 14.2643 36.4505 14.487 36.6172 14.7734C36.7839 15.0573 36.8672 15.3958 36.8672 15.7891C36.8672 16.2135 36.7617 16.5924 36.5508 16.9258C36.3424 17.2565 36.0339 17.5182 35.625 17.7109C35.2161 17.9036 34.7122 18 34.1133 18H30.6953ZM32.3867 16.6172H33.7656C34.237 16.6172 34.5807 16.5273 34.7969 16.3477C35.013 16.1654 35.1211 15.9232 35.1211 15.6211C35.1211 15.3997 35.0677 15.2044 34.9609 15.0352C34.8542 14.8659 34.7018 14.7331 34.5039 14.6367C34.3086 14.5404 34.0755 14.4922 33.8047 14.4922H32.3867V16.6172ZM32.3867 13.3477H33.6406C33.8724 13.3477 34.0781 13.3073 34.2578 13.2266C34.4401 13.1432 34.5833 13.026 34.6875 12.875C34.7943 12.724 34.8477 12.543 34.8477 12.332C34.8477 12.043 34.7448 11.8099 34.5391 11.6328C34.3359 11.4557 34.0469 11.3672 33.6719 11.3672H32.3867V13.3477ZM38.1878 18V10H43.5784V11.3945H39.8792V13.3008H43.3011V14.6953H39.8792V16.6055H43.594V18H38.1878ZM49.483 12.3008C49.4517 11.9857 49.3176 11.7409 49.0806 11.5664C48.8436 11.3919 48.522 11.3047 48.1158 11.3047C47.8397 11.3047 47.6067 11.3437 47.4166 11.4219C47.2265 11.4974 47.0806 11.6029 46.9791 11.7383C46.8801 11.8737 46.8306 12.0273 46.8306 12.1992C46.8254 12.3424 46.8554 12.4674 46.9205 12.5742C46.9882 12.681 47.0806 12.7734 47.1978 12.8516C47.315 12.9271 47.4504 12.9935 47.6041 13.0508C47.7577 13.1055 47.9218 13.1523 48.0962 13.1914L48.815 13.3633C49.164 13.4414 49.4843 13.5456 49.7759 13.6758C50.0676 13.806 50.3202 13.9661 50.5337 14.1562C50.7473 14.3464 50.9127 14.5703 51.0298 14.8281C51.1496 15.0859 51.2108 15.3815 51.2134 15.7148C51.2108 16.2044 51.0858 16.6289 50.8384 16.9883C50.5936 17.3451 50.2395 17.6224 49.7759 17.8203C49.315 18.0156 48.759 18.1133 48.108 18.1133C47.4621 18.1133 46.8996 18.0143 46.4205 17.8164C45.9439 17.6185 45.5715 17.3255 45.3033 16.9375C45.0377 16.5469 44.8983 16.0638 44.8853 15.4883H46.522C46.5403 15.7565 46.6171 15.9805 46.7525 16.1602C46.8905 16.3372 47.0741 16.4714 47.3033 16.5625C47.5351 16.651 47.7968 16.6953 48.0884 16.6953C48.3749 16.6953 48.6236 16.6536 48.8345 16.5703C49.0481 16.487 49.2134 16.3711 49.3306 16.2227C49.4478 16.0742 49.5064 15.9036 49.5064 15.7109C49.5064 15.5312 49.453 15.3802 49.3462 15.2578C49.2421 15.1354 49.0884 15.0312 48.8853 14.9453C48.6848 14.8594 48.4387 14.7812 48.147 14.7109L47.2759 14.4922C46.6015 14.3281 46.0689 14.0716 45.6783 13.7227C45.2877 13.3737 45.0936 12.9036 45.0962 12.3125C45.0936 11.8281 45.2226 11.4049 45.483 11.043C45.746 10.681 46.1067 10.3984 46.565 10.1953C47.0233 9.99219 47.5442 9.89062 48.1275 9.89062C48.7212 9.89062 49.2395 9.99219 49.6822 10.1953C50.1275 10.3984 50.4739 10.681 50.7212 11.043C50.9686 11.4049 51.0962 11.8242 51.1041 12.3008H49.483ZM52.2664 11.3945V10H58.8368V11.3945H56.3875V18H54.7157V11.3945H52.2664ZM70.2562 14C70.2562 14.8724 70.0909 15.6146 69.7602 16.2266C69.432 16.8385 68.9841 17.306 68.4164 17.6289C67.8513 17.9492 67.2159 18.1094 66.5102 18.1094C65.7992 18.1094 65.1612 17.9479 64.5961 17.625C64.031 17.3021 63.5844 16.8346 63.2562 16.2227C62.9281 15.6107 62.7641 14.8698 62.7641 14C62.7641 13.1276 62.9281 12.3854 63.2562 11.7734C63.5844 11.1615 64.031 10.6953 64.5961 10.375C65.1612 10.0521 65.7992 9.89062 66.5102 9.89062C67.2159 9.89062 67.8513 10.0521 68.4164 10.375C68.9841 10.6953 69.432 11.1615 69.7602 11.7734C70.0909 12.3854 70.2562 13.1276 70.2562 14ZM68.5414 14C68.5414 13.4349 68.4568 12.9583 68.2875 12.5703C68.1208 12.1823 67.8852 11.888 67.5805 11.6875C67.2758 11.487 66.919 11.3867 66.5102 11.3867C66.1013 11.3867 65.7445 11.487 65.4398 11.6875C65.1352 11.888 64.8982 12.1823 64.7289 12.5703C64.5622 12.9583 64.4789 13.4349 64.4789 14C64.4789 14.5651 64.5622 15.0417 64.7289 15.4297C64.8982 15.8177 65.1352 16.112 65.4398 16.3125C65.7445 16.513 66.1013 16.6133 66.5102 16.6133C66.919 16.6133 67.2758 16.513 67.5805 16.3125C67.8852 16.112 68.1208 15.8177 68.2875 15.4297C68.4568 15.0417 68.5414 14.5651 68.5414 14ZM71.7292 18V10H77.0261V11.3945H73.4206V13.3008H76.6745V14.6953H73.4206V18H71.7292ZM78.3838 18V10H83.6806V11.3945H80.0752V13.3008H83.3291V14.6953H80.0752V18H78.3838ZM85.0383 18V10H90.4289V11.3945H86.7297V13.3008H90.1516V14.6953H86.7297V16.6055H90.4446V18H85.0383ZM91.9937 18V10H95.1499C95.7541 10 96.2697 10.1081 96.6968 10.3242C97.1265 10.5378 97.4533 10.8411 97.6773 11.2344C97.9038 11.625 98.0171 12.0846 98.0171 12.6133C98.0171 13.1445 97.9025 13.6016 97.6734 13.9844C97.4442 14.3646 97.1122 14.6562 96.6773 14.8594C96.245 15.0625 95.7215 15.1641 95.107 15.1641H92.9937V13.8047H94.8335C95.1564 13.8047 95.4247 13.7604 95.6382 13.6719C95.8517 13.5833 96.0106 13.4505 96.1148 13.2734C96.2215 13.0964 96.2749 12.8763 96.2749 12.6133C96.2749 12.3477 96.2215 12.1237 96.1148 11.9414C96.0106 11.7591 95.8504 11.6211 95.6343 11.5273C95.4208 11.431 95.1512 11.3828 94.8257 11.3828H93.6851V18H91.9937ZM96.314 14.3594L98.3023 18H96.4351L94.4898 14.3594H96.314Z" fill="#222222"/>
</g>
<defs>
<filter id="filter0_dd_682_67809" x="0.814636" y="0.907318" width="107.371" height="29.4634" filterUnits="userSpaceOnUse" color-interpolation-filters="sRGB">
<feFlood flood-opacity="0" result="BackgroundImageFix"/>
<feColorMatrix in="SourceAlpha" type="matrix" values="0 0 0 0 0 0 0 0 0 0 0 0 0 0 0 0 0 0 127 0" result="hardAlpha"/>
<feOffset dy="2.18536"/>
<feGaussianBlur stdDeviation="1.09268"/>
<feColorMatrix type="matrix" values="0 0 0 0 0 0 0 0 0 0 0 0 0 0 0 0 0 0 0.12 0"/>
<feBlend mode="normal" in2="BackgroundImageFix" result="effect1_dropShadow_682_67809"/>
<feColorMatrix in="SourceAlpha" type="matrix" values="0 0 0 0 0 0 0 0 0 0 0 0 0 0 0 0 0 0 127 0" result="hardAlpha"/>
<feOffset/>
<feGaussianBlur stdDeviation="0.546341"/>
<feColorMatrix type="matrix" values="0 0 0 0 0 0 0 0 0 0 0 0 0 0 0 0 0 0 0.08 0"/>
<feBlend mode="normal" in2="effect1_dropShadow_682_67809" result="effect2_dropShadow_682_67809"/>
<feBlend mode="normal" in="SourceGraphic" in2="effect2_dropShadow_682_67809" result="shape"/>
</filter>
<clipPath id="clip0_682_67809">
<rect width="18" height="18" fill="white" transform="translate(10 5)"/>
</clipPath>
</defs>
</svg>
