<svg width="102" height="31" viewBox="0 0 102 31" fill="none" xmlns="http://www.w3.org/2000/svg">
<g filter="url(#filter0_dd_1506_46163)">
<rect x="5" y="4" width="92" height="20" rx="4" fill="#FFD600"/>
<g clip-path="url(#clip0_1506_46163)">
<path d="M22.625 15.5C22.625 18.6481 20.1477 21.125 16.9996 21.125C13.8515 21.125 11.375 18.6481 11.375 15.5C11.375 12.3519 16.4296 9.725 15.8596 6.875C17 6.875 22.625 10.9404 22.625 15.5Z" fill="#DD2C00"/>
<path d="M20.375 17C20.375 14.1504 17 11.375 17 11.375C17 13.655 13.625 14.7204 13.625 17C13.625 18.8885 15.1111 20.375 17 20.375C18.8889 20.375 20.375 18.8885 20.375 17Z" fill="#FF5722"/>
<path d="M15.1211 18.2773C15.1215 17 16.9965 16.2691 16.9965 15.125C16.9965 15.125 18.8711 16.562 18.8711 18.2773C18.8711 19.2241 18.0322 19.9925 16.9961 19.9925C15.96 19.9925 15.1207 19.2245 15.1211 18.2773H15.1211Z" fill="#FFC107"/>
</g>
<path d="M28.6953 18.5V10.5H34.0859V11.8945H30.3867V13.8008H33.8086V15.1953H30.3867V17.1055H34.1016V18.5H28.6953ZM37.2366 10.5L38.8499 13.2266H38.9124L40.5335 10.5H42.4436L40.0022 14.5L42.4983 18.5H40.553L38.9124 15.7695H38.8499L37.2093 18.5H35.2718L37.7757 14.5L35.3186 10.5H37.2366ZM50.4166 13.3008H48.7056C48.6744 13.0794 48.6106 12.8828 48.5142 12.7109C48.4179 12.5365 48.2942 12.388 48.1431 12.2656C47.9921 12.1432 47.8176 12.0495 47.6197 11.9844C47.4244 11.9193 47.2121 11.8867 46.983 11.8867C46.5689 11.8867 46.2082 11.9896 45.9009 12.1953C45.5936 12.3984 45.3554 12.6953 45.1861 13.0859C45.0168 13.474 44.9322 13.9453 44.9322 14.5C44.9322 15.0703 45.0168 15.5495 45.1861 15.9375C45.358 16.3255 45.5976 16.6185 45.9048 16.8164C46.2121 17.0143 46.5676 17.1133 46.9712 17.1133C47.1978 17.1133 47.4074 17.0833 47.6002 17.0234C47.7955 16.9635 47.9686 16.8763 48.1197 16.7617C48.2707 16.6445 48.3957 16.5026 48.4947 16.3359C48.5962 16.1693 48.6666 15.9792 48.7056 15.7656L50.4166 15.7734C50.3723 16.1406 50.2616 16.4948 50.0845 16.8359C49.9101 17.1745 49.6744 17.4779 49.3775 17.7461C49.0832 18.0117 48.7317 18.2227 48.3228 18.3789C47.9166 18.5326 47.4569 18.6094 46.9439 18.6094C46.2304 18.6094 45.5923 18.4479 45.0298 18.125C44.4699 17.8021 44.0272 17.3346 43.7017 16.7227C43.3788 16.1107 43.2173 15.3698 43.2173 14.5C43.2173 13.6276 43.3814 12.8854 43.7095 12.2734C44.0377 11.6615 44.483 11.1953 45.0455 10.875C45.608 10.5521 46.2408 10.3906 46.9439 10.3906C47.4074 10.3906 47.8371 10.4557 48.233 10.5859C48.6314 10.7161 48.9843 10.9062 49.2916 11.1562C49.5989 11.4036 49.8489 11.707 50.0416 12.0664C50.2369 12.4258 50.3619 12.8372 50.4166 13.3008ZM51.8495 18.5V10.5H53.5409V17.1055H56.9705V18.5H51.8495ZM63.2521 10.5H64.9435V15.6953C64.9435 16.2786 64.8042 16.7891 64.5255 17.2266C64.2495 17.6641 63.8627 18.0052 63.3654 18.25C62.868 18.4922 62.2885 18.6133 61.6271 18.6133C60.963 18.6133 60.3823 18.4922 59.8849 18.25C59.3875 18.0052 59.0008 17.6641 58.7247 17.2266C58.4487 16.7891 58.3107 16.2786 58.3107 15.6953V10.5H60.0021V15.5508C60.0021 15.8555 60.0685 16.1263 60.2013 16.3633C60.3367 16.6003 60.5268 16.7865 60.7716 16.9219C61.0164 17.0573 61.3015 17.125 61.6271 17.125C61.9552 17.125 62.2404 17.0573 62.4825 16.9219C62.7273 16.7865 62.9161 16.6003 63.0489 16.3633C63.1844 16.1263 63.2521 15.8555 63.2521 15.5508V10.5ZM70.8949 12.8008C70.8637 12.4857 70.7296 12.2409 70.4926 12.0664C70.2556 11.8919 69.934 11.8047 69.5277 11.8047C69.2517 11.8047 69.0186 11.8437 68.8285 11.9219C68.6384 11.9974 68.4926 12.1029 68.391 12.2383C68.2921 12.3737 68.2426 12.5273 68.2426 12.6992C68.2374 12.8424 68.2673 12.9674 68.3324 13.0742C68.4001 13.181 68.4926 13.2734 68.6098 13.3516C68.727 13.4271 68.8624 13.4935 69.016 13.5508C69.1697 13.6055 69.3337 13.6523 69.5082 13.6914L70.227 13.8633C70.5759 13.9414 70.8962 14.0456 71.1879 14.1758C71.4796 14.306 71.7322 14.4661 71.9457 14.6562C72.1592 14.8464 72.3246 15.0703 72.4418 15.3281C72.5616 15.5859 72.6228 15.8815 72.6254 16.2148C72.6228 16.7044 72.4978 17.1289 72.2504 17.4883C72.0056 17.8451 71.6514 18.1224 71.1879 18.3203C70.727 18.5156 70.171 18.6133 69.5199 18.6133C68.8741 18.6133 68.3116 18.5143 67.8324 18.3164C67.3559 18.1185 66.9835 17.8255 66.7152 17.4375C66.4496 17.0469 66.3103 16.5638 66.2973 15.9883H67.934C67.9522 16.2565 68.029 16.4805 68.1645 16.6602C68.3025 16.8372 68.4861 16.9714 68.7152 17.0625C68.947 17.151 69.2087 17.1953 69.5004 17.1953C69.7868 17.1953 70.0355 17.1536 70.2465 17.0703C70.46 16.987 70.6254 16.8711 70.7426 16.7227C70.8598 16.5742 70.9184 16.4036 70.9184 16.2109C70.9184 16.0312 70.865 15.8802 70.7582 15.7578C70.654 15.6354 70.5004 15.5312 70.2973 15.4453C70.0967 15.3594 69.8506 15.2812 69.559 15.2109L68.6879 14.9922C68.0134 14.8281 67.4809 14.5716 67.0902 14.2227C66.6996 13.8737 66.5056 13.4036 66.5082 12.8125C66.5056 12.3281 66.6345 11.9049 66.8949 11.543C67.1579 11.181 67.5186 10.8984 67.977 10.6953C68.4353 10.4922 68.9561 10.3906 69.5395 10.3906C70.1332 10.3906 70.6514 10.4922 71.0941 10.6953C71.5395 10.8984 71.8858 11.181 72.1332 11.543C72.3806 11.9049 72.5082 12.3242 72.516 12.8008H70.8949ZM75.6745 10.5V18.5H73.9831V10.5H75.6745ZM78.7314 10.5L80.665 16.5781H80.7392L82.6767 10.5H84.5517L81.7939 18.5H79.6142L76.8525 10.5H78.7314ZM85.7346 18.5V10.5H91.1252V11.8945H87.426V13.8008H90.8479V15.1953H87.426V17.1055H91.1409V18.5H85.7346Z" fill="#222222"/>
<rect x="4" y="3" width="94" height="22" rx="5" stroke="white" stroke-width="2"/>
</g>
<defs>
<filter id="filter0_dd_1506_46163" x="0.814636" y="0.907318" width="100.371" height="29.4634" filterUnits="userSpaceOnUse" color-interpolation-filters="sRGB">
<feFlood flood-opacity="0" result="BackgroundImageFix"/>
<feColorMatrix in="SourceAlpha" type="matrix" values="0 0 0 0 0 0 0 0 0 0 0 0 0 0 0 0 0 0 127 0" result="hardAlpha"/>
<feOffset dy="2.18536"/>
<feGaussianBlur stdDeviation="1.09268"/>
<feColorMatrix type="matrix" values="0 0 0 0 0 0 0 0 0 0 0 0 0 0 0 0 0 0 0.12 0"/>
<feBlend mode="normal" in2="BackgroundImageFix" result="effect1_dropShadow_1506_46163"/>
<feColorMatrix in="SourceAlpha" type="matrix" values="0 0 0 0 0 0 0 0 0 0 0 0 0 0 0 0 0 0 127 0" result="hardAlpha"/>
<feOffset/>
<feGaussianBlur stdDeviation="0.546341"/>
<feColorMatrix type="matrix" values="0 0 0 0 0 0 0 0 0 0 0 0 0 0 0 0 0 0 0.08 0"/>
<feBlend mode="normal" in2="effect1_dropShadow_1506_46163" result="effect2_dropShadow_1506_46163"/>
<feBlend mode="normal" in="SourceGraphic" in2="effect2_dropShadow_1506_46163" result="shape"/>
</filter>
<clipPath id="clip0_1506_46163">
<rect width="18" height="18" fill="white" transform="translate(8 5)"/>
</clipPath>
</defs>
</svg>
