<svg width="91" height="31" viewBox="0 0 91 31" fill="none" xmlns="http://www.w3.org/2000/svg">
<g filter="url(#filter0_dd_1324_72612)">
<rect x="5" y="4" width="81" height="20" rx="4" fill="#FFD600"/>
<path d="M12.4961 18.5L10.207 10.5H12.0547L13.3789 16.0586H13.4453L14.9063 10.5H16.4883L17.9453 16.0703H18.0156L19.3398 10.5H21.1875L18.8984 18.5H17.25L15.7266 13.2695H15.6641L14.1445 18.5H12.4961ZM22.3128 18.5V10.5H25.469C26.0732 10.5 26.5888 10.6081 27.0159 10.8242C27.4456 11.0378 27.7724 11.3411 27.9964 11.7344C28.2229 12.125 28.3362 12.5846 28.3362 13.1133C28.3362 13.6445 28.2216 14.1016 27.9925 14.4844C27.7633 14.8646 27.4313 15.1562 26.9964 15.3594C26.5641 15.5625 26.0406 15.6641 25.4261 15.6641H23.3128V14.3047H25.1526C25.4755 14.3047 25.7438 14.2604 25.9573 14.1719C26.1708 14.0833 26.3297 13.9505 26.4339 13.7734C26.5406 13.5964 26.594 13.3763 26.594 13.1133C26.594 12.8477 26.5406 12.6237 26.4339 12.4414C26.3297 12.2591 26.1695 12.1211 25.9534 12.0273C25.7399 11.931 25.4703 11.8828 25.1448 11.8828H24.0042V18.5H22.3128ZM26.6331 14.8594L28.6214 18.5H26.7542L24.8089 14.8594H26.6331ZM31.4429 10.5V18.5H29.7515V10.5H31.4429ZM32.7498 11.8945V10.5H39.3202V11.8945H36.8709V18.5H35.1991V11.8945H32.7498ZM40.3175 11.8945V10.5H46.8878V11.8945H44.4386V18.5H42.7667V11.8945H40.3175ZM48.1898 18.5V10.5H53.5805V11.8945H49.8812V13.8008H53.3031V15.1953H49.8812V17.1055H53.5961V18.5H48.1898ZM61.8366 10.5V18.5H60.3757L56.8952 13.4648H56.8366V18.5H55.1452V10.5H56.6296L60.0827 15.5312H60.153V10.5H61.8366ZM66.22 18.5V10.5H69.4231C70.0116 10.5 70.5025 10.5872 70.8957 10.7617C71.289 10.9362 71.5845 11.1784 71.7825 11.4883C71.9804 11.7956 72.0793 12.1497 72.0793 12.5508C72.0793 12.8633 72.0168 13.138 71.8918 13.375C71.7668 13.6094 71.595 13.8021 71.3762 13.9531C71.1601 14.1016 70.9127 14.207 70.634 14.2695V14.3477C70.9387 14.3607 71.2239 14.4466 71.4895 14.6055C71.7577 14.7643 71.9752 14.987 72.1418 15.2734C72.3085 15.5573 72.3918 15.8958 72.3918 16.2891C72.3918 16.7135 72.2864 17.0924 72.0754 17.4258C71.8671 17.7565 71.5585 18.0182 71.1496 18.2109C70.7408 18.4036 70.2369 18.5 69.6379 18.5H66.22ZM67.9114 17.1172H69.2903C69.7616 17.1172 70.1054 17.0273 70.3215 16.8477C70.5377 16.6654 70.6457 16.4232 70.6457 16.1211C70.6457 15.8997 70.5924 15.7044 70.4856 15.5352C70.3788 15.3659 70.2265 15.2331 70.0286 15.1367C69.8332 15.0404 69.6002 14.9922 69.3293 14.9922H67.9114V17.1172ZM67.9114 13.8477H69.1653C69.397 13.8477 69.6028 13.8073 69.7825 13.7266C69.9648 13.6432 70.108 13.526 70.2121 13.375C70.3189 13.224 70.3723 13.043 70.3723 12.832C70.3723 12.543 70.2694 12.3099 70.0637 12.1328C69.8606 11.9557 69.5715 11.8672 69.1965 11.8672H67.9114V13.8477ZM73.2437 10.5H75.1382L76.9624 13.9453H77.0405L78.8648 10.5H80.7593L77.8413 15.6719V18.5H76.1616V15.6719L73.2437 10.5Z" fill="#222222"/>
<rect x="4" y="3" width="83" height="22" rx="5" stroke="white" stroke-width="2"/>
</g>
<defs>
<filter id="filter0_dd_1324_72612" x="0.814636" y="0.907318" width="89.3707" height="29.4634" filterUnits="userSpaceOnUse" color-interpolation-filters="sRGB">
<feFlood flood-opacity="0" result="BackgroundImageFix"/>
<feColorMatrix in="SourceAlpha" type="matrix" values="0 0 0 0 0 0 0 0 0 0 0 0 0 0 0 0 0 0 127 0" result="hardAlpha"/>
<feOffset dy="2.18536"/>
<feGaussianBlur stdDeviation="1.09268"/>
<feColorMatrix type="matrix" values="0 0 0 0 0 0 0 0 0 0 0 0 0 0 0 0 0 0 0.12 0"/>
<feBlend mode="normal" in2="BackgroundImageFix" result="effect1_dropShadow_1324_72612"/>
<feColorMatrix in="SourceAlpha" type="matrix" values="0 0 0 0 0 0 0 0 0 0 0 0 0 0 0 0 0 0 127 0" result="hardAlpha"/>
<feOffset/>
<feGaussianBlur stdDeviation="0.546341"/>
<feColorMatrix type="matrix" values="0 0 0 0 0 0 0 0 0 0 0 0 0 0 0 0 0 0 0.08 0"/>
<feBlend mode="normal" in2="effect1_dropShadow_1324_72612" result="effect2_dropShadow_1324_72612"/>
<feBlend mode="normal" in="SourceGraphic" in2="effect2_dropShadow_1324_72612" result="shape"/>
</filter>
</defs>
</svg>
