<svg width="211" height="31" viewBox="0 0 211 31" fill="none" xmlns="http://www.w3.org/2000/svg">
<g filter="url(#filter0_dd_1304_80732)">
<rect x="5" y="4" width="200.999" height="19.9994" rx="4" fill="#FFD600"/>
<g clip-path="url(#clip0_1304_80732)">
<rect x="7.19922" y="7" width="19.5991" height="13.9994" rx="1.39695" fill="white"/>
<mask id="mask0_1304_80732" style="mask-type:alpha" maskUnits="userSpaceOnUse" x="7" y="7" width="20" height="14">
<rect x="7.19922" y="7" width="19.5991" height="13.9994" rx="1.39695" fill="white"/>
</mask>
<g mask="url(#mask0_1304_80732)">
<rect x="7.19922" y="7" width="19.5991" height="13.9994" fill="#0A17A7"/>
<path fill-rule="evenodd" clip-rule="evenodd" d="M6.30436 5.66016L14.6672 11.3009V6.06942H19.3336V11.3021L27.698 5.66028L28.7418 7.20774L22.1275 11.6692H26.7999V16.3356H22.1314L28.7426 20.795L27.6988 22.3424L19.3336 16.7V21.9354H14.6672V16.7012L6.30354 22.3425L5.25977 20.7951L11.8712 16.3356H7.20084V11.6692H11.8751L5.26058 7.20762L6.30436 5.66016Z" fill="white"/>
<path d="M20.2676 11.4338L29.1329 5.60156" stroke="#F0284A" stroke-width="0.46565" stroke-linecap="round"/>
<path d="M21.207 16.5866L29.1544 21.9434" stroke="#F0284A" stroke-width="0.46565" stroke-linecap="round"/>
<path d="M12.8034 11.4168L4.51367 5.83008" stroke="#F0284A" stroke-width="0.46565" stroke-linecap="round"/>
<path d="M13.7025 16.5236L4.51367 22.6172" stroke="#F0284A" stroke-width="0.46565" stroke-linecap="round"/>
<path fill-rule="evenodd" clip-rule="evenodd" d="M7.19922 15.3996H15.5988V20.9994H18.3987V15.3996H26.7983V12.5997H18.3987V7H15.5988V12.5997H7.19922V15.3996Z" fill="#E6273E"/>
</g>
</g>
<path d="M33.6953 18L35.0078 10H36.2578L34.9453 18H33.6953ZM30.1133 16.0156L30.3203 14.7656H36.5703L36.3633 16.0156H30.1133ZM30.8828 18L32.1953 10H33.4453L32.1328 18H30.8828ZM30.5703 13.2344L30.7812 11.9844H37.0313L36.8203 13.2344H30.5703ZM41.4925 10V18H39.8011V11.6055H39.7542L37.9221 12.7539V11.2539L39.9026 10H41.4925ZM46.4266 18V10H49.6297C50.2183 10 50.7092 10.0872 51.1024 10.2617C51.4956 10.4362 51.7912 10.6784 51.9891 10.9883C52.187 11.2956 52.286 11.6497 52.286 12.0508C52.286 12.3633 52.2235 12.638 52.0985 12.875C51.9735 13.1094 51.8016 13.3021 51.5829 13.4531C51.3667 13.6016 51.1193 13.707 50.8407 13.7695V13.8477C51.1454 13.8607 51.4305 13.9466 51.6961 14.1055C51.9644 14.2643 52.1818 14.487 52.3485 14.7734C52.5151 15.0573 52.5985 15.3958 52.5985 15.7891C52.5985 16.2135 52.493 16.5924 52.2821 16.9258C52.0737 17.2565 51.7651 17.5182 51.3563 17.7109C50.9474 17.9036 50.4435 18 49.8446 18H46.4266ZM48.118 16.6172H49.4969C49.9683 16.6172 50.312 16.5273 50.5282 16.3477C50.7443 16.1654 50.8524 15.9232 50.8524 15.6211C50.8524 15.3997 50.799 15.2044 50.6922 15.0352C50.5855 14.8659 50.4331 14.7331 50.2352 14.6367C50.0399 14.5404 49.8068 14.4922 49.536 14.4922H48.118V16.6172ZM48.118 13.3477H49.3719C49.6037 13.3477 49.8094 13.3073 49.9891 13.2266C50.1714 13.1432 50.3146 13.026 50.4188 12.875C50.5256 12.724 50.5789 12.543 50.5789 12.332C50.5789 12.043 50.4761 11.8099 50.2704 11.6328C50.0672 11.4557 49.7782 11.3672 49.4032 11.3672H48.118V13.3477ZM53.9191 18V10H59.3097V11.3945H55.6105V13.3008H59.0323V14.6953H55.6105V16.6055H59.3253V18H53.9191ZM65.2143 12.3008C65.183 11.9857 65.0489 11.7409 64.8119 11.5664C64.5749 11.3919 64.2533 11.3047 63.8471 11.3047C63.571 11.3047 63.338 11.3437 63.1479 11.4219C62.9577 11.4974 62.8119 11.6029 62.7104 11.7383C62.6114 11.8737 62.5619 12.0273 62.5619 12.1992C62.5567 12.3424 62.5867 12.4674 62.6518 12.5742C62.7195 12.681 62.8119 12.7734 62.9291 12.8516C63.0463 12.9271 63.1817 12.9935 63.3354 13.0508C63.489 13.1055 63.6531 13.1523 63.8275 13.1914L64.5463 13.3633C64.8952 13.4414 65.2156 13.5456 65.5072 13.6758C65.7989 13.806 66.0515 13.9661 66.265 14.1562C66.4786 14.3464 66.6439 14.5703 66.7611 14.8281C66.8809 15.0859 66.9421 15.3815 66.9447 15.7148C66.9421 16.2044 66.8171 16.6289 66.5697 16.9883C66.3249 17.3451 65.9708 17.6224 65.5072 17.8203C65.0463 18.0156 64.4903 18.1133 63.8393 18.1133C63.1934 18.1133 62.6309 18.0143 62.1518 17.8164C61.6752 17.6185 61.3028 17.3255 61.0346 16.9375C60.7689 16.5469 60.6296 16.0638 60.6166 15.4883H62.2533C62.2715 15.7565 62.3484 15.9805 62.4838 16.1602C62.6218 16.3372 62.8054 16.4714 63.0346 16.5625C63.2663 16.651 63.5281 16.6953 63.8197 16.6953C64.1062 16.6953 64.3549 16.6536 64.5658 16.5703C64.7794 16.487 64.9447 16.3711 65.0619 16.2227C65.1791 16.0742 65.2377 15.9036 65.2377 15.7109C65.2377 15.5312 65.1843 15.3802 65.0775 15.2578C64.9734 15.1354 64.8197 15.0312 64.6166 14.9453C64.4161 14.8594 64.17 14.7812 63.8783 14.7109L63.0072 14.4922C62.3327 14.3281 61.8002 14.0716 61.4096 13.7227C61.0189 13.3737 60.8249 12.9036 60.8275 12.3125C60.8249 11.8281 60.9538 11.4049 61.2143 11.043C61.4773 10.681 61.838 10.3984 62.2963 10.1953C62.7546 9.99219 63.2755 9.89062 63.8588 9.89062C64.4525 9.89062 64.9708 9.99219 65.4135 10.1953C65.8588 10.3984 66.2051 10.681 66.4525 11.043C66.6999 11.4049 66.8275 11.8242 66.8354 12.3008H65.2143ZM67.9977 11.3945V10H74.568V11.3945H72.1188V18H70.447V11.3945H67.9977ZM85.9875 14C85.9875 14.8724 85.8222 15.6146 85.4914 16.2266C85.1633 16.8385 84.7154 17.306 84.1477 17.6289C83.5826 17.9492 82.9472 18.1094 82.2414 18.1094C81.5305 18.1094 80.8925 17.9479 80.3274 17.625C79.7623 17.3021 79.3157 16.8346 78.9875 16.2227C78.6594 15.6107 78.4953 14.8698 78.4953 14C78.4953 13.1276 78.6594 12.3854 78.9875 11.7734C79.3157 11.1615 79.7623 10.6953 80.3274 10.375C80.8925 10.0521 81.5305 9.89062 82.2414 9.89062C82.9472 9.89062 83.5826 10.0521 84.1477 10.375C84.7154 10.6953 85.1633 11.1615 85.4914 11.7734C85.8222 12.3854 85.9875 13.1276 85.9875 14ZM84.2727 14C84.2727 13.4349 84.1881 12.9583 84.0188 12.5703C83.8521 12.1823 83.6164 11.888 83.3118 11.6875C83.0071 11.487 82.6503 11.3867 82.2414 11.3867C81.8326 11.3867 81.4758 11.487 81.1711 11.6875C80.8664 11.888 80.6295 12.1823 80.4602 12.5703C80.2935 12.9583 80.2102 13.4349 80.2102 14C80.2102 14.5651 80.2935 15.0417 80.4602 15.4297C80.6295 15.8177 80.8664 16.112 81.1711 16.3125C81.4758 16.513 81.8326 16.6133 82.2414 16.6133C82.6503 16.6133 83.0071 16.513 83.3118 16.3125C83.6164 16.112 83.8521 15.8177 84.0188 15.4297C84.1881 15.0417 84.2727 14.5651 84.2727 14ZM94.1519 10V18H92.6909L89.2105 12.9648H89.1519V18H87.4605V10H88.9448L92.398 15.0312H92.4683V10H94.1519ZM95.7693 18V10H97.4607V16.6055H100.89V18H95.7693ZM103.922 10V18H102.231V10H103.922ZM112.225 10V18H110.764L107.284 12.9648H107.225V18H105.534V10H107.018L110.471 15.0312H110.541V10H112.225ZM113.842 18V10H119.233V11.3945H115.534V13.3008H118.956V14.6953H115.534V16.6055H119.249V18H113.842ZM130.622 12.8008H128.911C128.88 12.5794 128.816 12.3828 128.72 12.2109C128.624 12.0365 128.5 11.888 128.349 11.7656C128.198 11.6432 128.023 11.5495 127.825 11.4844C127.63 11.4193 127.418 11.3867 127.189 11.3867C126.775 11.3867 126.414 11.4896 126.107 11.6953C125.799 11.8984 125.561 12.1953 125.392 12.5859C125.223 12.974 125.138 13.4453 125.138 14C125.138 14.5703 125.223 15.0495 125.392 15.4375C125.564 15.8255 125.803 16.1185 126.111 16.3164C126.418 16.5143 126.773 16.6133 127.177 16.6133C127.404 16.6133 127.613 16.5833 127.806 16.5234C128.001 16.4635 128.174 16.3763 128.325 16.2617C128.476 16.1445 128.601 16.0026 128.7 15.8359C128.802 15.6693 128.872 15.4792 128.911 15.2656L130.622 15.2734C130.578 15.6406 130.467 15.9948 130.29 16.3359C130.116 16.6745 129.88 16.9779 129.583 17.2461C129.289 17.5117 128.937 17.7227 128.529 17.8789C128.122 18.0326 127.663 18.1094 127.15 18.1094C126.436 18.1094 125.798 17.9479 125.236 17.625C124.676 17.3021 124.233 16.8346 123.907 16.2227C123.585 15.6107 123.423 14.8698 123.423 14C123.423 13.1276 123.587 12.3854 123.915 11.7734C124.243 11.1615 124.689 10.6953 125.251 10.375C125.814 10.0521 126.446 9.89062 127.15 9.89062C127.613 9.89062 128.043 9.95573 128.439 10.0859C128.837 10.2161 129.19 10.4062 129.497 10.6562C129.805 10.9036 130.055 11.207 130.247 11.5664C130.443 11.9258 130.568 12.3372 130.622 12.8008ZM133.284 18H131.471L134.233 10H136.413L139.17 18H137.358L135.354 11.8281H135.291L133.284 18ZM133.17 14.8555H137.452V16.1758H133.17V14.8555ZM144.511 12.3008C144.479 11.9857 144.345 11.7409 144.108 11.5664C143.871 11.3919 143.55 11.3047 143.143 11.3047C142.867 11.3047 142.634 11.3437 142.444 11.4219C142.254 11.4974 142.108 11.6029 142.007 11.7383C141.908 11.8737 141.858 12.0273 141.858 12.1992C141.853 12.3424 141.883 12.4674 141.948 12.5742C142.016 12.681 142.108 12.7734 142.225 12.8516C142.343 12.9271 142.478 12.9935 142.632 13.0508C142.785 13.1055 142.949 13.1523 143.124 13.1914L143.843 13.3633C144.191 13.4414 144.512 13.5456 144.803 13.6758C145.095 13.806 145.348 13.9661 145.561 14.1562C145.775 14.3464 145.94 14.5703 146.057 14.8281C146.177 15.0859 146.238 15.3815 146.241 15.7148C146.238 16.2044 146.113 16.6289 145.866 16.9883C145.621 17.3451 145.267 17.6224 144.803 17.8203C144.343 18.0156 143.787 18.1133 143.136 18.1133C142.49 18.1133 141.927 18.0143 141.448 17.8164C140.971 17.6185 140.599 17.3255 140.331 16.9375C140.065 16.5469 139.926 16.0638 139.913 15.4883H141.55C141.568 15.7565 141.645 15.9805 141.78 16.1602C141.918 16.3372 142.102 16.4714 142.331 16.5625C142.563 16.651 142.824 16.6953 143.116 16.6953C143.402 16.6953 143.651 16.6536 143.862 16.5703C144.076 16.487 144.241 16.3711 144.358 16.2227C144.475 16.0742 144.534 15.9036 144.534 15.7109C144.534 15.5312 144.481 15.3802 144.374 15.2578C144.27 15.1354 144.116 15.0312 143.913 14.9453C143.712 14.8594 143.466 14.7812 143.175 14.7109L142.303 14.4922C141.629 14.3281 141.096 14.0716 140.706 13.7227C140.315 13.3737 140.121 12.9036 140.124 12.3125C140.121 11.8281 140.25 11.4049 140.511 11.043C140.774 10.681 141.134 10.3984 141.593 10.1953C142.051 9.99219 142.572 9.89062 143.155 9.89062C143.749 9.89062 144.267 9.99219 144.71 10.1953C145.155 10.3984 145.501 10.681 145.749 11.043C145.996 11.4049 146.124 11.8242 146.132 12.3008H144.511ZM149.29 10V18H147.599V10H149.29ZM157.593 10V18H156.132L152.652 12.9648H152.593V18H150.902V10H152.386L155.839 15.0312H155.909V10H157.593ZM166.562 14C166.562 14.8724 166.397 15.6146 166.066 16.2266C165.738 16.8385 165.29 17.306 164.722 17.6289C164.157 17.9492 163.522 18.1094 162.816 18.1094C162.105 18.1094 161.467 17.9479 160.902 17.625C160.337 17.3021 159.89 16.8346 159.562 16.2227C159.234 15.6107 159.07 14.8698 159.07 14C159.07 13.1276 159.234 12.3854 159.562 11.7734C159.89 11.1615 160.337 10.6953 160.902 10.375C161.467 10.0521 162.105 9.89062 162.816 9.89062C163.522 9.89062 164.157 10.0521 164.722 10.375C165.29 10.6953 165.738 11.1615 166.066 11.7734C166.397 12.3854 166.562 13.1276 166.562 14ZM164.847 14C164.847 13.4349 164.763 12.9583 164.593 12.5703C164.427 12.1823 164.191 11.888 163.886 11.6875C163.582 11.487 163.225 11.3867 162.816 11.3867C162.407 11.3867 162.05 11.487 161.746 11.6875C161.441 11.888 161.204 12.1823 161.035 12.5703C160.868 12.9583 160.785 13.4349 160.785 14C160.785 14.5651 160.868 15.0417 161.035 15.4297C161.204 15.8177 161.441 16.112 161.746 16.3125C162.05 16.513 162.407 16.6133 162.816 16.6133C163.225 16.6133 163.582 16.513 163.886 16.3125C164.191 16.112 164.427 15.8177 164.593 15.4297C164.763 15.0417 164.847 14.5651 164.847 14ZM172.492 10V18H170.801V10H172.492ZM180.795 10V18H179.334L175.854 12.9648H175.795V18H174.104V10H175.588L179.041 15.0312H179.112V10H180.795ZM190.12 10H191.812V15.1953C191.812 15.7786 191.672 16.2891 191.394 16.7266C191.118 17.1641 190.731 17.5052 190.233 17.75C189.736 17.9922 189.157 18.1133 188.495 18.1133C187.831 18.1133 187.25 17.9922 186.753 17.75C186.256 17.5052 185.869 17.1641 185.593 16.7266C185.317 16.2891 185.179 15.7786 185.179 15.1953V10H186.87V15.0508C186.87 15.3555 186.937 15.6263 187.069 15.8633C187.205 16.1003 187.395 16.2865 187.64 16.4219C187.884 16.5573 188.17 16.625 188.495 16.625C188.823 16.625 189.108 16.5573 189.351 16.4219C189.595 16.2865 189.784 16.1003 189.917 15.8633C190.052 15.6263 190.12 15.3555 190.12 15.0508V10ZM193.423 18V10H195.115V13.5273H195.22L198.099 10H200.126L197.158 13.582L200.161 18H198.138L195.947 14.7109L195.115 15.7266V18H193.423Z" fill="#222222"/>
<rect x="4" y="3" width="202.999" height="21.9994" rx="5" stroke="white" stroke-width="2"/>
</g>
<defs>
<filter id="filter0_dd_1304_80732" x="0.814636" y="0.907318" width="209.371" height="29.4634" filterUnits="userSpaceOnUse" color-interpolation-filters="sRGB">
<feFlood flood-opacity="0" result="BackgroundImageFix"/>
<feColorMatrix in="SourceAlpha" type="matrix" values="0 0 0 0 0 0 0 0 0 0 0 0 0 0 0 0 0 0 127 0" result="hardAlpha"/>
<feOffset dy="2.18536"/>
<feGaussianBlur stdDeviation="1.09268"/>
<feColorMatrix type="matrix" values="0 0 0 0 0 0 0 0 0 0 0 0 0 0 0 0 0 0 0.12 0"/>
<feBlend mode="normal" in2="BackgroundImageFix" result="effect1_dropShadow_1304_80732"/>
<feColorMatrix in="SourceAlpha" type="matrix" values="0 0 0 0 0 0 0 0 0 0 0 0 0 0 0 0 0 0 127 0" result="hardAlpha"/>
<feOffset/>
<feGaussianBlur stdDeviation="0.546341"/>
<feColorMatrix type="matrix" values="0 0 0 0 0 0 0 0 0 0 0 0 0 0 0 0 0 0 0.08 0"/>
<feBlend mode="normal" in2="effect1_dropShadow_1304_80732" result="effect2_dropShadow_1304_80732"/>
<feBlend mode="normal" in="SourceGraphic" in2="effect2_dropShadow_1304_80732" result="shape"/>
</filter>
<clipPath id="clip0_1304_80732">
<rect x="10" y="7" width="13.9994" height="13.9994" rx="6.99968" fill="white"/>
</clipPath>
</defs>
</svg>
