<svg width="22" height="22" viewBox="0 0 22 22" fill="none" xmlns="http://www.w3.org/2000/svg">
<path d="M11 0C4.94857 0 0 4.94857 0 11C0 17.0514 4.94857 22 11 22C17.0514 22 22 17.0514 22 11C22 4.94857 17.0514 0 11 0ZM11 1.08854C11.5514 1.08854 12.11 1.19596 12.6615 1.28906V3.58073C12.11 3.48763 11.5514 3.38021 11 3.38021C10.4486 3.38021 9.88997 3.48763 9.33854 3.58073V1.28906C9.88997 1.19596 10.4486 1.08854 11 1.08854ZM11 4.58333C14.5736 4.58333 17.4167 7.42643 17.4167 11C17.4167 14.5736 14.5736 17.4167 11 17.4167C7.42643 17.4167 4.58333 14.5736 4.58333 11C4.58333 7.42643 7.42643 4.58333 11 4.58333ZM3.38021 4.66927L5.41406 5.78646C4.59049 6.61003 4.0319 7.60905 3.66667 8.70833L1.74739 7.61979C2.11263 6.52051 2.64616 5.49284 3.38021 4.66927ZM18.6198 4.66927C19.3538 5.49284 19.8874 6.52051 20.2526 7.61979L18.3333 8.70833C17.9681 7.60905 17.4059 6.61003 16.6719 5.78646L18.6198 4.66927ZM3.66667 13.2917C4.0319 14.391 4.59408 15.39 5.32812 16.2135L3.38021 17.3307C2.64616 16.5072 2.11263 15.4795 1.74739 14.3802L3.66667 13.2917ZM18.2474 13.2917L20.1667 14.3802C19.891 15.4795 19.3538 16.5072 18.6198 17.3307L16.5859 16.2135C17.32 15.39 17.9717 14.391 18.2474 13.2917ZM9.33854 18.4193C9.88997 18.5124 10.4486 18.6198 11 18.6198C11.5514 18.6198 12.11 18.5124 12.6615 18.4193V20.7109C12.11 20.804 11.5514 20.9115 11 20.9115C10.4486 20.9115 9.88997 20.804 9.33854 20.7109V18.4193Z" fill="#222222"/>
<path d="M11.0239 6.95508C11.0239 6.95508 7.39453 8.95546 7.39453 11.4237C7.39453 12.4402 8.1927 13.2383 9.20919 13.2383C9.7465 13.2383 10.2172 12.9506 10.5475 12.6826C10.3107 13.3248 9.99602 14.0606 9.57212 14.6901C10.5518 14.5086 11.5314 14.5086 12.4756 14.6901C12.0715 14.0677 11.7497 13.3433 11.5115 12.7053C11.8405 12.9676 12.3125 13.2383 12.8385 13.2383C13.855 13.2383 14.6532 12.4402 14.6532 11.4237C14.6532 8.95546 11.0239 6.95508 11.0239 6.95508Z" fill="#222222"/>
</svg>
