<svg width="22" height="22" viewBox="0 0 22 22" fill="none" xmlns="http://www.w3.org/2000/svg">
<g clip-path="url(#clip0_882_48532)">
<path d="M11.2315 1.00031C10.2988 0.983029 9.39859 1.69635 9.1388 2.72944C8.80498 4.05242 9.47439 6.96342 9.83436 8.35101C8.77829 7.37878 6.52735 5.41431 5.2013 5.08203C4.01831 4.78436 2.80991 5.42224 2.54224 6.48216C2.42764 6.93828 2.49544 7.36133 2.66543 7.73207C2.81234 8.05358 2.73128 8.41123 2.45361 8.63044C2.1144 8.89811 1.84309 9.2609 1.74002 9.66702C1.47235 10.7285 2.23659 11.8601 3.41958 12.1578C4.74563 12.4909 7.65954 11.8222 9.04866 11.4623C8.07489 12.5153 6.10672 14.7648 5.77367 16.0878C5.47677 17.2685 6.11531 18.4747 7.17831 18.7409C7.5852 18.8432 8.03359 18.7764 8.42972 18.6041C8.75354 18.4634 9.10902 18.5608 9.32208 18.8415C9.56898 19.1669 9.91078 19.427 10.3677 19.5416C11.4314 19.8077 12.5638 19.0457 12.8615 17.865C13.1953 16.542 12.5259 13.631 12.1659 12.2434C13.2204 13.2157 15.4737 15.1809 16.799 15.5124C17.982 15.8093 19.1911 15.1722 19.458 14.1123C19.5603 13.7062 19.4921 13.2577 19.3198 12.8624C19.1783 12.5393 19.2764 12.1854 19.5587 11.9715C19.8848 11.7246 20.1441 11.3843 20.2587 10.9289C20.5264 9.86748 19.7637 8.73505 18.5807 8.43815C17.2546 8.10509 14.3392 8.77223 12.9501 9.1322C13.9239 8.07921 15.892 5.83113 16.2251 4.50816C16.522 3.32747 15.885 2.11974 14.822 1.85361C14.3651 1.739 13.9413 1.80758 13.5691 1.9768C13.2468 2.12371 12.8891 2.04187 12.6707 1.76497C12.403 1.42654 12.0395 1.15592 11.6326 1.05439C11.4998 1.02093 11.3647 1.00278 11.2315 1.00031L11.2315 1.00031ZM14.4464 16.0487C14.4887 16.5426 14.4957 16.9801 14.4734 17.3693C15.5857 18.7553 16.8553 20.0439 18.2036 20.8831C18.3298 20.9616 18.4693 20.9973 18.6077 20.9973C18.8646 20.9973 19.1174 20.8698 19.2627 20.6352C19.4873 20.2753 19.3756 19.8007 19.0149 19.5761C17.9842 18.9354 16.9915 17.9698 16.0824 16.896C15.604 16.7276 15.0602 16.4479 14.4464 16.0487V16.0487Z" fill="#222222"/>
</g>
<defs>
<clipPath id="clip0_882_48532">
<rect width="22" height="22" fill="white"/>
</clipPath>
</defs>
</svg>
