<svg width="22" height="22" viewBox="0 0 22 22" fill="none" xmlns="http://www.w3.org/2000/svg">
<g clip-path="url(#clip0_882_60263)">
<path d="M9.53463 1.4668C9.12963 1.4668 8.8013 1.79512 8.8013 2.20013C8.8013 5.9086 3.66797 8.80013 3.66797 13.9335C3.66797 17.8332 7.89453 20.3545 9.38281 20.5177C9.43273 20.5282 9.48362 20.5335 9.53464 20.5335C9.93964 20.5335 10.268 20.2051 10.268 19.8001C10.2679 19.5795 10.1684 19.3707 9.99727 19.2315C9.99727 19.231 9.99727 19.2306 9.99727 19.2301C9.32993 18.6889 8.06797 17.1188 8.06797 15.6852C8.06797 13.3319 10.268 12.4668 10.268 12.4668C9.01324 16.0161 13.1246 16.445 13.9518 19.9591H13.9533C14.0277 20.2943 14.3247 20.5329 14.668 20.5335C14.8224 20.5331 14.9728 20.484 15.0977 20.3931C15.1109 20.3835 15.1238 20.3735 15.1363 20.363C15.2557 20.2855 18.3346 18.2491 18.3346 13.9335C18.3346 12.1715 17.4534 9.14516 16.8193 7.80469C16.8187 7.80358 16.8184 7.80149 16.8178 7.80039C16.8174 7.79943 16.8169 7.79848 16.8164 7.79752C16.7059 7.5176 16.4356 7.3336 16.1346 7.33346C15.7813 7.3338 15.4784 7.5861 15.4142 7.93359C15.4142 7.93455 15.4142 7.9355 15.4142 7.93646C15.4124 7.94447 15.0756 9.44034 13.9346 10.2668C13.9346 6.8116 11.4401 3.24265 10.1247 1.76615C10.105 1.73941 10.0835 1.71405 10.0603 1.69023C9.92247 1.54778 9.73285 1.46718 9.53463 1.4668V1.4668Z" fill="#222222"/>
</g>
<defs>
<clipPath id="clip0_882_60263">
<rect width="22" height="22" fill="white"/>
</clipPath>
</defs>
</svg>
