<svg width="102" height="31" viewBox="0 0 102 31" fill="none" xmlns="http://www.w3.org/2000/svg">
<g filter="url(#filter0_dd_1304_72964)">
<rect x="5" y="4" width="92" height="20" rx="4" fill="#FFD600"/>
<g clip-path="url(#clip0_1304_72964)">
<path d="M22.625 15.5C22.625 18.6481 20.1477 21.125 16.9996 21.125C13.8515 21.125 11.375 18.6481 11.375 15.5C11.375 12.3519 16.4296 9.725 15.8596 6.875C17 6.875 22.625 10.9404 22.625 15.5Z" fill="#DD2C00"/>
<path d="M20.375 17C20.375 14.1504 17 11.375 17 11.375C17 13.655 13.625 14.7204 13.625 17C13.625 18.8885 15.1111 20.375 17 20.375C18.8889 20.375 20.375 18.8885 20.375 17Z" fill="#FF5722"/>
<path d="M15.1211 18.2773C15.1215 17 16.9965 16.2691 16.9965 15.125C16.9965 15.125 18.8711 16.562 18.8711 18.2773C18.8711 19.2241 18.0322 19.9925 16.9961 19.9925C15.96 19.9925 15.1207 19.2245 15.1211 18.2773H15.1211Z" fill="#FFC107"/>
</g>
<path d="M28.6953 18.5V10.5H31.8516C32.4583 10.5 32.9753 10.6159 33.4023 10.8477C33.8294 11.0768 34.1549 11.3958 34.3789 11.8047C34.6055 12.2109 34.7188 12.6797 34.7188 13.2109C34.7188 13.7422 34.6042 14.2109 34.375 14.6172C34.1458 15.0234 33.8138 15.3398 33.3789 15.5664C32.9466 15.793 32.4232 15.9062 31.8086 15.9062H29.7969V14.5508H31.5352C31.8607 14.5508 32.1289 14.4948 32.3398 14.3828C32.5534 14.2682 32.7122 14.1107 32.8164 13.9102C32.9232 13.707 32.9766 13.474 32.9766 13.2109C32.9766 12.9453 32.9232 12.7135 32.8164 12.5156C32.7122 12.3151 32.5534 12.1602 32.3398 12.0508C32.1263 11.9388 31.8555 11.8828 31.5273 11.8828H30.3867V18.5H28.6953ZM36.0374 18.5V10.5H37.7288V17.1055H41.1585V18.5H36.0374ZM44.0816 18.5H42.2691L45.0308 10.5H47.2105L49.9683 18.5H48.1558L46.1519 12.3281H46.0894L44.0816 18.5ZM43.9683 15.3555H48.2496V16.6758H43.9683V15.3555ZM49.8661 10.5H51.7606L53.5848 13.9453H53.6629L55.4871 10.5H57.3817L54.4637 15.6719V18.5H52.784V15.6719L49.8661 10.5ZM63.0922 18.5L60.8031 10.5H62.6508L63.975 16.0586H64.0414L65.5023 10.5H67.0844L68.5414 16.0703H68.6117L69.9359 10.5H71.7836L69.4945 18.5H67.8461L66.3227 13.2695H66.2602L64.7406 18.5H63.0922ZM74.6003 10.5V18.5H72.9089V10.5H74.6003ZM75.9072 11.8945V10.5H82.4775V11.8945H80.0283V18.5H78.3564V11.8945H75.9072ZM83.7795 18.5V10.5H85.4709V13.8008H88.9045V10.5H90.592V18.5H88.9045V15.1953H85.4709V18.5H83.7795Z" fill="#222222"/>
<rect x="4" y="3" width="94" height="22" rx="5" stroke="white" stroke-width="2"/>
</g>
<defs>
<filter id="filter0_dd_1304_72964" x="0.814636" y="0.907318" width="100.371" height="29.4634" filterUnits="userSpaceOnUse" color-interpolation-filters="sRGB">
<feFlood flood-opacity="0" result="BackgroundImageFix"/>
<feColorMatrix in="SourceAlpha" type="matrix" values="0 0 0 0 0 0 0 0 0 0 0 0 0 0 0 0 0 0 127 0" result="hardAlpha"/>
<feOffset dy="2.18536"/>
<feGaussianBlur stdDeviation="1.09268"/>
<feColorMatrix type="matrix" values="0 0 0 0 0 0 0 0 0 0 0 0 0 0 0 0 0 0 0.12 0"/>
<feBlend mode="normal" in2="BackgroundImageFix" result="effect1_dropShadow_1304_72964"/>
<feColorMatrix in="SourceAlpha" type="matrix" values="0 0 0 0 0 0 0 0 0 0 0 0 0 0 0 0 0 0 127 0" result="hardAlpha"/>
<feOffset/>
<feGaussianBlur stdDeviation="0.546341"/>
<feColorMatrix type="matrix" values="0 0 0 0 0 0 0 0 0 0 0 0 0 0 0 0 0 0 0.08 0"/>
<feBlend mode="normal" in2="effect1_dropShadow_1304_72964" result="effect2_dropShadow_1304_72964"/>
<feBlend mode="normal" in="SourceGraphic" in2="effect2_dropShadow_1304_72964" result="shape"/>
</filter>
<clipPath id="clip0_1304_72964">
<rect width="18" height="18" fill="white" transform="translate(8 5)"/>
</clipPath>
</defs>
</svg>
