<svg width="130" height="31" viewBox="0 0 130 31" fill="none" xmlns="http://www.w3.org/2000/svg">
<g filter="url(#filter0_dd_1304_80730)">
<rect x="5" y="4" width="120" height="20" rx="4" fill="#FFD600"/>
<path d="M10.6953 18.5V10.5H13.8516C14.4557 10.5 14.9714 10.6081 15.3984 10.8242C15.8281 11.0378 16.1549 11.3411 16.3789 11.7344C16.6055 12.125 16.7188 12.5846 16.7188 13.1133C16.7188 13.6445 16.6042 14.1016 16.375 14.4844C16.1458 14.8646 15.8138 15.1562 15.3789 15.3594C14.9466 15.5625 14.4232 15.6641 13.8086 15.6641H11.6953V14.3047H13.5352C13.8581 14.3047 14.1263 14.2604 14.3398 14.1719C14.5534 14.0833 14.7122 13.9505 14.8164 13.7734C14.9232 13.5964 14.9766 13.3763 14.9766 13.1133C14.9766 12.8477 14.9232 12.6237 14.8164 12.4414C14.7122 12.2591 14.5521 12.1211 14.3359 12.0273C14.1224 11.931 13.8529 11.8828 13.5273 11.8828H12.3867V18.5H10.6953ZM15.0156 14.8594L17.0039 18.5H15.1367L13.1914 14.8594H15.0156ZM18.1341 18.5V10.5H23.5247V11.8945H19.8255V13.8008H23.2473V15.1953H19.8255V17.1055H23.5403V18.5H18.1341ZM32.148 13.3008H30.4371C30.4058 13.0794 30.342 12.8828 30.2457 12.7109C30.1493 12.5365 30.0256 12.388 29.8746 12.2656C29.7235 12.1432 29.549 12.0495 29.3511 11.9844C29.1558 11.9193 28.9436 11.8867 28.7144 11.8867C28.3004 11.8867 27.9397 11.9896 27.6324 12.1953C27.3251 12.3984 27.0868 12.6953 26.9175 13.0859C26.7483 13.474 26.6636 13.9453 26.6636 14.5C26.6636 15.0703 26.7483 15.5495 26.9175 15.9375C27.0894 16.3255 27.329 16.6185 27.6363 16.8164C27.9436 17.0143 28.299 17.1133 28.7027 17.1133C28.9293 17.1133 29.1389 17.0833 29.3316 17.0234C29.5269 16.9635 29.7001 16.8763 29.8511 16.7617C30.0022 16.6445 30.1272 16.5026 30.2261 16.3359C30.3277 16.1693 30.398 15.9792 30.4371 15.7656L32.148 15.7734C32.1037 16.1406 31.9931 16.4948 31.816 16.8359C31.6415 17.1745 31.4058 17.4779 31.1089 17.7461C30.8147 18.0117 30.4631 18.2227 30.0543 18.3789C29.648 18.5326 29.1884 18.6094 28.6754 18.6094C27.9618 18.6094 27.3238 18.4479 26.7613 18.125C26.2014 17.8021 25.7587 17.3346 25.4332 16.7227C25.1102 16.1107 24.9488 15.3698 24.9488 14.5C24.9488 13.6276 25.1129 12.8854 25.441 12.2734C25.7691 11.6615 26.2144 11.1953 26.7769 10.875C27.3394 10.5521 27.9722 10.3906 28.6754 10.3906C29.1389 10.3906 29.5686 10.4557 29.9644 10.5859C30.3629 10.7161 30.7157 10.9062 31.023 11.1562C31.3303 11.4036 31.5803 11.707 31.773 12.0664C31.9683 12.4258 32.0933 12.8372 32.148 13.3008ZM40.9325 14.5C40.9325 15.3724 40.7671 16.1146 40.4364 16.7266C40.1082 17.3385 39.6603 17.806 39.0926 18.1289C38.5275 18.4492 37.8921 18.6094 37.1864 18.6094C36.4754 18.6094 35.8374 18.4479 35.2723 18.125C34.7072 17.8021 34.2606 17.3346 33.9325 16.7227C33.6043 16.1107 33.4403 15.3698 33.4403 14.5C33.4403 13.6276 33.6043 12.8854 33.9325 12.2734C34.2606 11.6615 34.7072 11.1953 35.2723 10.875C35.8374 10.5521 36.4754 10.3906 37.1864 10.3906C37.8921 10.3906 38.5275 10.5521 39.0926 10.875C39.6603 11.1953 40.1082 11.6615 40.4364 12.2734C40.7671 12.8854 40.9325 13.6276 40.9325 14.5ZM39.2176 14.5C39.2176 13.9349 39.133 13.4583 38.9637 13.0703C38.797 12.6823 38.5614 12.388 38.2567 12.1875C37.952 11.987 37.5952 11.8867 37.1864 11.8867C36.7775 11.8867 36.4207 11.987 36.1161 12.1875C35.8114 12.388 35.5744 12.6823 35.4051 13.0703C35.2385 13.4583 35.1551 13.9349 35.1551 14.5C35.1551 15.0651 35.2385 15.5417 35.4051 15.9297C35.5744 16.3177 35.8114 16.612 36.1161 16.8125C36.4207 17.013 36.7775 17.1133 37.1864 17.1133C37.5952 17.1133 37.952 17.013 38.2567 16.8125C38.5614 16.612 38.797 16.3177 38.9637 15.9297C39.133 15.5417 39.2176 15.0651 39.2176 14.5ZM42.4054 10.5H44.4913L46.6945 15.875H46.7882L48.9913 10.5H51.0773V18.5H49.4366V13.293H49.3702L47.2999 18.4609H46.1827L44.1124 13.2734H44.046V18.5H42.4054V10.5ZM52.6908 10.5H54.7768L56.9799 15.875H57.0736L59.2768 10.5H61.3627V18.5H59.7221V13.293H59.6557L57.5854 18.4609H56.4682L54.3979 13.2734H54.3314V18.5H52.6908V10.5ZM62.9762 18.5V10.5H68.3669V11.8945H64.6677V13.8008H68.0895V15.1953H64.6677V17.1055H68.3825V18.5H62.9762ZM76.623 10.5V18.5H75.1621L71.6816 13.4648H71.623V18.5H69.9316V10.5H71.416L74.8691 15.5312H74.9394V10.5H76.623ZM81.0764 18.5H78.2405V10.5H81.0998C81.9045 10.5 82.5972 10.6602 83.178 10.9805C83.7587 11.2982 84.2053 11.7552 84.5178 12.3516C84.8329 12.9479 84.9905 13.6615 84.9905 14.4922C84.9905 15.3255 84.8329 16.0417 84.5178 16.6406C84.2053 17.2396 83.7561 17.6992 83.1702 18.0195C82.5868 18.3398 81.8889 18.5 81.0764 18.5ZM79.9319 17.0508H81.0061C81.5061 17.0508 81.9267 16.9622 82.2678 16.7852C82.6116 16.6055 82.8694 16.3281 83.0413 15.9531C83.2157 15.5755 83.303 15.0885 83.303 14.4922C83.303 13.901 83.2157 13.418 83.0413 13.043C82.8694 12.668 82.6129 12.3919 82.2717 12.2148C81.9306 12.0378 81.51 11.9492 81.01 11.9492H79.9319V17.0508ZM86.4634 18.5V10.5H91.854V11.8945H88.1548V13.8008H91.5767V15.1953H88.1548V17.1055H91.8697V18.5H86.4634ZM96.2547 18.5H93.4187V10.5H96.2781C97.0828 10.5 97.7755 10.6602 98.3562 10.9805C98.937 11.2982 99.3836 11.7552 99.6961 12.3516C100.011 12.9479 100.169 13.6615 100.169 14.4922C100.169 15.3255 100.011 16.0417 99.6961 16.6406C99.3836 17.2396 98.9344 17.6992 98.3484 18.0195C97.7651 18.3398 97.0672 18.5 96.2547 18.5ZM95.1102 17.0508H96.1844C96.6844 17.0508 97.1049 16.9622 97.4461 16.7852C97.7898 16.6055 98.0477 16.3281 98.2195 15.9531C98.394 15.5755 98.4812 15.0885 98.4812 14.4922C98.4812 13.901 98.394 13.418 98.2195 13.043C98.0477 12.668 97.7911 12.3919 97.45 12.2148C97.1089 12.0378 96.6883 11.9492 96.1883 11.9492H95.1102V17.0508ZM104.408 18.5V10.5H107.611C108.199 10.5 108.69 10.5872 109.083 10.7617C109.477 10.9362 109.772 11.1784 109.97 11.4883C110.168 11.7956 110.267 12.1497 110.267 12.5508C110.267 12.8633 110.204 13.138 110.079 13.375C109.954 13.6094 109.783 13.8021 109.564 13.9531C109.348 14.1016 109.1 14.207 108.822 14.2695V14.3477C109.126 14.3607 109.411 14.4466 109.677 14.6055C109.945 14.7643 110.163 14.987 110.329 15.2734C110.496 15.5573 110.579 15.8958 110.579 16.2891C110.579 16.7135 110.474 17.0924 110.263 17.4258C110.055 17.7565 109.746 18.0182 109.337 18.2109C108.928 18.4036 108.425 18.5 107.826 18.5H104.408ZM106.099 17.1172H107.478C107.949 17.1172 108.293 17.0273 108.509 16.8477C108.725 16.6654 108.833 16.4232 108.833 16.1211C108.833 15.8997 108.78 15.7044 108.673 15.5352C108.566 15.3659 108.414 15.2331 108.216 15.1367C108.021 15.0404 107.788 14.9922 107.517 14.9922H106.099V17.1172ZM106.099 13.8477H107.353C107.585 13.8477 107.79 13.8073 107.97 13.7266C108.152 13.6432 108.296 13.526 108.4 13.375C108.507 13.224 108.56 13.043 108.56 12.832C108.56 12.543 108.457 12.3099 108.251 12.1328C108.048 11.9557 107.759 11.8672 107.384 11.8672H106.099V13.8477ZM111.431 10.5H113.326L115.15 13.9453H115.228L117.052 10.5H118.947L116.029 15.6719V18.5H114.349V15.6719L111.431 10.5Z" fill="#222222"/>
<rect x="4" y="3" width="122" height="22" rx="5" stroke="white" stroke-width="2"/>
</g>
<defs>
<filter id="filter0_dd_1304_80730" x="0.814636" y="0.907318" width="128.371" height="29.4634" filterUnits="userSpaceOnUse" color-interpolation-filters="sRGB">
<feFlood flood-opacity="0" result="BackgroundImageFix"/>
<feColorMatrix in="SourceAlpha" type="matrix" values="0 0 0 0 0 0 0 0 0 0 0 0 0 0 0 0 0 0 127 0" result="hardAlpha"/>
<feOffset dy="2.18536"/>
<feGaussianBlur stdDeviation="1.09268"/>
<feColorMatrix type="matrix" values="0 0 0 0 0 0 0 0 0 0 0 0 0 0 0 0 0 0 0.12 0"/>
<feBlend mode="normal" in2="BackgroundImageFix" result="effect1_dropShadow_1304_80730"/>
<feColorMatrix in="SourceAlpha" type="matrix" values="0 0 0 0 0 0 0 0 0 0 0 0 0 0 0 0 0 0 127 0" result="hardAlpha"/>
<feOffset/>
<feGaussianBlur stdDeviation="0.546341"/>
<feColorMatrix type="matrix" values="0 0 0 0 0 0 0 0 0 0 0 0 0 0 0 0 0 0 0.08 0"/>
<feBlend mode="normal" in2="effect1_dropShadow_1304_80730" result="effect2_dropShadow_1304_80730"/>
<feBlend mode="normal" in="SourceGraphic" in2="effect2_dropShadow_1304_80730" result="shape"/>
</filter>
</defs>
</svg>
