<svg width="22" height="22" viewBox="0 0 22 22" fill="none" xmlns="http://www.w3.org/2000/svg">
<g clip-path="url(#clip0_645_60914)">
<path d="M2.7487 10.5V18.333V20.1663H4.58203H10.2312V10.5H2.7487Z" fill="#222222"/>
<path fill-rule="evenodd" clip-rule="evenodd" d="M6.41536 1.83301C4.90788 1.83301 3.66536 3.07552 3.66536 4.58301C3.66536 4.90527 3.7334 5.20964 3.83724 5.49968H3.66536L3.66306 5.49968H1.83203V7.33301V9.16634H20.1654V7.33301V5.49968H18.332H18.1602C18.264 5.20964 18.332 4.90527 18.332 4.58301C18.332 3.07552 17.0895 1.83301 15.582 1.83301C14.1211 1.83301 12.986 2.76042 12.0872 3.66634H9.91016C9.01139 2.76042 7.8763 1.83301 6.41536 1.83301ZM8.87891 5.21322C8.07682 4.36817 7.02051 3.66634 6.41536 3.66634C5.89616 3.66634 5.4987 4.0638 5.4987 4.58301C5.4987 5.10221 5.89616 5.49968 6.41537 5.49968H9.10807C9.05295 5.43645 9.02866 5.40111 9.00595 5.36808C8.9785 5.32816 8.95337 5.2916 8.87891 5.21322ZM16.4987 4.58301C16.4987 4.0638 16.1012 3.66634 15.582 3.66634C14.9769 3.66634 13.9206 4.36817 13.1185 5.21322C13.044 5.2916 13.0189 5.32816 12.9914 5.36808C12.9687 5.40111 12.9444 5.43645 12.8893 5.49968H15.582C16.1012 5.49968 16.4987 5.10221 16.4987 4.58301Z" fill="#222222"/>
<path d="M19.2487 18.333V10.5H11.7661V20.1663H17.4154H19.2487V18.333Z" fill="#222222"/>
</g>
<defs>
<clipPath id="clip0_645_60914">
<rect width="22" height="22" fill="white"/>
</clipPath>
</defs>
</svg>
