<svg width="22" height="22" viewBox="0 0 22 22" fill="none" xmlns="http://www.w3.org/2000/svg">
<g clip-path="url(#clip0_645_60919)">
<path d="M2.3776 0C1.0778 0 0 1.0778 0 2.3776V16.8724C0 18.1722 1.0778 19.25 2.3776 19.25H13.2057C14.5055 19.25 15.5833 18.1722 15.5833 16.8724V2.3776C15.5833 1.0778 14.5055 0 13.2057 0L2.3776 0ZM2.3776 1.83333H13.2057C13.5566 1.83333 13.75 2.02669 13.75 2.3776V16.8724C13.75 17.2233 13.5566 17.4167 13.2057 17.4167H2.3776C2.02669 17.4167 1.83333 17.2233 1.83333 16.8724V2.3776C1.83333 2.02669 2.02669 1.83333 2.3776 1.83333ZM16.5 2.3776V4.29688L19.7083 5.1276C19.984 5.2207 20.1738 5.50716 20.0807 5.8724L16.5 19.8802C16.4069 20.1559 16.1204 20.3457 15.7552 20.2526L14.4948 19.8802C14.0365 20.0628 13.5566 20.2526 13.0052 20.2526H8.42188L15.2969 22H16.0417C17.141 22 18.0576 21.266 18.3333 20.1667L21.9141 6.13021C22.2793 4.93783 21.4486 3.56999 20.1667 3.29427L16.5 2.3776ZM11.3724 2.75L10.3698 5.5H10.7135L11 4.75521H12.0026L12.2891 5.5H12.6615L11.6302 2.75H11.3724ZM11.4583 3.29427L11.8307 4.4974H11L11.4583 3.29427ZM17.7031 5.5L16.0417 7.8776L16.4141 7.96354L16.8724 7.33333L17.875 7.61979V8.42188L18.2474 8.53646L17.9609 5.58594L17.7031 5.5ZM7.70573 5.95833C7.70573 5.95833 4.125 8.42188 4.125 10.2552C4.125 11.3545 4.85905 12.0885 5.95833 12.0885C6.50977 12.0885 7.14356 11.6481 7.41927 11.3724C7.41927 11.3724 7.13998 12.6507 6.58854 13.75C6.58854 13.9326 8.97331 13.8431 8.88021 13.75C8.32878 12.7402 8.07813 11.3724 8.07813 11.3724C8.44336 11.6481 8.98763 12.0026 9.53906 12.0026C10.6383 12.0026 11.3724 11.2686 11.3724 10.1693C11.3724 8.24284 7.79883 5.86523 7.70573 5.95833L7.70573 5.95833ZM17.7031 6.04427L17.7891 7.33333L17.0443 7.04688L17.7031 6.04427ZM2.92188 13.75L3.95312 16.5H4.21094L5.21354 13.75H4.86979L4.58333 14.4948H3.58073L3.29427 13.75H2.92188ZM3.7526 14.7526H4.58333L4.125 15.9557L3.7526 14.7526Z" fill="#222222"/>
</g>
<defs>
<clipPath id="clip0_645_60919">
<rect width="22" height="22" fill="white"/>
</clipPath>
</defs>
</svg>
