<svg width="22" height="22" viewBox="0 0 22 22" fill="none" xmlns="http://www.w3.org/2000/svg">
<path d="M10.0833 0C9.5319 0.00358012 8.99479 0.236329 8.67969 1.11719C8.4362 1.79037 7.72363 1.83333 6.875 1.83333C6.72819 1.83333 6.57064 1.83333 6.41667 1.83333C5.53223 1.83333 5.30664 2.50651 5.72917 3.1224C5.95475 3.44824 7.35124 5.84017 7.70573 6.41667C7.77735 6.53483 7.92057 6.64225 8.10677 6.73177C8.11393 6.73535 8.12826 6.72819 8.13542 6.73177C8.50781 6.90723 9.03418 7.01465 9.56771 7.07552C9.91504 7.11491 10.2516 7.14356 10.5417 7.13281C10.7852 7.12565 11.0609 7.10059 11.3438 7.04688C12.0527 6.91439 12.7581 6.63509 12.9479 6.21615C12.9873 6.13379 13.016 6.02637 13.0052 5.92969C12.8691 4.51888 14.3086 2.66765 14.4948 2.40625C14.8099 1.95866 14.7669 0.973962 13.8073 0.973962C13.6211 0.973962 13.3812 1.03125 13.1198 1.11719C12.8691 1.19955 12.4645 1.66146 12.0885 1.66146C11.9059 1.66146 11.7412 1.54688 11.6016 1.23177C11.1755 0.261397 10.5739 0 10.0833 0ZM9.96875 0.916667C10.0153 0.909506 10.0368 0.916667 10.0833 0.916667C10.3805 0.916667 10.6061 1.29264 10.7422 1.60417C11.1289 2.48503 11.8164 2.57812 12.0885 2.57812C12.6221 2.57812 13.0374 2.27018 13.3203 2.0625C13.3704 2.02669 13.4206 1.97298 13.4635 1.94792C13.5817 1.91211 13.6605 1.89779 13.7214 1.89062L13.6927 1.94792C13.1807 2.64974 12.8154 3.31576 12.5469 3.92448C12.2783 4.21452 11.9346 4.4222 11.487 4.41146C10.6742 4.38997 10.5739 3.34798 10.0833 3.35156C9.5319 3.35514 9.46745 4.17513 8.96615 4.26823C7.96354 4.45085 7.14714 3.39811 6.61719 2.75H6.875C7.64486 2.75 9.06283 2.76432 9.53906 1.43229C9.67513 1.05632 9.83268 0.941733 9.96875 0.916667ZM12.8047 7.53385C12.0671 7.89909 11.1289 8.03158 10.5703 8.04948H10.3698C10.1979 8.04948 9.16309 8.04232 8.25 7.76302C3.50195 9.18815 0 13.9971 0 17.4167C0 21.4665 4.9235 22 11 22C17.0765 22 22 21.4665 22 17.4167C22 13.7751 18.0254 8.55436 12.8047 7.53385Z" fill="#222222"/>
<path d="M8.10369 18.5557V17.7171C8.39441 17.4263 8.61804 17.1282 8.77458 16.8225C8.93112 16.5095 9.00939 16.1069 9.00939 15.6149C9.00939 15.4882 8.99821 15.3578 8.97585 15.2236H7.70116V14.2396H8.66277C8.59568 14.0458 8.53604 13.8446 8.48386 13.6358C8.43914 13.4271 8.41677 13.2072 8.41677 12.9761C8.41677 12.4841 8.52113 12.0593 8.72985 11.7014C8.94603 11.3436 9.2442 11.0716 9.62437 10.8852C10.012 10.6914 10.4555 10.5945 10.955 10.5945C11.5215 10.5945 11.9911 10.7026 12.3638 10.9187C12.7365 11.1349 13.0198 11.4256 13.2136 11.7909C13.4074 12.1562 13.5155 12.5624 13.5379 13.0097H12.2185C12.2036 12.6593 12.0917 12.3686 11.883 12.1375C11.6743 11.899 11.3724 11.7797 10.9773 11.7797C10.6493 11.7797 10.3661 11.8804 10.1275 12.0816C9.889 12.2829 9.76973 12.596 9.76973 13.0209C9.76973 13.2147 9.79954 13.4159 9.85918 13.6247C9.91881 13.8259 9.9859 14.0309 10.0604 14.2396H12.1514V15.2236H10.3288C10.3512 15.3578 10.3623 15.4882 10.3623 15.6149C10.3623 15.9206 10.3027 16.2299 10.1834 16.543C10.0642 16.8561 9.86663 17.1468 9.59082 17.4152H13.5714V18.5557H8.10369Z" fill="#F2F3F6"/>
</svg>
