<svg width="22" height="22" viewBox="0 0 22 22" fill="none" xmlns="http://www.w3.org/2000/svg">
<g clip-path="url(#clip0_645_60924)">
<path d="M11.4557 0L0.914062 3.66667L11.4557 8.25L21.9974 3.66667L11.4557 0ZM11.513 2.92188C11.9714 2.92188 12.4225 2.98633 12.7448 3.1224C13.2962 3.30501 13.375 3.56999 13.375 3.7526C13.2819 3.8457 13.2031 4.13574 12.7448 4.41146C12.3796 4.50456 11.9141 4.58333 11.4557 4.58333C10.9974 4.58333 10.5283 4.50456 10.2526 4.41146C9.70118 4.22884 9.6224 3.93522 9.6224 3.7526C9.6224 3.56999 9.70118 3.30501 10.2526 3.1224C10.5749 2.98633 11.0547 2.92188 11.513 2.92188ZM0.914064 4.58333V16.5L10.9974 22V9.16667L0.914064 4.58333ZM21.9974 4.58333L11.9141 9.16667V22L21.9974 16.5V4.58333ZM8.07552 9.33854C8.25814 9.33854 8.35124 9.36003 8.53385 9.45312C9.2679 9.72884 9.79427 10.6276 9.79427 11.5443C9.97689 11.82 9.89095 12.0993 9.70834 12.375C9.52572 12.5576 9.26791 12.7474 8.99219 12.7474C8.80957 12.7474 8.60189 12.7546 8.41927 12.6615C7.68522 12.2962 7.15885 11.3652 7.15885 10.5417C7.15885 9.90072 7.52409 9.33854 8.07552 9.33854ZM15.6667 10.0833C15.7454 10.0726 15.8206 10.0833 15.8672 10.0833C16.4186 10.0833 16.7839 10.5524 16.7839 11.2865C16.9665 12.11 16.4007 13.0124 15.6667 13.3776C15.4841 13.4707 15.305 13.4635 15.1224 13.4635C14.8467 13.4635 14.5602 13.3955 14.3776 13.1198C14.195 12.9372 14.1198 12.6543 14.1198 12.2891C14.1198 11.4655 14.6748 10.5345 15.4089 10.1693C15.502 10.1227 15.5879 10.0941 15.6667 10.0833ZM5.32552 11.4583C5.50814 11.4583 5.60124 11.4512 5.78385 11.5443C6.5179 11.9095 6.95833 12.7546 6.95833 13.5781C7.05143 13.9434 6.9655 14.1976 6.8724 14.3802C6.68978 14.5628 6.40332 14.6667 6.1276 14.6667C5.94499 14.6667 5.76595 14.6738 5.58333 14.5807C4.94238 14.2155 4.40885 13.3704 4.40885 12.5469C4.40885 11.9059 4.77409 11.4583 5.32552 11.4583ZM19.1328 12.8333C19.2116 12.8226 19.2868 12.8333 19.3333 12.8333C19.8848 12.8333 20.1641 13.2809 20.1641 13.9219C20.1641 14.6559 19.7165 15.5046 19.0755 15.8698C18.8929 15.9629 18.6852 15.9557 18.5026 15.9557C18.2269 15.9557 18.055 15.8519 17.8724 15.6693C17.6898 15.4867 17.7005 15.2288 17.7005 14.9531C17.7005 14.1296 18.2341 13.195 18.875 12.9193C18.9681 12.8727 19.054 12.8441 19.1328 12.8333ZM2.66146 13.3776C2.84408 13.3776 2.93718 13.3704 3.11979 13.4635C3.76074 13.8288 4.29427 14.6738 4.29427 15.4974C4.29427 15.8626 4.2155 16.1455 4.1224 16.3281C3.93978 16.5107 3.7679 16.5859 3.49219 16.5859C3.30957 16.5859 3.10189 16.5931 2.91927 16.5C2.27832 16.1348 1.83073 15.3184 1.83073 14.4948C1.83073 13.8538 2.20313 13.3776 2.66146 13.3776Z" fill="#222222"/>
</g>
<defs>
<clipPath id="clip0_645_60924">
<rect width="22" height="22" fill="white"/>
</clipPath>
</defs>
</svg>
