<svg width="22" height="22" viewBox="0 0 22 22" fill="none" xmlns="http://www.w3.org/2000/svg">
<path d="M14.2066 0C14.2066 0 12.8512 0.757139 12.0993 2.14258C11.638 2.25755 10.3321 2.62093 8.82238 3.76473C7.097 5.07188 5.38522 7.39666 5.23909 10.976C5.11882 10.9625 4.99632 10.9505 4.86082 10.9505C3.08091 10.9505 1 12.0209 1 15.0353C1 17.7271 3.4104 20 6.26289 20C8.74697 20 11.5258 17.8769 11.5258 15.0353C11.5258 12.039 9.21645 10.9505 7.66495 10.9505C7.549 10.9505 7.44644 10.9624 7.34219 10.9721C7.4764 8.0045 8.7925 6.35294 10.1299 5.33975C10.2918 5.21711 10.4522 5.10648 10.6109 5.00393C10.1666 8.01001 11.5488 10.4464 12.9258 12.0267C13.3709 12.8621 13.6309 13.8632 13.6309 15.0236C13.6309 16.2503 13.295 17.3657 12.7161 18.3209C13.6003 18.7633 14.5884 18.9945 15.5778 18.9945C16.5672 18.9945 17.5576 18.7625 18.4313 18.2698C19.6417 17.5962 20.5244 16.3996 20.8612 15.002C21.1875 13.6144 20.9355 12.2281 20.1355 11.0919C18.304 8.46756 15.5772 8.66803 14.1983 9.44226C14.0309 9.53602 13.8891 9.63354 13.7625 9.73291C13.0861 8.74515 12.5853 7.57105 12.6071 6.15868C13.7843 7.13403 15.7132 7.0057 16.7887 6.71838C16.7887 6.71838 16.3445 4.45614 15.0351 3.40338C14.6295 3.07743 14.3245 2.86101 14.0668 2.68853C14.5022 2.20516 15.1605 1.79105 15.1605 1.79105L14.2066 0Z" fill="#222222"/>
</svg>
