<svg width="22" height="22" viewBox="0 0 22 22" fill="none" xmlns="http://www.w3.org/2000/svg">
<g clip-path="url(#clip0_645_60947)">
<path d="M16.5026 0H1.83594V18.3333L4.09538 22H19.2526V5.24577L16.5026 0ZM9.16927 5.5C10.1826 5.5 11.0026 6.31999 11.0026 7.33333C11.0026 8.34668 10.1826 9.16667 9.16927 9.16667C8.15593 9.16667 7.33594 8.34668 7.33594 7.33333C7.33594 6.31999 8.15593 5.5 9.16927 5.5ZM7.90169 10.1048C8.27767 10.3053 8.71094 10.4199 9.16569 10.4199C9.62402 10.4199 10.0537 10.3053 10.4333 10.1048C11.2497 10.3197 11.887 10.8245 12.1807 11.9167H6.1543C6.44792 10.8245 7.08529 10.3197 7.90169 10.1048ZM17.4193 20.1667H5.0765L3.96289 18.3333H16.5026V3.79199L17.4193 5.75423L17.4193 20.1667Z" fill="#222222"/>
</g>
<defs>
<clipPath id="clip0_645_60947">
<rect width="22" height="22" fill="white"/>
</clipPath>
</defs>
</svg>
