<svg width="22" height="22" viewBox="0 0 22 22" fill="none" xmlns="http://www.w3.org/2000/svg">
<path d="M16.1256 3.58018C16.0711 3.5813 16.0168 3.5885 15.9638 3.60167H5.97785C5.94139 3.59555 5.90452 3.5922 5.86756 3.59164C5.61425 3.59024 5.37816 3.71966 5.24308 3.93396L0.970558 8.91977C0.806253 9.0654 0.715839 9.27699 0.724161 9.4964C0.732482 9.7158 0.838663 9.91993 1.01353 10.0527L10.4638 19.503C10.4662 19.5059 10.4685 19.5087 10.4709 19.5116L10.481 19.5202C10.5155 19.5549 10.5534 19.5861 10.5941 19.6133C10.596 19.6142 10.5979 19.6152 10.5999 19.6161C10.6175 19.6279 10.6357 19.6389 10.6543 19.6491C10.6581 19.6505 10.6619 19.652 10.6657 19.6534C10.75 19.6969 10.842 19.7236 10.9364 19.7321C10.9612 19.7344 10.9861 19.7353 11.0109 19.735C11.0205 19.7347 11.03 19.7342 11.0396 19.7336C11.052 19.7329 11.0644 19.732 11.0768 19.7307C11.0792 19.7307 11.0816 19.7307 11.084 19.7307C11.0883 19.7298 11.0926 19.7288 11.0969 19.7278C11.1166 19.7253 11.1362 19.7219 11.1556 19.7178C11.1749 19.7138 11.194 19.709 11.2129 19.7035C11.2177 19.7021 11.2224 19.7007 11.2272 19.6992C11.2325 19.6973 11.2377 19.6954 11.243 19.6935C11.2836 19.6793 11.3229 19.6615 11.3604 19.6405C11.3609 19.64 11.3614 19.6395 11.3618 19.639C11.3785 19.6297 11.3947 19.6196 11.4105 19.609C11.4144 19.6061 11.4182 19.6033 11.422 19.6004C11.4562 19.5764 11.4883 19.5496 11.518 19.5202L11.5237 19.5159C11.5271 19.5121 11.5304 19.5083 11.5337 19.5044L20.9868 10.0513C21.161 9.91826 21.2666 9.71433 21.2746 9.49532C21.2826 9.27632 21.1923 9.0652 21.0284 8.91977L16.7874 3.97263C16.6586 3.72734 16.4026 3.57552 16.1256 3.58018ZM10.9995 5.59828L13.2396 8.735H8.75936L10.9995 5.59828ZM16.4637 5.84607L18.9387 8.735H15.6387L16.4637 5.84607ZM5.53527 5.8475L6.36027 8.735H3.06027L5.53527 5.8475ZM8.40129 10.2017H13.5976L10.9995 16.9578L8.40129 10.2017Z" fill="#222222"/>
</svg>
