<svg width="22" height="22" viewBox="0 0 22 22" fill="none" xmlns="http://www.w3.org/2000/svg">
<g clip-path="url(#clip0_882_48537)">
<path d="M11.0001 1.4668C10.19 1.4668 9.5334 2.12345 9.5334 2.93346C9.53365 3.47481 9.83207 3.97201 10.3097 4.22682L7.40931 9.66524L3.46335 7.34349C3.5962 7.11826 3.66642 6.86162 3.66673 6.60013C3.66673 5.79011 3.01008 5.13346 2.20007 5.13346C1.39005 5.13346 0.733398 5.79011 0.733398 6.60013C0.733398 7.41015 1.39005 8.0668 2.20007 8.0668C2.24888 8.06636 2.29763 8.0635 2.34616 8.0582L2.9334 13.9335H5.1334H14.6667H16.8667H19.0667L19.654 8.05964C19.7025 8.06445 19.7513 8.06684 19.8001 8.0668C20.6101 8.0668 21.2667 7.41015 21.2667 6.60013C21.2667 5.79011 20.6101 5.13346 19.8001 5.13346C18.99 5.13346 18.3334 5.79011 18.3334 6.60013C18.3337 6.86162 18.4039 7.11826 18.5368 7.34349L14.5908 9.66524L11.6904 4.22682C12.1681 3.97201 12.4665 3.47481 12.4667 2.93346C12.4667 2.12345 11.8101 1.4668 11.0001 1.4668H11.0001ZM2.9334 15.4001V16.8668C2.9334 17.6771 3.58973 18.3335 4.40007 18.3335H17.6001C18.4104 18.3335 19.0667 17.6771 19.0667 16.8668V15.4001H2.9334Z" fill="#222222"/>
</g>
<defs>
<clipPath id="clip0_882_48537">
<rect width="22" height="22" fill="white"/>
</clipPath>
</defs>
</svg>
