<!--
Add to HTML Code
<svg>
    <use xlink:href="./img/sprites.svg#icon-filter-btn"></use>
</svg>
-->
<svg>
    <symbol id="menu-1" viewBox="0 0 22 22" fill="none" xmlns="http://www.w3.org/2000/svg">
        <g clip-path="url(#clip0_725_74846)">
            <path d="M10.9997 0C4.92407 0 0 4.92407 0 10.9997C0 17.0753 4.92407 21.9993 10.9997 21.9993C17.0753 21.9993 21.9993 17.0753 21.9993 10.9997C21.9993 4.92407 17.0753 0 10.9997 0ZM10.9997 1.09997C11.3821 1.09997 11.7602 1.12575 12.134 1.16872L11.8934 3.36865C11.6055 3.33428 11.3004 3.2999 10.9997 3.2999C10.6688 3.2999 10.3552 3.32998 10.0372 3.36865L9.76221 1.20309C10.1704 1.15153 10.5743 1.09997 10.9997 1.09997V1.09997ZM14.4371 1.7187C15.189 1.99799 15.9152 2.37181 16.5683 2.81867L15.3308 4.64049C14.8238 4.29245 14.2652 4.00027 13.6808 3.78114L14.4371 1.7187ZM7.45915 1.75307L8.24976 3.81551C7.6654 4.03894 7.10252 4.32253 6.5998 4.67486L5.32797 2.88742C5.97678 2.43626 6.70722 2.04096 7.45915 1.75308V1.75307ZM10.9997 4.39987C14.6433 4.39987 17.5995 7.35603 17.5995 10.9997C17.5995 14.6433 14.6433 17.5995 10.9997 17.5995C7.35603 17.5995 4.39987 14.6433 4.39987 10.9997C4.39987 7.35603 7.35603 4.39987 10.9997 4.39987ZM18.3557 4.39987C18.8842 4.98852 19.3526 5.62015 19.7307 6.32481L17.8057 7.39041C17.5135 6.84042 17.1182 6.33771 16.7058 5.87795L18.3557 4.39987ZM3.57489 4.46862L5.22485 5.91233C4.81665 6.37638 4.44713 6.90487 4.15925 7.45916L2.23431 6.42794C2.60383 5.71897 3.05069 5.06587 3.57489 4.46862V4.46862ZM8.66224 7.56228C8.37866 7.56228 8.12085 7.69118 7.90602 7.90602C7.47634 8.33569 7.47634 9.02317 7.90602 9.45285L9.45285 10.9997L7.90602 12.5465C7.47634 12.9762 7.47634 13.6637 7.90602 14.0933C8.33569 14.523 9.02317 14.523 9.45285 14.0933L10.9997 12.5465L12.5465 14.0933C12.9762 14.523 13.6637 14.523 14.0933 14.0933C14.523 13.6637 14.523 12.9762 14.0933 12.5465L12.5465 10.9997L14.0933 9.45285C14.523 9.02318 14.523 8.3357 14.0933 7.90602C13.6637 7.47635 12.9762 7.47635 12.5465 7.90602L10.9997 9.45285L9.45285 7.90603C9.23802 7.69119 8.94584 7.56229 8.66225 7.56229L8.66224 7.56228ZM20.59 8.55912C20.7834 9.32395 20.8951 10.1403 20.8994 10.9653L20.6588 10.9309L18.6994 10.9997C18.6994 10.3466 18.6135 9.71495 18.4588 9.10911L20.59 8.55912ZM1.37496 8.66224L3.50615 9.17785C3.36435 9.75792 3.2999 10.3766 3.2999 10.9997C3.2999 11.0083 3.2999 11.0255 3.2999 11.034H1.09997C1.09997 11.0212 1.09997 11.0126 1.09997 10.9997C1.09997 10.1962 1.1945 9.40988 1.37496 8.66224H1.37496ZM3.54052 12.8559C3.69091 13.466 3.90574 14.0676 4.19363 14.6089L2.23431 15.6402C1.86479 14.9441 1.60698 14.1879 1.40933 13.4059L3.54052 12.8559ZM18.4588 12.8559L20.59 13.3715C20.3967 14.1578 20.1346 14.9054 19.765 15.6058L17.8057 14.5746C18.0893 14.0332 18.3084 13.466 18.4588 12.8559H18.4588ZM16.7745 16.087L18.3901 17.5651C17.8616 18.1624 17.2944 18.6909 16.637 19.1463L15.3652 17.3245C15.8765 16.9722 16.3663 16.5511 16.7745 16.087H16.7745ZM5.25922 16.1214C5.67171 16.5854 6.12287 17.0065 6.63418 17.3589L5.39672 19.1463C4.73931 18.6952 4.13777 18.1581 3.60927 17.5651L5.25922 16.1214ZM8.28413 18.1838C8.8556 18.3987 9.47863 18.5577 10.106 18.6307L9.83096 20.8306C9.02317 20.7361 8.26264 20.5256 7.5279 20.2463L8.28413 18.1838ZM13.7496 18.1838L14.5058 20.2463C13.7711 20.5256 13.0106 20.7318 12.2028 20.8306L11.9278 18.6307C12.5508 18.5534 13.1781 18.3987 13.7496 18.1838H13.7496Z" fill="currentColor"/>
        </g>
        <defs>
            <clipPath id="clip0_725_74846">
                <rect width="22" height="22" fill="white"/>
            </clipPath>
        </defs>
    </symbol>
    <symbol id="menu-2" viewBox="0 0 22 22" fill="none" xmlns="http://www.w3.org/2000/svg">
        <path d="M14.2066 0C14.2066 0 12.8512 0.757139 12.0993 2.14258C11.638 2.25755 10.3321 2.62093 8.82238 3.76473C7.097 5.07188 5.38522 7.39666 5.23909 10.976C5.11882 10.9625 4.99632 10.9505 4.86082 10.9505C3.08091 10.9505 1 12.0209 1 15.0353C1 17.7271 3.4104 20 6.26289 20C8.74697 20 11.5258 17.8769 11.5258 15.0353C11.5258 12.039 9.21645 10.9505 7.66495 10.9505C7.549 10.9505 7.44644 10.9624 7.34219 10.9721C7.4764 8.0045 8.7925 6.35294 10.1299 5.33975C10.2918 5.21711 10.4522 5.10648 10.6109 5.00393C10.1666 8.01001 11.5488 10.4464 12.9258 12.0267C13.3709 12.8621 13.6309 13.8632 13.6309 15.0236C13.6309 16.2503 13.295 17.3657 12.7161 18.3209C13.6003 18.7633 14.5884 18.9945 15.5778 18.9945C16.5672 18.9945 17.5576 18.7625 18.4313 18.2698C19.6417 17.5962 20.5244 16.3996 20.8612 15.002C21.1875 13.6144 20.9355 12.2281 20.1355 11.0919C18.304 8.46756 15.5772 8.66803 14.1983 9.44226C14.0309 9.53602 13.8891 9.63354 13.7625 9.73291C13.0861 8.74515 12.5853 7.57105 12.6071 6.15868C13.7843 7.13403 15.7132 7.0057 16.7887 6.71838C16.7887 6.71838 16.3445 4.45614 15.0351 3.40338C14.6295 3.07743 14.3245 2.86101 14.0668 2.68853C14.5022 2.20516 15.1605 1.79105 15.1605 1.79105L14.2066 0Z" fill="currentColor"/>
    </symbol>
    <symbol id="menu-3" viewBox="0 0 23 24" fill="none" xmlns="http://www.w3.org/2000/svg">
        <path fill-rule="evenodd" clip-rule="evenodd" d="M6.3261 13.1562C5.12379 13.1562 4.01621 13.5479 3.12068 14.2104C2.66422 14.5481 2.26286 14.9561 1.93212 15.4185C1.29332 16.3116 0.917969 17.4076 0.917969 18.5911C0.917969 21.5896 3.35435 23.9992 6.3261 23.9992C8.06585 23.9992 9.60735 23.1791 10.595 21.91C10.9396 21.4672 11.2168 20.9698 11.4114 20.4335C11.6204 19.8577 11.7342 19.237 11.7342 18.5911C11.7341 17.0495 11.0972 15.6564 10.0708 14.6667C9.87933 14.4821 9.67436 14.3115 9.45743 14.1566C8.57521 13.5267 7.49544 13.1562 6.3261 13.1562ZM4.36935 20.5627L4.38873 20.5433C4.59789 20.3342 4.75736 20.1211 4.86846 19.9043C4.97709 19.6868 5.03352 19.4028 5.03352 19.0486C5.03352 18.9769 5.02843 18.9033 5.01818 18.8278H4.07416V17.9739H4.75348C4.71547 17.8571 4.68102 17.7369 4.65011 17.6133L4.64957 17.6111C4.61572 17.4532 4.59894 17.2872 4.59894 17.1135C4.59894 16.7432 4.67756 16.4196 4.83754 16.1454L4.83805 16.1445C5.00319 15.8712 5.23139 15.663 5.52131 15.5208C5.816 15.3736 6.15157 15.3008 6.52642 15.3008C6.94996 15.3008 7.30667 15.3816 7.59277 15.5475C7.87632 15.712 8.09301 15.934 8.24119 16.2133C8.38823 16.4904 8.46977 16.7979 8.48662 17.1348L8.49009 17.2042H7.38956L7.38686 17.1409C7.3765 16.8973 7.2993 16.6994 7.15788 16.5429L7.15718 16.5421C7.01968 16.3849 6.81854 16.3023 6.54282 16.3023C6.31705 16.3023 6.12467 16.3711 5.96232 16.5081C5.80717 16.639 5.72343 16.8468 5.72343 17.1463C5.72343 17.2815 5.74421 17.4228 5.7864 17.5706C5.82556 17.7027 5.86916 17.8371 5.91721 17.9739H7.46995V18.8278H6.1438C6.15326 18.9027 6.15801 18.9764 6.15801 19.0486C6.15801 19.2815 6.11254 19.5163 6.02248 19.7527C5.94792 19.9484 5.83379 20.1317 5.6812 20.3025H8.5113V21.2713H4.36935V20.5627Z" fill="currentColor"/>
        <path d="M12.0007 0C5.94929 0 1.00072 4.94857 1.00072 11C1.00072 12.5694 1.33354 14.0646 1.93212 15.4185C2.26286 14.9561 2.66422 14.5481 3.12068 14.2104C2.75212 13.2091 2.5476 12.1284 2.5476 11C2.5476 10.9417 2.55499 10.8844 2.56231 10.8276C2.56848 10.7798 2.57461 10.7324 2.57624 10.6849L3.46426 11.6302L5.87051 8.9948L5.49812 5.5L4.18041 5.72917C5.41576 3.89942 7.27058 2.528 9.45124 1.91927L8.79239 3.1224L12.0007 4.4974L15.2091 3.1224L14.5502 1.91927C16.7309 2.528 18.5857 3.89941 19.821 5.72917L18.5033 5.5L18.1309 8.99479L20.5372 11.6302L21.4252 10.6849C21.4268 10.7324 21.433 10.7798 21.4391 10.8276C21.44 10.8347 21.441 10.8418 21.4419 10.8489C21.4482 10.8987 21.4538 10.949 21.4538 11C21.4538 13.1842 20.6876 15.1895 19.4486 16.7865L19.2481 15.4974L15.8393 16.2135L14.0059 19.25L15.2663 19.8516C14.2458 20.2275 13.1537 20.4531 12.0007 20.4531C11.8025 20.4531 11.606 20.4465 11.4114 20.4335C11.2168 20.9698 10.9396 21.4672 10.595 21.91C11.0555 21.9694 11.5247 22 12.0007 22C18.0522 22 23.0007 17.0514 23.0007 11C23.0007 4.94857 18.0522 0 12.0007 0Z" fill="currentColor"/>
        <path d="M12.0007 7.33333L8.16218 10.1693L9.45743 14.1566C9.67436 14.3115 9.87933 14.4821 10.0708 14.6667H14.3783L15.8393 10.1693L12.0007 7.33333Z" fill="currentColor"/>
    </symbol>
    <symbol id="menu-4" viewBox="0 0 22 22" fill="none" xmlns="http://www.w3.org/2000/svg">
        <g clip-path="url(#clip0_645_60959)">
            <path d="M1.10156 2V3C1.10156 5.76667 2.22969 7.76202 3.24785 9.30469C4.26601 10.8474 5.06156 11.9444 5.06156 13H7.04156C7.04156 12.9838 7.03786 12.9692 7.03769 12.9531C8.00639 15.1662 9.02156 16 9.02156 16H12.9816C12.9816 16 13.9967 15.1662 14.9654 12.9531C14.9653 12.9692 14.9616 12.9838 14.9616 13H16.9416C16.9416 11.9444 17.7371 10.8474 18.7553 9.30469C19.7734 7.76202 20.9016 5.76667 20.9016 3V2H1.10156ZM3.27105 4H5.33226C5.39547 6.40807 5.67413 8.38024 6.0593 9.97461C5.69177 9.36679 5.28242 8.7819 4.89527 8.19531C4.09994 6.99027 3.49656 5.65498 3.27105 4ZM16.6709 4H18.7321C18.5066 5.65498 17.9032 6.99026 17.1078 8.19531C16.7207 8.78191 16.3114 9.36679 15.9438 9.97461C16.329 8.38024 16.6076 6.40807 16.6709 4ZM6.05156 18V20H15.9516V18H6.05156Z" fill="currentColor"/>
        </g>
        <defs>
            <clipPath id="clip0_645_60959">
                <rect width="22" height="22" fill="white"/>
            </clipPath>
        </defs>
    </symbol>
    <symbol id="menu-5" viewBox="0 0 22 22" fill="none" xmlns="http://www.w3.org/2000/svg">
        <g clip-path="url(#clip0_645_60942)">
            <path d="M11.0013 0C5.43327 0 0.917969 4.10352 0.917969 9.16667C0.917969 14.2298 5.43327 18.3333 11.0013 18.3333V22C11.0013 22 21.0846 17.0872 21.0846 9.16667C21.0846 4.10352 16.5693 1.27907e-06 11.0013 1.27907e-06V0ZM12.1221 13.8646H9.88053V7.48014H12.1221V13.8646ZM11.0049 5.68262C9.79102 5.68262 9.78385 4.78744 9.78385 4.57975C9.78385 4.36849 9.78385 3.48405 11.0049 3.48405C12.2295 3.48405 12.2259 4.36849 12.2259 4.57975C12.2259 4.78743 12.2188 5.68262 11.0049 5.68262Z" fill="currentColor"/>
        </g>
        <defs>
            <clipPath id="clip0_645_60942">
                <rect width="22" height="22" fill="white"/>
            </clipPath>
        </defs>
    </symbol>
    <symbol id="menu-6" viewBox="0 0 22 22" fill="none" xmlns="http://www.w3.org/2000/svg">
        <g clip-path="url(#clip0_645_60947)">
            <path d="M16.5026 0H1.83594V18.3333L4.09538 22H19.2526V5.24577L16.5026 0ZM9.16927 5.5C10.1826 5.5 11.0026 6.31999 11.0026 7.33333C11.0026 8.34668 10.1826 9.16667 9.16927 9.16667C8.15593 9.16667 7.33594 8.34668 7.33594 7.33333C7.33594 6.31999 8.15593 5.5 9.16927 5.5ZM7.90169 10.1048C8.27767 10.3053 8.71094 10.4199 9.16569 10.4199C9.62402 10.4199 10.0537 10.3053 10.4333 10.1048C11.2497 10.3197 11.887 10.8245 12.1807 11.9167H6.1543C6.44792 10.8245 7.08529 10.3197 7.90169 10.1048ZM17.4193 20.1667H5.0765L3.96289 18.3333H16.5026V3.79199L17.4193 5.75423L17.4193 20.1667Z" fill="currentColor"/>
        </g>
        <defs>
            <clipPath id="clip0_645_60947">
                <rect width="22" height="22" fill="white"/>
            </clipPath>
        </defs>
    </symbol>
    <symbol id="casino-menu-1" viewBox="0 0 22 22" fill="none" xmlns="http://www.w3.org/2000/svg">
        <g clip-path="url(#clip0_645_60910)">
            <path d="M11 0C4.94857 0 0 4.94857 0 11C0 17.0514 4.94857 22 11 22C17.0514 22 22 17.0514 22 11C22 4.94857 17.0514 0 11 0ZM11 1.08854C11.5514 1.08854 12.11 1.19596 12.6615 1.28906V3.58073C12.11 3.48763 11.5514 3.38021 11 3.38021C10.4486 3.38021 9.88997 3.48763 9.33854 3.58073V1.28906C9.88997 1.19596 10.4486 1.08854 11 1.08854ZM11 4.58333C14.5736 4.58333 17.4167 7.42643 17.4167 11C17.4167 14.5736 14.5736 17.4167 11 17.4167C7.42643 17.4167 4.58333 14.5736 4.58333 11C4.58333 7.42643 7.42643 4.58333 11 4.58333ZM3.38021 4.66927L5.41406 5.78646C4.59049 6.61003 4.0319 7.60905 3.66667 8.70833L1.74739 7.61979C2.11263 6.52051 2.64616 5.49284 3.38021 4.66927ZM18.6198 4.66927C19.3538 5.49284 19.8874 6.52051 20.2526 7.61979L18.3333 8.70833C17.9681 7.60905 17.4059 6.61003 16.6719 5.78646L18.6198 4.66927ZM3.66667 13.2917C4.0319 14.391 4.59408 15.39 5.32812 16.2135L3.38021 17.3307C2.64616 16.5072 2.11263 15.4795 1.74739 14.3802L3.66667 13.2917ZM18.2474 13.2917L20.1667 14.3802C19.891 15.4795 19.3538 16.5072 18.6198 17.3307L16.5859 16.2135C17.32 15.39 17.9717 14.391 18.2474 13.2917ZM9.33854 18.4193C9.88997 18.5124 10.4486 18.6198 11 18.6198C11.5514 18.6198 12.11 18.5124 12.6615 18.4193V20.7109C12.11 20.804 11.5514 20.9115 11 20.9115C10.4486 20.9115 9.88997 20.804 9.33854 20.7109V18.4193Z" fill="currentColor"/>
            <path d="M8.30334 13.8747L8.32993 13.8481C8.61683 13.5612 8.83558 13.2689 8.98798 12.9715C9.137 12.6732 9.21441 12.2837 9.21441 11.7977C9.21441 11.6994 9.20743 11.5984 9.19338 11.4948H7.89842V10.3234H8.83027C8.77813 10.1633 8.73087 9.99841 8.68848 9.82883L8.68773 9.82584C8.64129 9.60914 8.61828 9.38152 8.61828 9.14319C8.61828 8.63525 8.72612 8.19142 8.94558 7.8152L8.94629 7.81399C9.17281 7.43906 9.48585 7.15352 9.88354 6.9585C10.2878 6.75645 10.7481 6.65663 11.2623 6.65663C11.8433 6.65663 12.3326 6.76745 12.7251 6.99507C13.114 7.22067 13.4113 7.5253 13.6146 7.90838C13.8163 8.28851 13.9281 8.71032 13.9512 9.1724L13.956 9.26771H12.4463L12.4426 9.1808C12.4284 8.84667 12.3225 8.57523 12.1285 8.36045L12.1276 8.35939C11.9389 8.14383 11.663 8.03045 11.2848 8.03045C10.9751 8.03045 10.7112 8.12484 10.4885 8.31274C10.2757 8.49232 10.1608 8.77732 10.1608 9.18818C10.1608 9.37364 10.1893 9.56756 10.2472 9.77021C10.3009 9.95148 10.3607 10.1359 10.4266 10.3234H12.5566V11.4948H10.7375C10.7504 11.5976 10.7569 11.6986 10.7569 11.7977C10.7569 12.1172 10.6946 12.4393 10.571 12.7636C10.4687 13.0321 10.3122 13.2834 10.1029 13.5178H13.9851V14.8466H8.30334V13.8747Z" fill="currentColor"/>
        </g>
        <defs>
            <clipPath id="clip0_645_60910">
                <rect width="22" height="22" fill="white"/>
            </clipPath>
        </defs>
    </symbol>
    <symbol id="casino-menu-2" viewBox="0 0 22 22" fill="none" xmlns="http://www.w3.org/2000/svg">
        <g clip-path="url(#clip0_645_60914)">
            <path d="M2.7487 10.5V18.333V20.1663H4.58203H10.2312V10.5H2.7487Z" fill="currentColor"/>
            <path fill-rule="evenodd" clip-rule="evenodd" d="M6.41536 1.83301C4.90788 1.83301 3.66536 3.07552 3.66536 4.58301C3.66536 4.90527 3.7334 5.20964 3.83724 5.49968H3.66536L3.66306 5.49968H1.83203V7.33301V9.16634H20.1654V7.33301V5.49968H18.332H18.1602C18.264 5.20964 18.332 4.90527 18.332 4.58301C18.332 3.07552 17.0895 1.83301 15.582 1.83301C14.1211 1.83301 12.986 2.76042 12.0872 3.66634H9.91016C9.01139 2.76042 7.8763 1.83301 6.41536 1.83301ZM8.87891 5.21322C8.07682 4.36817 7.02051 3.66634 6.41536 3.66634C5.89616 3.66634 5.4987 4.0638 5.4987 4.58301C5.4987 5.10221 5.89616 5.49968 6.41537 5.49968H9.10807C9.05295 5.43645 9.02866 5.40111 9.00595 5.36808C8.9785 5.32816 8.95337 5.2916 8.87891 5.21322ZM16.4987 4.58301C16.4987 4.0638 16.1012 3.66634 15.582 3.66634C14.9769 3.66634 13.9206 4.36817 13.1185 5.21322C13.044 5.2916 13.0189 5.32816 12.9914 5.36808C12.9687 5.40111 12.9444 5.43645 12.8893 5.49968H15.582C16.1012 5.49968 16.4987 5.10221 16.4987 4.58301Z" fill="#222222"/>
            <path d="M19.2487 18.333V10.5H11.7661V20.1663H17.4154H19.2487V18.333Z" fill="currentColor"/>
        </g>
        <defs>
            <clipPath id="clip0_645_60914">
                <rect width="22" height="22" fill="white"/>
            </clipPath>
        </defs>
    </symbol>
    <symbol id="casino-menu-3" viewBox="0 0 22 22" fill="none" xmlns="http://www.w3.org/2000/svg">
        <g clip-path="url(#clip0_645_60919)">
            <path d="M2.3776 0C1.0778 0 0 1.0778 0 2.3776V16.8724C0 18.1722 1.0778 19.25 2.3776 19.25H13.2057C14.5055 19.25 15.5833 18.1722 15.5833 16.8724V2.3776C15.5833 1.0778 14.5055 0 13.2057 0L2.3776 0ZM2.3776 1.83333H13.2057C13.5566 1.83333 13.75 2.02669 13.75 2.3776V16.8724C13.75 17.2233 13.5566 17.4167 13.2057 17.4167H2.3776C2.02669 17.4167 1.83333 17.2233 1.83333 16.8724V2.3776C1.83333 2.02669 2.02669 1.83333 2.3776 1.83333ZM16.5 2.3776V4.29688L19.7083 5.1276C19.984 5.2207 20.1738 5.50716 20.0807 5.8724L16.5 19.8802C16.4069 20.1559 16.1204 20.3457 15.7552 20.2526L14.4948 19.8802C14.0365 20.0628 13.5566 20.2526 13.0052 20.2526H8.42188L15.2969 22H16.0417C17.141 22 18.0576 21.266 18.3333 20.1667L21.9141 6.13021C22.2793 4.93783 21.4486 3.56999 20.1667 3.29427L16.5 2.3776ZM11.3724 2.75L10.3698 5.5H10.7135L11 4.75521H12.0026L12.2891 5.5H12.6615L11.6302 2.75H11.3724ZM11.4583 3.29427L11.8307 4.4974H11L11.4583 3.29427ZM17.7031 5.5L16.0417 7.8776L16.4141 7.96354L16.8724 7.33333L17.875 7.61979V8.42188L18.2474 8.53646L17.9609 5.58594L17.7031 5.5ZM7.70573 5.95833C7.70573 5.95833 4.125 8.42188 4.125 10.2552C4.125 11.3545 4.85905 12.0885 5.95833 12.0885C6.50977 12.0885 7.14356 11.6481 7.41927 11.3724C7.41927 11.3724 7.13998 12.6507 6.58854 13.75C6.58854 13.9326 8.97331 13.8431 8.88021 13.75C8.32878 12.7402 8.07813 11.3724 8.07813 11.3724C8.44336 11.6481 8.98763 12.0026 9.53906 12.0026C10.6383 12.0026 11.3724 11.2686 11.3724 10.1693C11.3724 8.24284 7.79883 5.86523 7.70573 5.95833L7.70573 5.95833ZM17.7031 6.04427L17.7891 7.33333L17.0443 7.04688L17.7031 6.04427ZM2.92188 13.75L3.95312 16.5H4.21094L5.21354 13.75H4.86979L4.58333 14.4948H3.58073L3.29427 13.75H2.92188ZM3.7526 14.7526H4.58333L4.125 15.9557L3.7526 14.7526Z" fill="currentColor"/>
        </g>
        <defs>
            <clipPath id="clip0_645_60919">
                <rect width="22" height="22" fill="white"/>
            </clipPath>
        </defs>
    </symbol>
    <symbol id="casino-menu-4" viewBox="0 0 22 22" fill="none" xmlns="http://www.w3.org/2000/svg">
        <g clip-path="url(#clip0_645_60924)">
            <path d="M11.4557 0L0.914062 3.66667L11.4557 8.25L21.9974 3.66667L11.4557 0ZM11.513 2.92188C11.9714 2.92188 12.4225 2.98633 12.7448 3.1224C13.2962 3.30501 13.375 3.56999 13.375 3.7526C13.2819 3.8457 13.2031 4.13574 12.7448 4.41146C12.3796 4.50456 11.9141 4.58333 11.4557 4.58333C10.9974 4.58333 10.5283 4.50456 10.2526 4.41146C9.70118 4.22884 9.6224 3.93522 9.6224 3.7526C9.6224 3.56999 9.70118 3.30501 10.2526 3.1224C10.5749 2.98633 11.0547 2.92188 11.513 2.92188ZM0.914064 4.58333V16.5L10.9974 22V9.16667L0.914064 4.58333ZM21.9974 4.58333L11.9141 9.16667V22L21.9974 16.5V4.58333ZM8.07552 9.33854C8.25814 9.33854 8.35124 9.36003 8.53385 9.45312C9.2679 9.72884 9.79427 10.6276 9.79427 11.5443C9.97689 11.82 9.89095 12.0993 9.70834 12.375C9.52572 12.5576 9.26791 12.7474 8.99219 12.7474C8.80957 12.7474 8.60189 12.7546 8.41927 12.6615C7.68522 12.2962 7.15885 11.3652 7.15885 10.5417C7.15885 9.90072 7.52409 9.33854 8.07552 9.33854ZM15.6667 10.0833C15.7454 10.0726 15.8206 10.0833 15.8672 10.0833C16.4186 10.0833 16.7839 10.5524 16.7839 11.2865C16.9665 12.11 16.4007 13.0124 15.6667 13.3776C15.4841 13.4707 15.305 13.4635 15.1224 13.4635C14.8467 13.4635 14.5602 13.3955 14.3776 13.1198C14.195 12.9372 14.1198 12.6543 14.1198 12.2891C14.1198 11.4655 14.6748 10.5345 15.4089 10.1693C15.502 10.1227 15.5879 10.0941 15.6667 10.0833ZM5.32552 11.4583C5.50814 11.4583 5.60124 11.4512 5.78385 11.5443C6.5179 11.9095 6.95833 12.7546 6.95833 13.5781C7.05143 13.9434 6.9655 14.1976 6.8724 14.3802C6.68978 14.5628 6.40332 14.6667 6.1276 14.6667C5.94499 14.6667 5.76595 14.6738 5.58333 14.5807C4.94238 14.2155 4.40885 13.3704 4.40885 12.5469C4.40885 11.9059 4.77409 11.4583 5.32552 11.4583ZM19.1328 12.8333C19.2116 12.8226 19.2868 12.8333 19.3333 12.8333C19.8848 12.8333 20.1641 13.2809 20.1641 13.9219C20.1641 14.6559 19.7165 15.5046 19.0755 15.8698C18.8929 15.9629 18.6852 15.9557 18.5026 15.9557C18.2269 15.9557 18.055 15.8519 17.8724 15.6693C17.6898 15.4867 17.7005 15.2288 17.7005 14.9531C17.7005 14.1296 18.2341 13.195 18.875 12.9193C18.9681 12.8727 19.054 12.8441 19.1328 12.8333ZM2.66146 13.3776C2.84408 13.3776 2.93718 13.3704 3.11979 13.4635C3.76074 13.8288 4.29427 14.6738 4.29427 15.4974C4.29427 15.8626 4.2155 16.1455 4.1224 16.3281C3.93978 16.5107 3.7679 16.5859 3.49219 16.5859C3.30957 16.5859 3.10189 16.5931 2.91927 16.5C2.27832 16.1348 1.83073 15.3184 1.83073 14.4948C1.83073 13.8538 2.20313 13.3776 2.66146 13.3776Z" fill="currentColor"/>
        </g>
        <defs>
            <clipPath id="clip0_645_60924">
                <rect width="22" height="22" fill="white"/>
            </clipPath>
        </defs>
    </symbol>
    <symbol id="casino-menu-5" viewBox="0 0 22 22" fill="none" xmlns="http://www.w3.org/2000/svg">
        <g clip-path="url(#clip0_645_60929)">
            <path d="M16.0443 0H6.8776C5.61169 0 4.58594 1.02575 4.58594 2.29167V19.7083C4.58594 20.9743 5.61169 22 6.8776 22H16.0443C17.3102 22 18.3359 20.9743 18.3359 19.7083V2.29167C18.3359 1.02575 17.3102 0 16.0443 0V0ZM16.5026 20.1667H6.41927V1.83333H8.2526L9.16927 3.66667H13.7526L14.6693 1.83333H16.5026V20.1667Z" fill="currentColor"/>
        </g>
        <defs>
            <clipPath id="clip0_645_60929">
                <rect width="22" height="22" fill="white"/>
            </clipPath>
        </defs>
    </symbol>
    <symbol id="casino-menu-6" viewBox="0 0 22 22" fill="none" xmlns="http://www.w3.org/2000/svg">
        <g clip-path="url(#clip0_645_60934)">
            <path d="M4.60156 1L1.16406 16.8073H5.72135L6.84115 11.5729H10.0964C13.2148 11.5729 15.832 9.65885 16.5286 6.39063C17.3197 2.68945 14.6699 1 12.388 1L4.60156 1ZM8.48177 4.22917H10.6953C11.8118 4.22917 12.5573 5.18945 12.2318 6.39062C11.9518 7.5918 10.793 8.55208 9.6276 8.55208H7.49219L8.48177 4.22917ZM18.4818 5.53125C18.4785 6.00651 18.446 6.50456 18.3255 7.06771C18.0163 8.52279 17.3783 9.80859 16.5026 10.8177C16.1348 11.9049 15.0605 12.7448 13.9766 12.7448H13.9245C12.873 13.2233 11.6849 13.474 10.4089 13.474H8.3776L7.51823 17.5104L7.25781 18.7083H6.00781L5.51302 21H10.0703L11.1901 15.7656H14.4453C17.5638 15.7656 20.1777 13.8255 20.8776 10.5573C21.4635 7.8099 20.1289 6.19206 18.4818 5.53125V5.53125Z" fill="currentColor"/>
        </g>
        <defs>
            <clipPath id="clip0_645_60934">
                <rect width="22" height="22" fill="white"/>
            </clipPath>
        </defs>
    </symbol>
    <symbol id="casino-menu-7" viewBox="0 0 22 22" fill="none" xmlns="http://www.w3.org/2000/svg">
        <path d="M10.0833 0C9.5319 0.00358012 8.99479 0.236329 8.67969 1.11719C8.4362 1.79037 7.72363 1.83333 6.875 1.83333C6.72819 1.83333 6.57064 1.83333 6.41667 1.83333C5.53223 1.83333 5.30664 2.50651 5.72917 3.1224C5.95475 3.44824 7.35124 5.84017 7.70573 6.41667C7.77735 6.53483 7.92057 6.64225 8.10677 6.73177C8.11393 6.73535 8.12826 6.72819 8.13542 6.73177C8.50781 6.90723 9.03418 7.01465 9.56771 7.07552C9.91504 7.11491 10.2516 7.14356 10.5417 7.13281C10.7852 7.12565 11.0609 7.10059 11.3438 7.04688C12.0527 6.91439 12.7581 6.63509 12.9479 6.21615C12.9873 6.13379 13.016 6.02637 13.0052 5.92969C12.8691 4.51888 14.3086 2.66765 14.4948 2.40625C14.8099 1.95866 14.7669 0.973962 13.8073 0.973962C13.6211 0.973962 13.3812 1.03125 13.1198 1.11719C12.8691 1.19955 12.4645 1.66146 12.0885 1.66146C11.9059 1.66146 11.7412 1.54688 11.6016 1.23177C11.1755 0.261397 10.5739 0 10.0833 0ZM9.96875 0.916667C10.0153 0.909506 10.0368 0.916667 10.0833 0.916667C10.3805 0.916667 10.6061 1.29264 10.7422 1.60417C11.1289 2.48503 11.8164 2.57812 12.0885 2.57812C12.6221 2.57812 13.0374 2.27018 13.3203 2.0625C13.3704 2.02669 13.4206 1.97298 13.4635 1.94792C13.5817 1.91211 13.6605 1.89779 13.7214 1.89062L13.6927 1.94792C13.1807 2.64974 12.8154 3.31576 12.5469 3.92448C12.2783 4.21452 11.9346 4.4222 11.487 4.41146C10.6742 4.38997 10.5739 3.34798 10.0833 3.35156C9.5319 3.35514 9.46745 4.17513 8.96615 4.26823C7.96354 4.45085 7.14714 3.39811 6.61719 2.75H6.875C7.64486 2.75 9.06283 2.76432 9.53906 1.43229C9.67513 1.05632 9.83268 0.941733 9.96875 0.916667ZM12.8047 7.53385C12.0671 7.89909 11.1289 8.03158 10.5703 8.04948H10.3698C10.1979 8.04948 9.16309 8.04232 8.25 7.76302C3.50195 9.18815 0 13.9971 0 17.4167C0 21.4665 4.9235 22 11 22C17.0765 22 22 21.4665 22 17.4167C22 13.7751 18.0254 8.55436 12.8047 7.53385Z" fill="currentColor"/>
        <path d="M8.10369 18.5557V17.7171C8.39441 17.4263 8.61804 17.1282 8.77458 16.8225C8.93112 16.5095 9.00939 16.1069 9.00939 15.6149C9.00939 15.4882 8.99821 15.3578 8.97585 15.2236H7.70116V14.2396H8.66277C8.59568 14.0458 8.53604 13.8446 8.48386 13.6358C8.43914 13.4271 8.41677 13.2072 8.41677 12.9761C8.41677 12.4841 8.52113 12.0593 8.72985 11.7014C8.94603 11.3436 9.2442 11.0716 9.62437 10.8852C10.012 10.6914 10.4555 10.5945 10.955 10.5945C11.5215 10.5945 11.9911 10.7026 12.3638 10.9187C12.7365 11.1349 13.0198 11.4256 13.2136 11.7909C13.4074 12.1562 13.5155 12.5624 13.5379 13.0097H12.2185C12.2036 12.6593 12.0917 12.3686 11.883 12.1375C11.6743 11.899 11.3724 11.7797 10.9773 11.7797C10.6493 11.7797 10.3661 11.8804 10.1275 12.0816C9.889 12.2829 9.76973 12.596 9.76973 13.0209C9.76973 13.2147 9.79954 13.4159 9.85918 13.6247C9.91881 13.8259 9.9859 14.0309 10.0604 14.2396H12.1514V15.2236H10.3288C10.3512 15.3578 10.3623 15.4882 10.3623 15.6149C10.3623 15.9206 10.3027 16.2299 10.1834 16.543C10.0642 16.8561 9.86663 17.1468 9.59082 17.4152H13.5714V18.5557H8.10369Z" fill="#F2F3F6"/>
    </symbol>
    <symbol id="casino-menu-8" viewBox="0 0 22 22" fill="none" xmlns="http://www.w3.org/2000/svg">
        <path d="M11 0.916992L2.75 4.58366C2.75 4.58366 2.75 8.25033 2.75 10.0837C2.75 17.2612 8.65242 20.6125 11 21.0837C13.3476 20.6125 19.25 17.2612 19.25 10.0837C19.25 8.25033 19.25 4.58366 19.25 4.58366L11 0.916992ZM10.0833 15.0465L6.24708 11.2102L7.54325 9.91407L10.0833 12.4542L15.3927 7.14483L16.6888 8.44099L10.0833 15.0465Z" fill="currentColor"/>
    </symbol>
    <symbol id="slots-menu-1" viewBox="0 0 22 22" fill="none" xmlns="http://www.w3.org/2000/svg">
        <path d="M16.1256 3.58018C16.0711 3.5813 16.0168 3.5885 15.9638 3.60167H5.97785C5.94139 3.59555 5.90452 3.5922 5.86756 3.59164C5.61425 3.59024 5.37816 3.71966 5.24308 3.93396L0.970558 8.91977C0.806253 9.0654 0.715839 9.27699 0.724161 9.4964C0.732482 9.7158 0.838663 9.91993 1.01353 10.0527L10.4638 19.503C10.4662 19.5059 10.4685 19.5087 10.4709 19.5116L10.481 19.5202C10.5155 19.5549 10.5534 19.5861 10.5941 19.6133C10.596 19.6142 10.5979 19.6152 10.5999 19.6161C10.6175 19.6279 10.6357 19.6389 10.6543 19.6491C10.6581 19.6505 10.6619 19.652 10.6657 19.6534C10.75 19.6969 10.842 19.7236 10.9364 19.7321C10.9612 19.7344 10.9861 19.7353 11.0109 19.735C11.0205 19.7347 11.03 19.7342 11.0396 19.7336C11.052 19.7329 11.0644 19.732 11.0768 19.7307C11.0792 19.7307 11.0816 19.7307 11.084 19.7307C11.0883 19.7298 11.0926 19.7288 11.0969 19.7278C11.1166 19.7253 11.1362 19.7219 11.1556 19.7178C11.1749 19.7138 11.194 19.709 11.2129 19.7035C11.2177 19.7021 11.2224 19.7007 11.2272 19.6992C11.2325 19.6973 11.2377 19.6954 11.243 19.6935C11.2836 19.6793 11.3229 19.6615 11.3604 19.6405C11.3609 19.64 11.3614 19.6395 11.3618 19.639C11.3785 19.6297 11.3947 19.6196 11.4105 19.609C11.4144 19.6061 11.4182 19.6033 11.422 19.6004C11.4562 19.5764 11.4883 19.5496 11.518 19.5202L11.5237 19.5159C11.5271 19.5121 11.5304 19.5083 11.5337 19.5044L20.9868 10.0513C21.161 9.91826 21.2666 9.71433 21.2746 9.49532C21.2826 9.27632 21.1923 9.0652 21.0284 8.91977L16.7874 3.97263C16.6586 3.72734 16.4026 3.57552 16.1256 3.58018ZM10.9995 5.59828L13.2396 8.735H8.75936L10.9995 5.59828ZM16.4637 5.84607L18.9387 8.735H15.6387L16.4637 5.84607ZM5.53527 5.8475L6.36027 8.735H3.06027L5.53527 5.8475ZM8.40129 10.2017H13.5976L10.9995 16.9578L8.40129 10.2017Z" fill="currentColor"/>
    </symbol>
    <symbol id="slots-menu-2" viewBox="0 0 22 22" fill="none" xmlns="http://www.w3.org/2000/svg">
        <g clip-path="url(#clip0_882_60263)">
            <path d="M9.53463 1.4668C9.12963 1.4668 8.8013 1.79512 8.8013 2.20013C8.8013 5.9086 3.66797 8.80013 3.66797 13.9335C3.66797 17.8332 7.89453 20.3545 9.38281 20.5177C9.43273 20.5282 9.48362 20.5335 9.53464 20.5335C9.93964 20.5335 10.268 20.2051 10.268 19.8001C10.2679 19.5795 10.1684 19.3707 9.99727 19.2315C9.99727 19.231 9.99727 19.2306 9.99727 19.2301C9.32993 18.6889 8.06797 17.1188 8.06797 15.6852C8.06797 13.3319 10.268 12.4668 10.268 12.4668C9.01324 16.0161 13.1246 16.445 13.9518 19.9591H13.9533C14.0277 20.2943 14.3247 20.5329 14.668 20.5335C14.8224 20.5331 14.9728 20.484 15.0977 20.3931C15.1109 20.3835 15.1238 20.3735 15.1363 20.363C15.2557 20.2855 18.3346 18.2491 18.3346 13.9335C18.3346 12.1715 17.4534 9.14516 16.8193 7.80469C16.8187 7.80358 16.8184 7.80149 16.8178 7.80039C16.8174 7.79943 16.8169 7.79848 16.8164 7.79752C16.7059 7.5176 16.4356 7.3336 16.1346 7.33346C15.7813 7.3338 15.4784 7.5861 15.4142 7.93359C15.4142 7.93455 15.4142 7.9355 15.4142 7.93646C15.4124 7.94447 15.0756 9.44034 13.9346 10.2668C13.9346 6.8116 11.4401 3.24265 10.1247 1.76615C10.105 1.73941 10.0835 1.71405 10.0603 1.69023C9.92247 1.54778 9.73285 1.46718 9.53463 1.4668V1.4668Z" fill="currentColor"/>
        </g>
        <defs>
            <clipPath id="clip0_882_60263">
                <rect width="22" height="22" fill="white"/>
            </clipPath>
        </defs>
    </symbol>
    <symbol id="slots-menu-3" viewBox="0 0 22 22" fill="none" xmlns="http://www.w3.org/2000/svg">
        <g clip-path="url(#clip0_882_48532)">
            <path d="M11.2315 1.00031C10.2988 0.983029 9.39859 1.69635 9.1388 2.72944C8.80498 4.05242 9.47439 6.96342 9.83436 8.35101C8.77829 7.37878 6.52735 5.41431 5.2013 5.08203C4.01831 4.78436 2.80991 5.42224 2.54224 6.48216C2.42764 6.93828 2.49544 7.36133 2.66543 7.73207C2.81234 8.05358 2.73128 8.41123 2.45361 8.63044C2.1144 8.89811 1.84309 9.2609 1.74002 9.66702C1.47235 10.7285 2.23659 11.8601 3.41958 12.1578C4.74563 12.4909 7.65954 11.8222 9.04866 11.4623C8.07489 12.5153 6.10672 14.7648 5.77367 16.0878C5.47677 17.2685 6.11531 18.4747 7.17831 18.7409C7.5852 18.8432 8.03359 18.7764 8.42972 18.6041C8.75354 18.4634 9.10902 18.5608 9.32208 18.8415C9.56898 19.1669 9.91078 19.427 10.3677 19.5416C11.4314 19.8077 12.5638 19.0457 12.8615 17.865C13.1953 16.542 12.5259 13.631 12.1659 12.2434C13.2204 13.2157 15.4737 15.1809 16.799 15.5124C17.982 15.8093 19.1911 15.1722 19.458 14.1123C19.5603 13.7062 19.4921 13.2577 19.3198 12.8624C19.1783 12.5393 19.2764 12.1854 19.5587 11.9715C19.8848 11.7246 20.1441 11.3843 20.2587 10.9289C20.5264 9.86748 19.7637 8.73505 18.5807 8.43815C17.2546 8.10509 14.3392 8.77223 12.9501 9.1322C13.9239 8.07921 15.892 5.83113 16.2251 4.50816C16.522 3.32747 15.885 2.11974 14.822 1.85361C14.3651 1.739 13.9413 1.80758 13.5691 1.9768C13.2468 2.12371 12.8891 2.04187 12.6707 1.76497C12.403 1.42654 12.0395 1.15592 11.6326 1.05439C11.4998 1.02093 11.3647 1.00278 11.2315 1.00031L11.2315 1.00031ZM14.4464 16.0487C14.4887 16.5426 14.4957 16.9801 14.4734 17.3693C15.5857 18.7553 16.8553 20.0439 18.2036 20.8831C18.3298 20.9616 18.4693 20.9973 18.6077 20.9973C18.8646 20.9973 19.1174 20.8698 19.2627 20.6352C19.4873 20.2753 19.3756 19.8007 19.0149 19.5761C17.9842 18.9354 16.9915 17.9698 16.0824 16.896C15.604 16.7276 15.0602 16.4479 14.4464 16.0487V16.0487Z" fill="currentColor"/>
        </g>
        <defs>
            <clipPath id="clip0_882_48532">
                <rect width="22" height="22" fill="white"/>
            </clipPath>
        </defs>
    </symbol>
    <symbol id="slots-menu-4" viewBox="0 0 22 22" fill="none" xmlns="http://www.w3.org/2000/svg">
        <g clip-path="url(#clip0_882_48537)">
            <path d="M11.0001 1.4668C10.19 1.4668 9.5334 2.12345 9.5334 2.93346C9.53365 3.47481 9.83207 3.97201 10.3097 4.22682L7.40931 9.66524L3.46335 7.34349C3.5962 7.11826 3.66642 6.86162 3.66673 6.60013C3.66673 5.79011 3.01008 5.13346 2.20007 5.13346C1.39005 5.13346 0.733398 5.79011 0.733398 6.60013C0.733398 7.41015 1.39005 8.0668 2.20007 8.0668C2.24888 8.06636 2.29763 8.0635 2.34616 8.0582L2.9334 13.9335H5.1334H14.6667H16.8667H19.0667L19.654 8.05964C19.7025 8.06445 19.7513 8.06684 19.8001 8.0668C20.6101 8.0668 21.2667 7.41015 21.2667 6.60013C21.2667 5.79011 20.6101 5.13346 19.8001 5.13346C18.99 5.13346 18.3334 5.79011 18.3334 6.60013C18.3337 6.86162 18.4039 7.11826 18.5368 7.34349L14.5908 9.66524L11.6904 4.22682C12.1681 3.97201 12.4665 3.47481 12.4667 2.93346C12.4667 2.12345 11.8101 1.4668 11.0001 1.4668H11.0001ZM2.9334 15.4001V16.8668C2.9334 17.6771 3.58973 18.3335 4.40007 18.3335H17.6001C18.4104 18.3335 19.0667 17.6771 19.0667 16.8668V15.4001H2.9334Z" fill="currentColor"/>
        </g>
        <defs>
            <clipPath id="clip0_882_48537">
                <rect width="22" height="22" fill="white"/>
            </clipPath>
        </defs>
    </symbol>
    <symbol id="slots-menu-5" viewBox="0 0 22 22" fill="none" xmlns="http://www.w3.org/2000/svg">
        <path d="M11 0C4.94857 0 0 4.94857 0 11C0 17.0514 4.94857 22 11 22C17.0514 22 22 17.0514 22 11C22 4.94857 17.0514 0 11 0ZM11 1.08854C11.5514 1.08854 12.11 1.19596 12.6615 1.28906V3.58073C12.11 3.48763 11.5514 3.38021 11 3.38021C10.4486 3.38021 9.88997 3.48763 9.33854 3.58073V1.28906C9.88997 1.19596 10.4486 1.08854 11 1.08854ZM11 4.58333C14.5736 4.58333 17.4167 7.42643 17.4167 11C17.4167 14.5736 14.5736 17.4167 11 17.4167C7.42643 17.4167 4.58333 14.5736 4.58333 11C4.58333 7.42643 7.42643 4.58333 11 4.58333ZM3.38021 4.66927L5.41406 5.78646C4.59049 6.61003 4.0319 7.60905 3.66667 8.70833L1.74739 7.61979C2.11263 6.52051 2.64616 5.49284 3.38021 4.66927ZM18.6198 4.66927C19.3538 5.49284 19.8874 6.52051 20.2526 7.61979L18.3333 8.70833C17.9681 7.60905 17.4059 6.61003 16.6719 5.78646L18.6198 4.66927ZM3.66667 13.2917C4.0319 14.391 4.59408 15.39 5.32812 16.2135L3.38021 17.3307C2.64616 16.5072 2.11263 15.4795 1.74739 14.3802L3.66667 13.2917ZM18.2474 13.2917L20.1667 14.3802C19.891 15.4795 19.3538 16.5072 18.6198 17.3307L16.5859 16.2135C17.32 15.39 17.9717 14.391 18.2474 13.2917ZM9.33854 18.4193C9.88997 18.5124 10.4486 18.6198 11 18.6198C11.5514 18.6198 12.11 18.5124 12.6615 18.4193V20.7109C12.11 20.804 11.5514 20.9115 11 20.9115C10.4486 20.9115 9.88997 20.804 9.33854 20.7109V18.4193Z" fill="currentColor"/>
        <path d="M11.0239 6.95508C11.0239 6.95508 7.39453 8.95546 7.39453 11.4237C7.39453 12.4402 8.1927 13.2383 9.20919 13.2383C9.7465 13.2383 10.2172 12.9506 10.5475 12.6826C10.3107 13.3248 9.99602 14.0606 9.57212 14.6901C10.5518 14.5086 11.5314 14.5086 12.4756 14.6901C12.0715 14.0677 11.7497 13.3433 11.5115 12.7053C11.8405 12.9676 12.3125 13.2383 12.8385 13.2383C13.855 13.2383 14.6532 12.4402 14.6532 11.4237C14.6532 8.95546 11.0239 6.95508 11.0239 6.95508Z" fill="currentColor"/>
    </symbol>
    <symbol id="slots-menu-6" viewBox="0 0 22 22" fill="none" xmlns="http://www.w3.org/2000/svg">
        <g clip-path="url(#clip0_882_48547)">
            <path d="M10.2667 2.93367C10.0723 2.9337 9.88575 3.01098 9.74824 3.14851L7.76309 5.13367H2.20007C1.38973 5.13367 0.733398 5.79 0.733398 6.60033V16.867C0.733398 17.6773 1.38973 18.3337 2.20007 18.3337H13.9334C14.7437 18.3337 15.4001 17.6773 15.4001 16.867V6.60033V4.40033C15.4001 3.59876 14.735 2.93367 13.9334 2.93367H10.2667ZM16.8667 2.93367V3.54382C16.8536 3.62302 16.8536 3.70382 16.8667 3.78302V4.40033H17.6001H18.3334H19.0667C19.3312 4.40407 19.5772 4.26512 19.7105 4.03669C19.8438 3.80826 19.8438 3.52574 19.7105 3.29731C19.5772 3.06888 19.3312 2.92993 19.0667 2.93367H18.3334H17.6001H16.8667ZM10.5704 4.40033H13.9334V5.13367H9.83704L10.5704 4.40033ZM20.5334 6.60033C20.388 6.60048 20.2459 6.64385 20.1252 6.72494L16.8667 8.80033V11.7337V14.667L20.1152 16.7367C20.1269 16.7442 20.1388 16.7513 20.151 16.7581C20.266 16.829 20.3983 16.8666 20.5334 16.867C20.9384 16.867 21.2667 16.5387 21.2667 16.1337V11.7337V7.33367C21.2667 6.92866 20.9384 6.60033 20.5334 6.60033V6.60033ZM2.9334 7.33367H6.60006V9.53367H2.9334V7.33367Z" fill="currentColor"/>
        </g>
        <defs>
            <clipPath id="clip0_882_48547">
                <rect width="22" height="22" fill="white"/>
            </clipPath>
        </defs>
    </symbol>
    <symbol id="slots-menu-7" viewBox="0 0 22 22" fill="none" xmlns="http://www.w3.org/2000/svg">
        <path d="M9.084 1.27539C7.52359 1.27539 6.11133 1.67902 5.08874 2.08264H3.43325C2.54124 2.08264 1.81875 2.80513 1.81875 3.69714V18.2276C1.52762 18.2235 1.25684 18.3765 1.11007 18.6279C0.963309 18.8794 0.963309 19.1904 1.11007 19.4419C1.25684 19.6933 1.52762 19.8463 1.81875 19.8421H16.3493C16.6404 19.8463 16.9112 19.6933 17.0579 19.4419C17.2047 19.1904 17.2047 18.8794 17.0579 18.6279C16.9112 18.3765 16.6404 18.2235 16.3493 18.2276V3.69714C16.3493 2.80513 15.6268 2.08264 14.7347 2.08264H13.0793C12.0567 1.67901 10.6444 1.27539 9.084 1.27539ZM20.3855 3.69714C19.4938 3.69714 18.771 4.41998 18.771 5.31164C18.7715 5.88799 19.0791 6.42039 19.5783 6.70856V10.9624C19.5783 11.4185 19.2271 11.7696 18.771 11.7696H17.9638V13.3841H18.771C20.0989 13.3841 21.1927 12.2903 21.1927 10.9624V6.70699C21.6914 6.41909 21.999 5.88743 22 5.31164C22 4.41998 21.2772 3.69714 20.3855 3.69714L20.3855 3.69714ZM5.04775 4.50439H13.1202C14.0123 4.50439 14.7348 5.22688 14.7348 6.11889V9.34789C14.7348 10.2399 14.0123 10.9624 13.1202 10.9624H5.04775C4.15574 10.9624 3.43325 10.2399 3.43325 9.34789V6.11889C3.43325 5.22688 4.15574 4.50439 5.04775 4.50439ZM5.04775 6.11889V9.34789H6.66225V6.11889H5.04775ZM8.27675 6.11889V9.34789H9.89125V6.11889H8.27675ZM11.5057 6.11889V9.34789H13.1202V6.11889H11.5057ZM5.04775 13.3841H13.1202V16.6131H5.04775V13.3841Z" fill="currentColor"/>
    </symbol>

    <symbol id="icon-star" viewBox="0 0 18 18" fill="none" xmlns="http://www.w3.org/2000/svg">
        <path d="M8.63105 0.880881C8.76814 0.553585 9.23186 0.553585 9.36895 0.88088L11.5629 6.11915C11.6206 6.25684 11.7501 6.35096 11.8989 6.36326L17.5588 6.83115C17.9124 6.86038 18.0557 7.30141 17.7868 7.53293L13.4829 11.2382C13.3698 11.3356 13.3203 11.4879 13.3546 11.6332L14.6586 17.1607C14.74 17.506 14.3649 17.7786 14.0616 17.5944L9.20765 14.6461C9.08006 14.5686 8.91994 14.5686 8.79235 14.6461L3.9384 17.5944C3.63512 17.7786 3.25996 17.506 3.34143 17.1607L4.64544 11.6332C4.67972 11.4879 4.63023 11.3356 4.5171 11.2382L0.213192 7.53293C-0.0557235 7.30141 0.0875747 6.86038 0.441212 6.83115L6.10108 6.36326C6.24985 6.35096 6.3794 6.25684 6.43707 6.11915L8.63105 0.880881Z" fill="currentColor"/>
    </symbol>
    <symbol id="icon-plus" viewBox="0 0 16 16" fill="none" xmlns="http://www.w3.org/2000/svg">
        <path d="M8 4V12" stroke="currentColor" stroke-width="1.6" stroke-linecap="square" stroke-linejoin="round"/>
        <path d="M4 8H12" stroke="currentColor" stroke-width="1.6" stroke-linecap="square" stroke-linejoin="round"/>
    </symbol>
    <symbol id="icon-arrow" viewBox="0 0 16 16" fill="none" xmlns="http://www.w3.org/2000/svg">
        <path d="M13.7707 5.11523L8.00059 10.8853L2.23047 5.11523" stroke="currentColor" stroke-width="2"/>
    </symbol>
    <symbol id="icon-arrow-two" viewBox="0 0 12 12" fill="none" xmlns="http://www.w3.org/2000/svg">
        <path d="M0.00170876 5.99954L0.492894 6.5138L4.93089 11.1367L5.99994 10.1082L2.05329 5.9994L5.99994 1.89062L4.93089 0.862087L0.492894 5.485L0.00170876 5.99954Z" fill="currentColor"/>
        <path d="M6 5.99954L6.49118 6.5138L10.9292 11.1367L11.9982 10.1082L8.05158 5.9994L11.9982 1.89062L10.9292 0.862087L6.49118 5.485L6 5.99954Z" fill="currentColor"/>
    </symbol>
    <symbol id="icon-down" viewBox="0 0 20 20" fill="none" xmlns="http://www.w3.org/2000/svg">
        <path d="M5.53033 4.46967C5.23744 4.17678 4.76256 4.17678 4.46967 4.46967C4.17678 4.76256 4.17678 5.23744 4.46967 5.53033L5.53033 4.46967ZM15 15.75C15.4142 15.75 15.75 15.4142 15.75 15L15.75 8.25C15.75 7.83579 15.4142 7.5 15 7.5C14.5858 7.5 14.25 7.83579 14.25 8.25V14.25H8.25C7.83579 14.25 7.5 14.5858 7.5 15C7.5 15.4142 7.83579 15.75 8.25 15.75L15 15.75ZM4.46967 5.53033L14.4697 15.5303L15.5303 14.4697L5.53033 4.46967L4.46967 5.53033Z" fill="currentColor"/>
    </symbol>
    <symbol id="icon-i" viewBox="0 0 22 22" fill="none" xmlns="http://www.w3.org/2000/svg">
        <g clip-path="url(#clip0_645_60906)">
            <path d="M22.0003 11.0001C22.0003 17.0753 17.0753 22.0003 11.0001 22.0003C4.92492 22.0003 0 17.0753 0 11.0001C0 4.92492 4.92492 0 11.0001 0C17.0753 0 22.0003 4.92492 22.0003 11.0001Z" fill="currentColor"/>
            <path d="M13.0417 4.1788C13.5917 4.52318 13.7584 5.24818 13.414 5.79811C13.0697 6.34803 12.3447 6.5148 11.7947 6.17042C11.2447 5.82604 11.078 5.10103 11.4224 4.55111C11.7668 4.00107 12.4918 3.83441 13.0417 4.1788Z" fill="white"/>
            <path d="M9.05782 9.12546L9.35106 9.10638C9.58834 9.09089 9.81844 9.19071 9.96918 9.37455C10.12 9.55838 10.1729 9.80366 10.1114 10.0332L8.46668 16.1718C8.1537 17.3398 9.50549 18.1056 11.2874 17.2037C11.939 16.8739 12.8158 16.1671 13.5073 15.416C13.57 15.3483 13.5764 15.2462 13.5227 15.1712C13.4691 15.0963 13.3701 15.0694 13.286 15.1069C12.2789 15.5532 10.7313 16.0301 11.1373 14.5147L12.982 7.63034L8.97607 7.90683C8.75861 7.9218 8.5656 8.05146 8.46967 8.24709C8.37364 8.44283 8.38924 8.67485 8.51046 8.85592C8.63179 9.03701 8.84027 9.1397 9.05782 9.12546Z" fill="white"/>
        </g>
        <defs>
            <clipPath id="clip0_645_60906">
                <rect width="22.0003" height="22.0003" fill="white"/>
            </clipPath>
        </defs>
    </symbol>
    <symbol id="icon-check" viewBox="0 0 16 16" fill="none" xmlns="http://www.w3.org/2000/svg">
        <path d="M2.67578 8.28811L6.00019 11.6125L13.3139 4.29883" stroke="currentColor" stroke-width="1.8" stroke-linecap="square"/>
    </symbol>
    <symbol id="icon-close" viewBox="0 0 16 16" fill="none" xmlns="http://www.w3.org/2000/svg">
        <path d="M13.4218 2.57812L2.57812 13.4218" stroke="currentColor" stroke-width="1.73502"/>
        <path d="M2.57812 2.57812L13.4218 13.4218" stroke="currentColor" stroke-width="1.73502"/>
    </symbol>
    <symbol id="icon-box" viewBox="0 0 20 20" fill="none" xmlns="http://www.w3.org/2000/svg">
        <path d="M2.4974 9.5451V16.666V18.3327H4.16406H9.29965V9.5451H2.4974Z" fill="currentColor"/>
        <path fill-rule="evenodd" clip-rule="evenodd" d="M5.83073 1.66602C4.46029 1.66602 3.33073 2.79557 3.33073 4.16602C3.33073 4.45898 3.39258 4.73568 3.48698 4.99935H3.33073L3.32863 4.99935H1.66406V6.66602V8.33268H18.3307V6.66602V4.99935H16.6641H16.5078C16.6022 4.73568 16.6641 4.45899 16.6641 4.16602C16.6641 2.79557 15.5345 1.66602 14.1641 1.66602C12.8359 1.66602 11.804 2.50911 10.987 3.33268H9.00781C8.19076 2.50911 7.15885 1.66602 5.83073 1.66602ZM8.07031 4.73893C7.34115 3.9707 6.38086 3.33268 5.83073 3.33268C5.35872 3.33268 4.9974 3.69401 4.9974 4.16602C4.9974 4.63802 5.35873 4.99935 5.83073 4.99935H8.27865C8.22854 4.94187 8.20645 4.90975 8.18581 4.87972C8.16086 4.84342 8.13801 4.81019 8.07031 4.73893ZM14.9974 4.16602C14.9974 3.69401 14.6361 3.33268 14.1641 3.33268C13.6139 3.33268 12.6536 3.97071 11.9245 4.73893C11.8568 4.81019 11.8339 4.84342 11.809 4.87972C11.7883 4.90975 11.7663 4.94187 11.7161 4.99935H14.1641C14.6361 4.99935 14.9974 4.63802 14.9974 4.16602Z" fill="currentColor"/>
        <path d="M17.4974 16.666V9.5451H10.695V18.3327H15.8307H17.4974V16.666Z" fill="currentColor"/>
    </symbol>
    <symbol id="icon-verified" viewBox="0 0 22 22" fill="none" xmlns="http://www.w3.org/2000/svg">
        <path d="M10.59 1.8569C10.7826 1.5592 11.2182 1.5592 11.4109 1.8569L12.8997 4.15752C13.0254 4.35181 13.2701 4.43133 13.4861 4.34805L16.0428 3.36191C16.3737 3.2343 16.726 3.49033 16.7069 3.84441L16.5591 6.58076C16.5466 6.81184 16.6979 7.02002 16.9215 7.07956L19.5696 7.78457C19.9123 7.8758 20.0469 8.29006 19.8233 8.56528L18.0953 10.6922C17.9494 10.8718 17.9494 11.1291 18.0953 11.3087L19.8233 13.4356C20.0469 13.7108 19.9123 14.1251 19.5696 14.2163L16.9215 14.9213C16.6979 14.9808 16.5466 15.189 16.5591 15.4201L16.7069 18.1565C16.726 18.5105 16.3737 18.7666 16.0428 18.639L13.4861 17.6528C13.2701 17.5695 13.0254 17.6491 12.8997 17.8433L11.4109 20.144C11.2182 20.4417 10.7826 20.4417 10.59 20.144L9.10118 17.8433C8.97545 17.6491 8.73072 17.5695 8.5148 17.6528L5.95805 18.639C5.62721 18.7666 5.27482 18.5105 5.29395 18.1565L5.44174 15.4201C5.45422 15.189 5.30297 14.9808 5.07934 14.9213L2.43125 14.2163C2.08859 14.1251 1.95398 13.7108 2.17758 13.4356L3.90554 11.3087C4.05146 11.1291 4.05146 10.8718 3.90554 10.6922L2.17758 8.56528C1.95398 8.29006 2.08858 7.8758 2.43125 7.78457L5.07934 7.07956C5.30297 7.02002 5.45422 6.81184 5.44174 6.58076L5.29395 3.84441C5.27482 3.49033 5.62721 3.2343 5.95805 3.36191L8.5148 4.34805C8.73072 4.43133 8.97545 4.35181 9.10118 4.15752L10.59 1.8569Z" fill="currentColor"/>
        <path d="M9.78763 13.8711C9.94877 14.0322 10.2227 14.0322 10.3838 13.8711L15.1212 9.13373C15.2823 8.9726 15.2823 8.69867 15.1212 8.53753L14.5411 7.95745C14.38 7.79631 14.1222 7.79631 13.961 7.95745L10.0938 11.8247L8.27296 10.02C8.11183 9.85884 7.85401 9.85884 7.69288 10.02L7.11279 10.6001C6.95166 10.7612 6.95166 11.0351 7.11279 11.1963L9.78763 13.8711Z" fill="white"/>
    </symbol>

    <symbol id="icon-filter-1" viewBox="0 0 22 22" fill="none" xmlns="http://www.w3.org/2000/svg">
        <path d="M20.8601 8.53788L17.0451 3.21582L15.1406 8.53788H20.8601Z" fill="currentColor"/>
        <path d="M16.7137 2.99902H11.2188L14.8182 8.30876L16.7137 2.99902Z" fill="currentColor"/>
        <path d="M10.504 2.99902H5.27734L7.16643 8.29643L10.504 2.99902Z" fill="currentColor"/>
        <path d="M14.5083 8.53591L10.8595 3.1582L7.47266 8.53591H14.5083Z" fill="currentColor"/>
        <path d="M4.94891 3.21777L1.13672 8.53666H6.85324L4.94891 3.21777Z" fill="currentColor"/>
        <path d="M1.20312 8.91992L10.704 18.9819L6.98762 8.91992H1.20312Z" fill="currentColor"/>
        <path d="M7.39453 8.91992L10.9972 19.0002L14.5966 8.91992H7.39453Z" fill="currentColor"/>
        <path d="M11.2891 18.9819L20.7931 8.91992H15.0058L11.2891 18.9819Z" fill="currentColor"/>
    </symbol>
    <symbol id="icon-filter-2" viewBox="0 0 22 22" fill="none" xmlns="http://www.w3.org/2000/svg">
        <g clip-path="url(#clip0_645_60975)">
            <path d="M14.938 0.511719C11.3187 0.511719 8.38236 2.07551 8.38236 4.00805C8.38236 5.94059 11.3187 7.50437 14.938 7.50437C18.5572 7.50437 21.4936 5.94059 21.4936 4.00805C21.4936 2.07551 18.5572 0.511719 14.938 0.511719ZM8.43699 5.31917C8.40285 5.46257 8.38236 5.60598 8.38236 5.75621V6.63029C8.38236 7.37121 8.81599 8.0575 9.55691 8.62429C10.8339 8.88378 11.9367 9.34131 12.7801 9.93541C13.4527 10.0617 14.1834 10.1266 14.938 10.1266C18.5572 10.1266 21.4936 8.56283 21.4936 6.63029V5.75621C21.4936 5.60598 21.4731 5.46257 21.439 5.31917C21.0361 7.04343 18.2806 8.37845 14.938 8.37845C11.5953 8.37845 8.83989 7.04343 8.43699 5.31917ZM21.439 7.94141C21.0361 9.66568 18.2806 11.0007 14.938 11.0007C14.5692 11.0007 14.2244 10.9768 13.8727 10.9461C14.279 11.489 14.4975 12.107 14.5009 12.7489C14.6443 12.7523 14.7912 12.7489 14.938 12.7489C18.5572 12.7489 21.4936 11.1851 21.4936 9.25253V8.37845C21.4936 8.22822 21.4731 8.08482 21.439 7.94141V7.94141ZM7.07124 9.25253C3.45199 9.25253 0.515625 10.8163 0.515625 12.7489C0.515625 14.6814 3.45199 16.2452 7.07124 16.2452C10.6905 16.2452 13.6268 14.6814 13.6268 12.7489C13.6268 10.8163 10.6905 9.25253 7.07124 9.25253ZM21.439 10.5637C21.0361 12.2879 18.2806 13.6229 14.938 13.6229C14.7912 13.6229 14.6443 13.6264 14.5009 13.6229V15.3711C14.6443 15.3745 14.7912 15.3711 14.938 15.3711C18.5572 15.3711 21.4936 13.8073 21.4936 11.8748V11.0007C21.4936 10.8505 21.4731 10.7071 21.439 10.5637V10.5637ZM21.439 13.1859C21.0361 14.9102 18.2806 16.2452 14.938 16.2452C14.7912 16.2452 14.6443 16.2486 14.5009 16.2452V17.9933C14.6443 17.9968 14.7912 17.9933 14.938 17.9933C18.5572 17.9933 21.4936 16.4296 21.4936 14.497V13.6229C21.4936 13.4727 21.4731 13.3293 21.439 13.1859V13.1859ZM0.570256 14.06C0.536111 14.2034 0.515625 14.3468 0.515625 14.497V15.3711C0.515625 17.3036 3.45199 18.8674 7.07124 18.8674C10.6905 18.8674 13.6268 17.3036 13.6268 15.3711V14.497C13.6268 14.3468 13.6064 14.2034 13.5722 14.06C13.1693 15.7842 10.4139 17.1193 7.07124 17.1193C3.72856 17.1193 0.973153 15.7842 0.570256 14.06ZM0.570256 16.6822C0.536111 16.8256 0.515625 16.969 0.515625 17.1193V17.9933C0.515625 19.9259 3.45199 21.4897 7.07124 21.4897C10.6905 21.4897 13.6268 19.9259 13.6268 17.9933V17.1193C13.6268 16.969 13.6064 16.8256 13.5722 16.6822C13.1693 18.4065 10.4139 19.7415 7.07124 19.7415C3.72856 19.7415 0.973153 18.4065 0.570256 16.6822Z" fill="currentColor"/>
        </g>
        <defs>
            <clipPath id="clip0_645_60975">
                <rect width="22" height="22" fill="white"/>
            </clipPath>
        </defs>
    </symbol>
    <symbol id="icon-filter-3" viewBox="0 0 22 22" fill="none" xmlns="http://www.w3.org/2000/svg">
        <g clip-path="url(#clip0_645_60980)">
            <path d="M2.7487 10.5V18.333V20.1663H4.58203H10.2312V10.5H2.7487Z" fill="currentColor"/>
            <path fill-rule="evenodd" clip-rule="evenodd" d="M6.41536 1.83301C4.90788 1.83301 3.66536 3.07552 3.66536 4.58301C3.66536 4.90527 3.7334 5.20964 3.83724 5.49968H3.66536L3.66306 5.49968H1.83203V7.33301V9.16634H20.1654V7.33301V5.49968H18.332H18.1602C18.264 5.20964 18.332 4.90527 18.332 4.58301C18.332 3.07552 17.0895 1.83301 15.582 1.83301C14.1211 1.83301 12.986 2.76042 12.0872 3.66634H9.91016C9.01139 2.76042 7.8763 1.83301 6.41536 1.83301ZM8.87891 5.21322C8.07682 4.36817 7.02051 3.66634 6.41536 3.66634C5.89616 3.66634 5.4987 4.0638 5.4987 4.58301C5.4987 5.10221 5.89616 5.49968 6.41537 5.49968H9.10807C9.05295 5.43645 9.02866 5.40111 9.00595 5.36808C8.9785 5.32816 8.95337 5.2916 8.87891 5.21322ZM16.4987 4.58301C16.4987 4.0638 16.1012 3.66634 15.582 3.66634C14.9769 3.66634 13.9206 4.36817 13.1185 5.21322C13.044 5.2916 13.0189 5.32816 12.9914 5.36808C12.9687 5.40111 12.9444 5.43645 12.8893 5.49968H15.582C16.1012 5.49968 16.4987 5.10221 16.4987 4.58301Z" fill="currentColor"/>
            <path d="M19.2487 18.333V10.5H11.7661V20.1663H17.4154H19.2487V18.333Z" fill="currentColor"/>
        </g>
        <defs>
            <clipPath id="clip0_645_60980">
                <rect width="22" height="22" fill="white"/>
            </clipPath>
        </defs>
    </symbol>
    <symbol id="icon-filter-4" viewBox="0 0 28 28" fill="none" xmlns="http://www.w3.org/2000/svg">
        <g clip-path="url(#clip0_1856_74465)">
            <path d="M17.8621 2.28027C15.1958 2.28027 13.0345 4.44158 13.0345 7.10786C13.0345 9.77413 15.1958 11.9354 17.8621 11.9354C20.5283 11.9354 22.6897 9.77413 22.6897 7.10786C22.6897 4.44158 20.5283 2.28027 17.8621 2.28027ZM16.6627 4.69407H19.035V5.39463H17.2916L17.1926 6.48272C17.3833 6.31231 17.6518 6.22814 17.8941 6.22814C18.779 6.22814 19.3103 6.83718 19.3103 7.86594C19.3103 8.91449 18.6425 9.46508 17.731 9.46508C17.0493 9.46508 16.7088 9.32084 16.4138 9.09829L16.7872 8.40338C17.1212 8.64573 17.4228 8.73811 17.7178 8.73811C18.2488 8.73811 18.6428 8.43042 18.6428 7.86028C18.6428 7.25104 18.269 6.94191 17.863 6.94191C17.6207 6.94191 17.3773 7.04056 17.1615 7.27663L16.4798 6.98905L16.6627 4.69407ZM24.8621 5.17682C24.36 5.17682 23.8871 5.29732 23.4666 5.50684C23.5863 6.00794 23.6552 6.5411 23.6552 7.10786C23.6552 8.40648 23.3273 9.61368 22.734 10.6154C23.2935 11.1334 24.0394 11.4527 24.8621 11.4527C26.5952 11.4527 28 10.0479 28 8.31476C28 6.58165 26.5952 5.17682 24.8621 5.17682ZM0 8.07338V24.4872H27.0345V12.3522C26.4547 12.6655 25.7986 12.852 25.1034 12.8887V20.6251C24.037 20.6251 23.1724 21.4897 23.1724 22.5561H3.86207C3.86207 21.4897 2.99745 20.6251 1.93103 20.6251V11.9354C2.99745 11.9354 3.86207 11.0708 3.86207 10.0044H12.3C11.9891 9.41014 11.7749 8.75986 11.6682 8.07338H0ZM13.5172 12.901C11.1174 12.901 9.17241 15.2785 9.17241 18.2113C9.17241 19.0812 9.34728 19.9005 9.65046 20.6251H17.384C17.6877 19.9005 17.8621 19.0812 17.8621 18.2113C17.8621 15.2785 15.917 12.901 13.5172 12.901H13.5172ZM5.31034 14.832C4.51048 14.832 3.86207 15.4804 3.86207 16.2803C3.86207 17.0801 4.51048 17.7285 5.31034 17.7285C6.11021 17.7285 6.75862 17.0801 6.75862 16.2803C6.75862 15.4804 6.11021 14.832 5.31034 14.832ZM21.7241 14.832C20.9243 14.832 20.2759 15.4804 20.2759 16.2803C20.2759 17.0801 20.9243 17.7285 21.7241 17.7285C22.524 17.7285 23.1724 17.0801 23.1724 16.2803C23.1724 15.4804 22.524 14.832 21.7241 14.832Z" fill="currentColor"/>
        </g>
        <defs>
            <clipPath id="clip0_1856_74465">
                <rect width="28" height="28" fill="white"/>
            </clipPath>
        </defs>
    </symbol>
    <svg id="icon-filter-5" viewBox="0 0 28 28" fill="none" xmlns="http://www.w3.org/2000/svg">
        <path d="M3.0625 5.25C2.09606 5.25 1.3125 6.03356 1.3125 7V9.1875H26.6875V7C26.6875 6.03356 25.9039 5.25 24.9375 5.25H3.0625ZM1.3125 10.9666V21C1.3125 21.9664 2.09606 22.75 3.0625 22.75H16.1875C16.4062 21 16.625 18.0127 16.625 18.0127L18.0127 16.625H18.375C20.5586 16.625 21.2139 15.9136 21.3127 15.7876L21.6562 15.3125H22.0938H23.8438L24.1881 15.7885C24.2774 15.9022 25.4953 16.474 26.6875 16.1354V11.8125L1.3125 10.9666ZM4.375 14H10.9375V15.75H4.375V14ZM22.0938 16.1875C22.0938 16.1875 21.4659 17.5 18.375 17.5L17.5 18.375V21.8177C17.5 26.3354 22.75 28 22.75 28C22.75 28 28 26.3354 28 21.8177V18.375L27.125 17.5C24.0341 17.5 23.4062 16.1875 23.4062 16.1875H22.0938Z" fill="currentColor"/>
    </svg>
    <symbol id="icon-filter-6" viewBox="0 0 28 28" fill="none" xmlns="http://www.w3.org/2000/svg">
        <path d="M7.46718 1C6.86581 1.00006 6.37831 1.48756 6.37825 2.08893V12.9782C5.77716 12.9782 5.28932 13.4661 5.28932 14.0672C5.28932 14.6683 5.77716 15.1561 6.37825 15.1561H21.6233C22.2244 15.1561 22.7122 14.6683 22.7122 14.0672C22.7122 13.4661 22.2244 12.9782 21.6233 12.9782V2.08893C21.6232 1.48756 21.1357 1.00006 20.5344 1H7.46718ZM10.734 3.17786H17.2676C17.2676 4.38066 18.2426 5.35573 19.4454 5.35573V14.0672H17.2676C17.2676 12.2628 15.8051 10.8004 14.0008 10.8004C12.1964 10.8004 10.734 12.2628 10.734 14.0672H8.55611V5.35573C9.75892 5.35573 10.734 4.38066 10.734 3.17786ZM3.11146 4.2668C1.90819 4.2668 0.933594 5.24139 0.933594 6.44466V20.6008C0.933594 21.804 1.90819 22.7786 3.11146 22.7786H24.8901C26.0934 22.7786 27.068 21.804 27.068 20.6008V6.44466C27.068 5.24139 26.0934 4.2668 24.8901 4.2668H23.8012V6.44466H24.8901V18.4229H3.11146V6.44466H4.20039V4.2668H3.11146ZM14.0008 6.44466C13.3994 6.44466 12.9118 6.93219 12.9118 7.53359C12.9118 8.13499 13.3994 8.62252 14.0008 8.62252C14.6022 8.62252 15.0897 8.13499 15.0897 7.53359C15.0897 6.93219 14.6022 6.44466 14.0008 6.44466ZM14.0008 19.5118C14.6019 19.5118 15.0897 19.9997 15.0897 20.6008C15.0897 21.2019 14.6019 21.6897 14.0008 21.6897C13.3997 21.6897 12.9118 21.2019 12.9118 20.6008C12.9118 19.9997 13.3997 19.5118 14.0008 19.5118Z" fill="currentColor"/>
        <path d="M7.60015 25.4965C7.79292 25.1662 8.14431 24.9619 8.52519 24.9565H7.38685V27.1344H8.52519C8.14431 27.129 7.79292 26.9247 7.60015 26.5944C7.40218 26.2552 7.40218 25.8357 7.60015 25.4965Z" fill="currentColor"/>
        <path d="M20.4014 25.4965C20.4067 25.5055 20.4118 25.5146 20.4168 25.5237V24.9565H19.4764C19.8572 24.9619 20.2086 25.1662 20.4014 25.4965Z" fill="currentColor"/>
        <path d="M20.4014 26.5944C20.2086 26.9247 19.8572 27.129 19.4764 27.1344H20.4168V26.5671C20.4118 26.5763 20.4067 26.5854 20.4014 26.5944Z" fill="currentColor"/>
        <path d="M7.60015 25.4965C7.40218 25.8357 7.40218 26.2552 7.60015 26.5944C7.79292 26.9247 8.14431 27.129 8.52519 27.1344H8.55611H19.4454H19.4764C19.8572 27.129 20.2086 26.9247 20.4014 26.5944C20.4067 26.5854 20.4118 26.5763 20.4168 26.5671V25.5237C20.4118 25.5146 20.4067 25.5055 20.4014 25.4965C20.2086 25.1662 19.8572 24.9619 19.4764 24.9565H19.4454H8.55611H8.52519C8.14431 24.9619 7.79292 25.1662 7.60015 25.4965Z" fill="currentColor"/>
    </symbol>
    <symbol id="icon-filter-7" viewBox="0 0 28 28" fill="none" xmlns="http://www.w3.org/2000/svg">
        <path d="M25.7401 1.50195L0.0273438 5.93786L0.81044 10.4747L2.83238 10.3993L2.68732 9.55147C3.78126 9.3658 4.51379 8.32651 4.3231 7.23257L22.1275 4.16193C22.3132 5.25587 23.3515 5.98839 24.4454 5.79771L25.1031 9.60636L27.125 9.53579L25.7401 1.50195ZM14.1309 8.09995C13.9703 8.09935 13.8086 8.11289 13.6467 8.14111C13.3883 8.18502 13.143 8.2648 12.9126 8.37536C12.7975 8.43063 12.6857 8.49319 12.5784 8.56354C12.4712 8.63389 12.3685 8.71145 12.2697 8.79582C12.1709 8.88019 12.0762 8.97096 11.9865 9.06828C11.7173 9.36025 11.49 9.70884 11.3131 10.0984L17.0486 9.89254C16.9458 9.73573 16.8358 9.58696 16.7193 9.44758C16.6029 9.3082 16.481 9.17782 16.3528 9.05751C15.9682 8.69656 15.5346 8.42569 15.0757 8.26559C14.7698 8.15886 14.4522 8.10115 14.1309 8.09995L14.1309 8.09995ZM21.6286 8.35085C21.5287 8.34761 21.427 8.35387 21.3248 8.37144C21.2364 8.38649 21.1508 8.40972 21.069 8.43906C20.9872 8.46841 20.9087 8.50477 20.8348 8.54687C20.6868 8.63108 20.5557 8.73932 20.4457 8.8654C20.3906 8.92844 20.3406 8.99511 20.2967 9.06632C20.2528 9.13754 20.2146 9.2129 20.183 9.29076C20.1514 9.36862 20.1268 9.44889 20.1085 9.53187C20.0902 9.61484 20.0789 9.70013 20.0752 9.78669L23.0762 9.67692C23.0762 9.65183 23.0705 9.62655 23.0654 9.60145C23.0303 9.39697 22.9558 9.20934 22.8498 9.04476C22.7439 8.88018 22.6067 8.73858 22.449 8.62724C22.2123 8.46023 21.9285 8.36059 21.6286 8.35085H21.6286ZM1.01626 11.4881V26.5424H27.1103V11.4881H1.01626ZM5.03073 13.4954H23.0958C23.0958 14.6039 23.9946 15.5026 25.1031 15.5026V22.5279C23.9946 22.5279 23.0958 23.4267 23.0958 24.5352H5.03073C5.03073 23.4267 4.13199 22.5279 3.02349 22.5279V15.5026C4.13199 15.5026 5.03073 14.6039 5.03073 13.4954ZM14.0633 15.9731C12.1233 15.9731 10.5506 18.0006 10.5506 20.5011C10.5506 21.2433 10.6914 21.9411 10.9368 22.5593H17.1898C17.4352 21.9416 17.5759 21.2433 17.5759 20.5011C17.5759 18.0001 16.0033 15.9731 14.0633 15.9731H14.0633ZM6.53615 17.5098C5.70473 17.5098 5.03073 18.1838 5.03073 19.0153C5.03073 19.8467 5.70473 20.5207 6.53615 20.5207C7.36758 20.5207 8.04158 19.8467 8.04158 19.0153C8.04158 18.1838 7.36758 17.5098 6.53615 17.5098ZM21.5904 17.5098C20.759 17.5098 20.085 18.1838 20.085 19.0153C20.085 19.8467 20.759 20.5207 21.5904 20.5207C22.4218 20.5207 23.0958 19.8467 23.0958 19.0153C23.0958 18.1838 22.4218 17.5098 21.5904 17.5098Z" fill="currentColor"/>
    </symbol>



    <symbol id="icon-top-3" viewBox="0 0 20 20" fill="none" xmlns="http://www.w3.org/2000/svg">
        <g clip-path="url(#clip0_645_60900)">
            <path d="M8.66571 1.33301C8.29771 1.33301 7.99904 1.63167 7.99904 1.99967V5.03483L6.56154 7.64421C6.43973 7.45096 6.22747 7.33353 5.99904 7.33301H1.99904C1.81403 7.33293 1.63731 7.40973 1.51114 7.54504C1.38497 7.68035 1.32069 7.862 1.33368 8.04655L2.00034 17.3799C2.02499 17.7291 2.31559 17.9998 2.66571 17.9997H5.99904C6.36722 17.9996 6.66567 17.7012 6.66571 17.333H7.76467C8.00162 17.7358 8.42403 17.9997 8.90139 17.9997H15.3324C16.0688 17.9997 16.6657 17.4027 16.6657 16.6663C16.6652 16.4291 16.6014 16.1962 16.4808 15.9919C17.3399 15.915 17.9984 15.1955 17.999 14.333C17.9984 13.9253 17.8483 13.532 17.5772 13.2275C18.2307 12.9858 18.6649 12.3631 18.6657 11.6663C18.6651 11.1413 18.4171 10.6472 17.9964 10.333C18.4171 10.0188 18.6651 9.52473 18.6657 8.99967C18.6657 8.0792 17.9195 7.33301 16.999 7.33301H11.0043C11.1784 6.55556 11.3324 5.72649 11.3324 5.33301C11.3324 3.80567 10.1231 1.33301 9.30243 1.33301H8.66571ZM2.71519 8.66634H5.33238V16.6663H3.2868L2.71519 8.66634Z" fill="currentColor"/>
        </g>
        <defs>
            <clipPath id="clip0_645_60900">
                <rect width="20" height="20" fill="white"/>
            </clipPath>
        </defs>
    </symbol>
    <symbol id="icon-timer" viewBox="0 0 13 13" fill="none" xmlns="http://www.w3.org/2000/svg">
        <path d="M12 7.71875C12 6.67773 11.6562 5.6875 11.101 4.84961H11.1274L11.8942 4.08789C12.0264 3.98633 12.0264 3.7832 11.8942 3.65625L11.1538 2.94531C11.0216 2.81836 10.8101 2.81836 10.7043 2.94531L9.96394 3.65625C9.22356 3.07227 8.32452 2.66602 7.34615 2.51367V1.625H8.08654C8.24519 1.625 8.40385 1.49805 8.40385 1.32031V0.304688C8.40385 0.152344 8.24519 0 8.08654 0H4.91346C4.72837 0 4.59615 0.152344 4.59615 0.304688V1.32031C4.59615 1.49805 4.72837 1.625 4.91346 1.625H5.65385V2.51367C3.00962 2.89453 1 5.07812 1 7.71875C1 10.6387 3.45913 13 6.5 13C9.51442 13 12 10.6387 12 7.71875ZM7.34615 8.63281C7.34615 8.81055 7.1875 8.9375 7.02885 8.9375H5.97115C5.78606 8.9375 5.65385 8.81055 5.65385 8.63281V4.79883C5.65385 4.62109 5.78606 4.49414 5.97115 4.49414H7.02885C7.1875 4.49414 7.34615 4.62109 7.34615 4.79883V8.63281Z" fill="currentColor"/>
    </symbol>


    <symbol id="icon-user" viewBox="0 0 20 20" fill="none" xmlns="http://www.w3.org/2000/svg">
        <path fill-rule="evenodd" clip-rule="evenodd" d="M16.5078 16.6787C16.5078 16.9004 16.3253 17.084 16.1004 17.084H3.79021C3.56849 17.084 3.38281 16.9027 3.38281 16.6787C3.38281 13.0964 6.32099 10.192 9.94528 10.192C13.5696 10.192 16.5077 13.0963 16.5077 16.6787H16.5078ZM9.94535 9.38136C7.90664 9.38136 6.25419 7.74771 6.25419 5.73282C6.25419 3.71764 7.90664 2.08398 9.94535 2.08398C11.9841 2.08398 13.6365 3.71764 13.6365 5.73282C13.6365 7.74771 11.9841 9.38136 9.94535 9.38136Z" fill="currentColor"/>
    </symbol>

    <symbol id="icon-highroller-1" viewBox="0 0 32 32" fill="none" xmlns="http://www.w3.org/2000/svg">
        <path d="M6.4 5C5.08 5 4 6.08947 4 7.42105V21.9474L7.6 18.3158H18.4C19.72 18.3158 20.8 17.2263 20.8 15.8947V7.42105C20.8 6.08947 19.72 5 18.4 5H6.4ZM23.2 11.0526V15.8947C23.2 18.5652 21.0472 20.7368 18.4 20.7368H11.2V21.9474C11.2 23.2789 12.28 24.3684 13.6 24.3684H24.4L28 28V13.4737C28 12.1421 26.92 11.0526 25.6 11.0526L23.2 11.0526Z" fill="currentColor"/>
    </symbol>
    <symbol id="icon-highroller-2" viewBox="0 0 32 32" fill="none" xmlns="http://www.w3.org/2000/svg">
        <path d="M22.1675 5C20.5997 5 19.2642 5.62692 18.4072 6.58165C17.5503 7.53638 17.1505 8.7606 17.1505 9.96813C17.1505 11.1757 17.5503 12.3999 18.4072 13.3546C19.2642 14.3093 20.5997 14.9363 22.1675 14.9363C23.7354 14.9363 25.0709 14.3093 25.9279 13.3546C26.7848 12.3999 27.1845 11.1757 27.1845 9.96813C27.1845 8.7606 26.7848 7.53638 25.9279 6.58165C25.0709 5.62692 23.7354 5 22.1675 5ZM6.77359 5.38813L5 7.14445L7.85146 9.96813L5 12.7918L6.77359 14.5481L9.62505 11.7244L12.4765 14.5481L14.2501 12.7918L11.3986 9.96813L14.2501 7.14445L12.4765 5.38813L9.62505 8.21182L6.77359 5.38813ZM22.1994 17.0322C21.7497 17.0206 21.3282 17.2483 21.0946 17.629L16.5161 25.1151C16.2819 25.4987 16.2745 25.9774 16.4968 26.3678C16.719 26.7583 17.1364 26.9998 17.589 27H26.7461C27.1987 26.9998 27.6161 26.7583 27.8383 26.3678C28.0606 25.9774 28.0532 25.4987 27.819 25.1151L23.2405 17.629C23.0187 17.2675 22.6264 17.0426 22.1994 17.0322H22.1994ZM6.48942 18.0413C5.79675 18.0414 5.23524 18.5975 5.23517 19.2834V25.4935C5.23524 26.1795 5.79675 26.7355 6.48942 26.7356H12.7607C13.4533 26.7355 14.0149 26.1795 14.0149 25.4935V19.2834C14.0149 18.5975 13.4533 18.0414 12.7607 18.0413H6.48942Z" fill="currentColor"/>
    </symbol>
    <symbol id="icon-highroller-3" viewBox="0 0 32 32" fill="none" xmlns="http://www.w3.org/2000/svg">
        <path d="M10.9966 6C9.61524 6 8.49642 7.11882 8.49642 8.50016V9.75024H28.4977V8.50016C28.4977 7.11882 27.3789 6 25.9976 6H10.9966ZM5.99626 11.0003C4.61492 11.0003 3.49609 12.1191 3.49609 13.5005V23.5011C3.49609 24.8825 4.61492 26.0013 5.99626 26.0013H20.9972C22.3786 26.0013 23.4974 24.8825 23.4974 23.5011H10.9966C8.23515 23.5011 5.99625 21.2622 5.99625 18.5008L5.99626 11.0003ZM8.49642 12.2504V18.5008C8.49642 19.8822 9.61524 21.001 10.9966 21.001H25.9976C27.3789 21.001 28.4977 19.8822 28.4977 18.5008V12.2504H8.49642Z" fill="currentColor"/>
    </symbol>

    <symbol id="icon-mobile-1" viewBox="0 0 32 32" fill="none" xmlns="http://www.w3.org/2000/svg">
        <path d="M6.62095 11.4238C6.17297 11.4238 5.79287 11.58 5.48043 11.8925C5.16799 12.2049 5.01172 12.5799 5.01172 13.0174V19.7361C5.01172 20.1847 5.16794 20.5645 5.48043 20.8769C5.79287 21.1894 6.17297 21.3457 6.62095 21.3457C7.0686 21.3457 7.44639 21.1894 7.75399 20.8769C8.06098 20.5645 8.2149 20.1847 8.2149 19.7361V13.0174C8.2149 12.5798 8.05867 12.2049 7.74618 11.8925C7.43369 11.58 7.05854 11.4238 6.62095 11.4238Z" fill="currentColor"/>
        <path d="M19.5582 5.39042L20.6676 3.34388C20.7404 3.20839 20.7145 3.1045 20.5897 3.03144C20.4541 2.96844 20.35 3.00037 20.2772 3.12495L19.1523 5.18784C18.1625 4.75021 17.1156 4.53099 16.0116 4.53099C14.9074 4.53099 13.8603 4.75025 12.8709 5.18784L11.7459 3.12495C11.6728 3.00037 11.5687 2.96873 11.4335 3.03144C11.3083 3.10483 11.2824 3.20839 11.3555 3.34388L12.465 5.39042C11.34 5.96411 10.4441 6.76308 9.77743 7.78907C9.1108 8.81563 8.77734 9.93744 8.77734 11.1565H23.2301C23.2301 9.93772 22.8966 8.81587 22.23 7.78907C21.5633 6.76308 20.6726 5.96411 19.5582 5.39042ZM13.1442 8.36714C13.0242 8.48739 12.8809 8.54724 12.7144 8.54724C12.5475 8.54724 12.4071 8.48739 12.2926 8.36714C12.1781 8.24744 12.1208 8.10471 12.1208 7.93759C12.1208 7.77102 12.1781 7.62801 12.2926 7.50804C12.4071 7.38834 12.5478 7.3285 12.7144 7.3285C12.8809 7.3285 13.0242 7.38834 13.1442 7.50804C13.2639 7.62829 13.324 7.77102 13.324 7.93759C13.3237 8.10443 13.2636 8.24744 13.1442 8.36714ZM19.73 8.36714C19.6152 8.48739 19.4745 8.54724 19.3082 8.54724C19.1413 8.54724 18.998 8.48739 18.8783 8.36714C18.7584 8.24744 18.6985 8.10471 18.6985 7.93759C18.6985 7.77102 18.7584 7.62801 18.8783 7.50804C18.998 7.38834 19.1413 7.3285 19.3082 7.3285C19.4748 7.3285 19.6152 7.38834 19.73 7.50804C19.8446 7.62829 19.9017 7.77102 19.9017 7.93759C19.9017 8.10443 19.8445 8.24744 19.73 8.36714Z" fill="currentColor"/>
        <path d="M8.83594 22.1222C8.83594 22.6018 9.0025 23.0078 9.33568 23.3409C9.66913 23.6741 10.0751 23.8407 10.5544 23.8407H11.7107L11.7266 27.3879C11.7266 27.8359 11.8828 28.2162 12.1952 28.5287C12.5077 28.8412 12.8829 28.9975 13.3202 28.9975C13.7679 28.9975 14.1482 28.8412 14.4607 28.5287C14.7732 28.2162 14.9294 27.8359 14.9294 27.3879V23.841H17.0856V27.3879C17.0856 27.8359 17.2418 28.2162 17.5543 28.5287C17.8667 28.8412 18.2467 28.9975 18.6948 28.9975C19.1425 28.9975 19.5228 28.8412 19.8353 28.5287C20.1478 28.2162 20.304 27.8359 20.304 27.3879V23.841H21.4759C21.9445 23.841 22.3453 23.6744 22.6791 23.3412C23.0122 23.0081 23.1789 22.6021 23.1789 22.1225V11.7158H8.83594V22.1222Z" fill="currentColor"/>
        <path d="M25.4023 11.4238C24.9646 11.4238 24.5897 11.5777 24.2773 11.8847C23.9648 12.1923 23.8086 12.5701 23.8086 13.0174V19.7361C23.8086 20.1847 23.9648 20.5645 24.2773 20.8769C24.5897 21.1894 24.9649 21.3457 25.4023 21.3457C25.85 21.3457 26.2303 21.1894 26.5428 20.8769C26.8553 20.5645 27.0114 20.1847 27.0114 19.7361V13.0174C27.0114 12.57 26.8553 12.1923 26.5428 11.8847C26.2303 11.5777 25.85 11.4238 25.4023 11.4238Z" fill="currentColor"/>
    </symbol>
    <symbol id="icon-mobile-2" viewBox="0 0 32 32" fill="none" xmlns="http://www.w3.org/2000/svg">
        <path d="M25.3073 21.9955C24.928 22.8471 24.479 23.631 23.9589 24.3517C23.2499 25.3342 22.6693 26.0143 22.2219 26.3919C21.5284 27.0118 20.7853 27.3293 19.9896 27.3473C19.4184 27.3473 18.7295 27.1894 17.9276 26.8689C17.1231 26.5499 16.3837 26.3919 15.7077 26.3919C14.9986 26.3919 14.2382 26.5499 13.4249 26.8689C12.6103 27.1894 11.954 27.3564 11.4523 27.3729C10.6893 27.4045 9.9287 27.078 9.16952 26.3919C8.68498 25.9812 8.07891 25.277 7.35286 24.2795C6.57387 23.2142 5.93343 21.979 5.4317 20.5707C4.89436 19.0496 4.625 17.5766 4.625 16.1505C4.625 14.517 4.98818 13.1081 5.71562 11.9275C6.28732 10.9791 7.04789 10.231 7.9998 9.68186C8.95171 9.13269 9.98025 8.85284 11.0879 8.83493C11.694 8.83493 12.4887 9.01714 13.4764 9.37523C14.4613 9.73452 15.0937 9.91673 15.3709 9.91673C15.5782 9.91673 16.2808 9.70368 17.4717 9.27893C18.5979 8.88503 19.5484 8.72194 20.3271 8.78618C22.4371 8.95169 24.0224 9.7601 25.0766 11.2165C23.1895 12.3278 22.256 13.8843 22.2746 15.881C22.2916 17.4363 22.8721 18.7306 24.0131 19.7582C24.5301 20.2352 25.1076 20.6038 25.75 20.8656C25.6107 21.2583 25.4636 21.6344 25.3073 21.9955ZM20.468 3.48764C20.468 4.70667 20.0097 5.84487 19.0964 6.89838C17.9942 8.1508 16.661 8.8745 15.2152 8.7603C15.1968 8.61406 15.1861 8.46014 15.1861 8.2984C15.1861 7.12813 15.7103 5.87571 16.6411 4.85169C17.1059 4.33321 17.6969 3.90211 18.4137 3.5582C19.1289 3.21943 19.8054 3.03208 20.4417 3C20.4602 3.16297 20.468 3.32594 20.468 3.48762V3.48764Z" fill="currentColor"/>
    </symbol>
    <symbol id="icon-mobile-3" viewBox="0 0 32 32" fill="none" xmlns="http://www.w3.org/2000/svg">
        <path d="M21.9635 3H11.1302C9.63413 3 8.42188 4.21225 8.42188 5.70833V26.2917C8.42188 27.7878 9.63413 29 11.1302 29H21.9635C23.4596 29 24.6719 27.7878 24.6719 26.2917V5.70833C24.6719 4.21225 23.4596 3 21.9635 3V3ZM22.5052 26.8333H10.5885V5.16667H12.7552L13.8385 7.33333H19.2552L20.3385 5.16667H22.5052V26.8333Z" fill="currentColor"/>
    </symbol>
    <symbol id="icon-mobile-4" viewBox="0 0 32 32" fill="none" xmlns="http://www.w3.org/2000/svg">
        <path d="M7.33333 7.33301C5.90769 7.33301 4.73333 8.50737 4.73333 9.93301V21.1997C4.73333 21.8658 4.99691 22.4708 5.4155 22.933H3C3 24.3691 4.16393 25.533 5.6 25.533H26.4C27.8361 25.533 29 24.3691 29 22.933H26.5845C27.0031 22.4708 27.2667 21.8658 27.2667 21.1997V9.93301C27.2667 8.50737 26.0923 7.33301 24.6667 7.33301H7.33333ZM7.33333 9.06634H24.6667C25.1564 9.06634 25.5333 9.44331 25.5333 9.93301V21.1997C25.5333 21.6894 25.1564 22.0663 24.6667 22.0663H7.33333C6.84364 22.0663 6.46667 21.6894 6.46667 21.1997V9.93301C6.46667 9.44331 6.84364 9.06634 7.33333 9.06634Z" fill="currentColor"/>
    </symbol>
    <symbol id="icon-mobile-5" viewBox="0 0 32 32" fill="none" xmlns="http://www.w3.org/2000/svg">
        <path d="M14.1346 3.86621C13.6192 3.86621 13.2013 4.28408 13.2013 4.79955C13.2013 9.51941 6.66797 13.1995 6.66797 19.7329C6.66797 24.6962 12.0472 27.9051 13.9414 28.1128C14.0049 28.1262 14.0697 28.1329 14.1346 28.1329C14.6501 28.1329 15.068 27.715 15.068 27.1995C15.0678 26.9188 14.9413 26.653 14.7234 26.4758C14.7234 26.4752 14.7234 26.4746 14.7234 26.474C13.8741 25.7852 12.268 23.787 12.268 21.9623C12.268 18.9672 15.068 17.8662 15.068 17.8662C13.471 22.3835 18.7037 22.9294 19.7565 27.4019H19.7583C19.8531 27.8284 20.231 28.1322 20.668 28.1329C20.8645 28.1324 21.0559 28.0699 21.2148 27.9542C21.2317 27.942 21.2481 27.9293 21.2641 27.916C21.416 27.8173 25.3346 25.2256 25.3346 19.7329C25.3346 17.4904 24.2131 13.6387 23.406 11.9326C23.4053 11.9312 23.4048 11.9286 23.4042 11.9271C23.4036 11.9259 23.403 11.9247 23.4023 11.9235C23.2617 11.5672 22.9177 11.3331 22.5346 11.3329C22.0849 11.3333 21.6994 11.6544 21.6177 12.0967C21.6177 12.0979 21.6177 12.0991 21.6177 12.1003C21.6154 12.1105 21.1867 14.0144 19.7346 15.0662C19.7346 10.6687 16.5598 6.12638 14.8857 4.2472C14.8606 4.21317 14.8331 4.18089 14.8036 4.15059C14.6282 3.96928 14.3869 3.86669 14.1346 3.86621V3.86621Z" fill="currentColor"/>
    </symbol>
    <symbol id="icon-mobile-6" viewBox="0 0 32 32" fill="none" xmlns="http://www.w3.org/2000/svg">
        <path d="M6.2513 15.4098V24.667V26.8337H8.41797H15.0942V15.4098H6.2513Z" fill="currentColor"/>
        <path fill-rule="evenodd" clip-rule="evenodd" d="M10.5846 5.16699C8.80306 5.16699 7.33464 6.63542 7.33464 8.41699C7.33464 8.79785 7.41504 9.15755 7.53776 9.50033H7.33464L7.33191 9.50033H5.16797V11.667V13.8337H26.8346V11.667V9.50033H24.668H24.4648C24.5876 9.15755 24.668 8.79785 24.668 8.41699C24.668 6.63542 23.1995 5.16699 21.418 5.16699C19.6914 5.16699 18.3499 6.26302 17.2878 7.33366H14.7148C13.6527 6.26302 12.3112 5.16699 10.5846 5.16699ZM13.4961 9.16179C12.5482 8.16309 11.2998 7.33366 10.5846 7.33366C9.97103 7.33366 9.5013 7.80339 9.5013 8.41699C9.5013 9.0306 9.97103 9.50033 10.5846 9.50033H13.7669C13.7018 9.4256 13.6731 9.38384 13.6462 9.34481C13.6138 9.29762 13.5841 9.25442 13.4961 9.16179ZM22.5013 8.41699C22.5013 7.80339 22.0316 7.33366 21.418 7.33366C20.7028 7.33366 19.4544 8.16309 18.5065 9.16179C18.4185 9.25442 18.3888 9.29762 18.3564 9.34481C18.3295 9.38384 18.3008 9.4256 18.2357 9.50033H21.418C22.0316 9.50033 22.5013 9.0306 22.5013 8.41699Z" fill="currentColor"/>
        <path d="M25.7513 24.667V15.4098H16.9082V26.8337H23.5846H25.7513V24.667Z" fill="currentColor"/>
    </symbol>

    <symbol id="icon-fraud-1" viewBox="0 0 26 26" fill="none" xmlns="http://www.w3.org/2000/svg">
        <path d="M13 0C5.84831 0 0 5.84831 0 13C0 20.1517 5.84831 26 13 26C20.1517 26 26 20.1517 26 13C26 5.84831 20.1517 0 13 0ZM13 1.28646C13.6517 1.28646 14.3118 1.41341 14.9635 1.52344V4.23177C14.3118 4.12175 13.6517 3.99479 13 3.99479C12.3483 3.99479 11.6882 4.12175 11.0365 4.23177V1.52344C11.6882 1.41341 12.3483 1.28646 13 1.28646ZM13 5.41667C17.2233 5.41667 20.5833 8.77669 20.5833 13C20.5833 17.2233 17.2233 20.5833 13 20.5833C8.77669 20.5833 5.41667 17.2233 5.41667 13C5.41667 8.77669 8.77669 5.41667 13 5.41667ZM3.99479 5.51823L6.39844 6.83854C5.42513 7.81185 4.76497 8.99251 4.33333 10.2917L2.0651 9.00521C2.49674 7.70606 3.12728 6.49154 3.99479 5.51823ZM22.0052 5.51823C22.8727 6.49154 23.5033 7.70606 23.9349 9.00521L21.6667 10.2917C21.235 8.99251 20.5706 7.81185 19.7031 6.83854L22.0052 5.51823ZM4.33333 15.7083C4.76497 17.0075 5.42936 18.1882 6.29687 19.1615L3.99479 20.4818C3.12728 19.5085 2.49675 18.2939 2.0651 16.9948L4.33333 15.7083ZM21.5651 15.7083L23.8333 16.9948C23.5075 18.2939 22.8727 19.5085 22.0052 20.4818L19.6016 19.1615C20.4691 18.1882 21.2393 17.0075 21.5651 15.7083ZM11.0365 21.7682C11.6882 21.8783 12.3483 22.0052 13 22.0052C13.6517 22.0052 14.3118 21.8783 14.9635 21.7682V24.4766C14.3118 24.5866 13.6517 24.7135 13 24.7135C12.3483 24.7135 11.6882 24.5866 11.0365 24.4766V21.7682Z" fill="currentColor"/>
        <path d="M13.0282 8.21964C13.0282 8.21964 8.73899 10.5837 8.73899 13.5007C8.73899 14.702 9.68228 15.6453 10.8836 15.6453C11.5186 15.6453 12.0748 15.3052 12.4652 14.9885C12.1854 15.7475 11.8135 16.6171 11.3125 17.361C12.4703 17.1465 13.628 17.1465 14.7439 17.361C14.2664 16.6255 13.886 15.7693 13.6046 15.0153C13.9933 15.3253 14.5512 15.6453 15.1728 15.6453C16.3741 15.6453 17.3174 14.702 17.3174 13.5007C17.3174 10.5837 13.0282 8.21964 13.0282 8.21964Z" fill="currentColor"/>
    </symbol>
    <symbol id="icon-fraud-2" viewBox="0 0 26 26" fill="none" xmlns="http://www.w3.org/2000/svg">
        <g clip-path="url(#clip0_730_74256)">
            <path d="M14.3669 16.1061L17.054 18.7933C16.6436 19.5762 16.6012 20.3548 17.0329 20.7865L21.9375 25.6911C22.5553 26.3089 23.901 25.9704 24.9336 24.9336C25.9704 23.8968 26.3089 22.5553 25.6911 21.9375L20.7907 17.0329C20.3548 16.6012 19.5762 16.6436 18.7933 17.0498L16.1061 14.3669L14.3669 16.1061ZM9.20833 0C4.12175 0 0 4.12175 0 9.20833C0 14.2949 4.12175 18.4167 9.20833 18.4167C14.2949 18.4167 18.4167 14.2949 18.4167 9.20833C18.4167 4.12175 14.2949 0 9.20833 0ZM9.20833 16.25C5.31934 16.25 2.16667 13.0973 2.16667 9.20833C2.16667 5.31934 5.31934 2.16667 9.20833 2.16667C13.0973 2.16667 16.25 5.31934 16.25 9.20833C16.25 13.0973 13.0973 16.25 9.20833 16.25Z" fill="currentColor"/>
        </g>
        <defs>
            <clipPath id="clip0_730_74256">
                <rect width="26" height="26" fill="white"/>
            </clipPath>
        </defs>
    </symbol>
    <symbol id="icon-fraud-3" viewBox="0 0 26 26" fill="none" xmlns="http://www.w3.org/2000/svg">
        <g clip-path="url(#clip0_730_74264)">
            <path d="M2.36386 0.928711C1.06019 0.928711 0 1.9889 0 3.29257V19.8396C0 21.1432 1.06019 22.2034 2.36386 22.2034H7.09157V21.8202L7.75179 19.8396H2.36386V3.29257H21.2747V9.6639C21.4697 9.88964 21.6509 10.1253 21.801 10.3841H23.6386V3.29257C23.6386 1.9889 22.5784 0.928711 21.2747 0.928711H2.36386ZM4.72771 5.65642V8.02028H11.8193V5.65642H4.72771ZM14.1831 5.65642V8.02028H18.9108V5.65642H14.1831ZM4.72771 10.3841V12.748H8.2735V10.3841H4.72771ZM17.7289 10.3841C16.4234 10.3841 15.3651 11.4425 15.3651 12.748H10.6374V15.1118H11.8193L9.45542 22.2034C9.45542 24.1619 11.0428 25.7492 13.0012 25.7492C14.9597 25.7492 16.547 24.1619 16.547 22.2034L14.1831 15.1118H21.2747L18.9109 22.2034C18.9109 24.1619 20.4982 25.7492 22.4566 25.7492C24.4151 25.7492 26.0024 24.1619 26.0024 22.2034L23.6386 15.1118H24.8205V12.748H20.0928C20.0928 11.4425 19.0344 10.3841 17.7289 10.3841H17.7289ZM4.72771 15.1118V17.4757H8.2735V15.1118H4.72771ZM13.0012 17.171L14.6795 22.2034H11.323L13.0012 17.171ZM22.4566 17.171L24.1349 22.2034H20.7784L22.4566 17.171Z" fill="currentColor"/>
        </g>
        <defs>
            <clipPath id="clip0_730_74264">
                <rect width="26" height="26" fill="white"/>
            </clipPath>
        </defs>
    </symbol>
    <symbol id="icon-fraud-4" viewBox="0 0 26 26" fill="none" xmlns="http://www.w3.org/2000/svg">
        <g clip-path="url(#clip0_730_74274)">
            <path d="M13 1.08398L3.25 5.41732C3.25 5.41732 3.25 9.75065 3.25 11.9173C3.25 20.3998 10.2256 24.3605 13 24.9173C15.7744 24.3605 22.75 20.3998 22.75 11.9173C22.75 9.75065 22.75 5.41732 22.75 5.41732L13 1.08398ZM11.9167 17.7825L7.38292 13.2487L8.91475 11.7169L11.9167 14.7188L18.1913 8.44415L19.7232 9.97598L11.9167 17.7825Z" fill="currentColor"/>
        </g>
        <defs>
            <clipPath id="clip0_730_74274">
                <rect width="26" height="26" fill="white"/>
            </clipPath>
        </defs>
    </symbol>
    <symbol id="icon-fraud-5" viewBox="0 0 26 26" fill="none" xmlns="http://www.w3.org/2000/svg">
        <g clip-path="url(#clip0_730_74282)">
            <path d="M3.24739 12.4088V21.666V23.8327H5.41406H12.0903V12.4088H3.24739Z" fill="currentColor"/>
            <path fill-rule="evenodd" clip-rule="evenodd" d="M7.58073 2.16602C5.79915 2.16602 4.33073 3.63444 4.33073 5.41602C4.33073 5.79687 4.41113 6.15658 4.53385 6.49935H4.33073L4.328 6.49935H2.16406V8.66602V10.8327H23.8307V8.66602V6.49935H21.6641H21.4609C21.5837 6.15658 21.6641 5.79688 21.6641 5.41602C21.6641 3.63444 20.1956 2.16602 18.4141 2.16602C16.6875 2.16602 15.346 3.26204 14.2839 4.33268H11.7109C10.6488 3.26204 9.30729 2.16602 7.58073 2.16602ZM10.4922 6.16081C9.54427 5.16211 8.2959 4.33268 7.58073 4.33268C6.96712 4.33268 6.4974 4.80241 6.4974 5.41602C6.4974 6.02962 6.96712 6.49935 7.58073 6.49935H10.763C10.6979 6.42463 10.6692 6.38287 10.6423 6.34383C10.6099 6.29665 10.5802 6.25344 10.4922 6.16081ZM19.4974 5.41602C19.4974 4.80241 19.0277 4.33268 18.4141 4.33268C17.6989 4.33268 16.4505 5.16211 15.5026 6.16081C15.4146 6.25344 15.3849 6.29665 15.3525 6.34383C15.3256 6.38287 15.2969 6.42463 15.2318 6.49935H18.4141C19.0277 6.49935 19.4974 6.02962 19.4974 5.41602Z" fill="currentColor"/>
            <path d="M22.7474 21.666V12.4088H13.9043V23.8327H20.5807H22.7474V21.666Z" fill="currentColor"/>
        </g>
        <defs>
            <clipPath id="clip0_730_74282">
                <rect width="26" height="26" fill="white"/>
            </clipPath>
        </defs>
    </symbol>
    <symbol id="icon-fraud-6" viewBox="0 0 26 26" fill="none" xmlns="http://www.w3.org/2000/svg">
        <g clip-path="url(#clip0_730_74290)">
            <path d="M2.16667 1.08301C0.981771 1.08301 0 2.06478 0 3.24967V15.1663C0 16.165 0.694011 17.0241 1.625 17.2653L1.32031 18.7549C1.0918 19.9144 1.88737 21.0654 3.04688 21.2939L21.0911 24.8825C22.2507 25.111 23.4355 24.3154 23.6641 23.1559L25.9661 11.4762C26.1947 10.3167 25.3991 9.16569 24.2396 8.93718L22.75 8.63249V3.24968C22.75 2.06478 21.7682 1.08301 20.5833 1.08301L2.16667 1.08301ZM2.16667 3.24967H20.5833V5.41634H2.16667V3.24967ZM2.16667 8.66634H20.5833V15.1663H2.16667V8.66634ZM22.75 10.833L23.8333 11.07L23.4271 13.2028L22.75 13.0674V10.833ZM22.4115 16.3174L22.7839 16.3851L21.5312 22.7497L3.45312 19.195L3.82552 17.333H20.5833C21.3493 17.333 22.0264 16.931 22.4115 16.3174V16.3174Z" fill="currentColor"/>
        </g>
        <defs>
            <clipPath id="clip0_730_74290">
                <rect width="26" height="26" fill="white"/>
            </clipPath>
        </defs>
    </symbol>

    <symbol id="icon-best-slot-sites-1" viewBox="0 0 26 26" fill="none" xmlns="http://www.w3.org/2000/svg">
        <g clip-path="url(#clip0_882_48560)">
            <path d="M3.24349 12.4088V21.666V23.8327H5.41015H12.0864V12.4088H3.24349Z" fill="currentColor"/>
            <path fill-rule="evenodd" clip-rule="evenodd" d="M7.57682 2.16602C5.79525 2.16602 4.32682 3.63444 4.32682 5.41602C4.32682 5.79687 4.40723 6.15658 4.52995 6.49935H4.32682L4.3241 6.49935H2.16016V8.66602V10.8327H23.8268V8.66602V6.49935H21.6602H21.457C21.5798 6.15658 21.6602 5.79688 21.6602 5.41602C21.6602 3.63444 20.1917 2.16602 18.4102 2.16602C16.6836 2.16602 15.3421 3.26204 14.2799 4.33268H11.707C10.6449 3.26204 9.30339 2.16602 7.57682 2.16602ZM10.4883 6.16081C9.54036 5.16211 8.29199 4.33268 7.57682 4.33268C6.96322 4.33268 6.49349 4.80241 6.49349 5.41602C6.49349 6.02962 6.96322 6.49935 7.57682 6.49935H10.7591C10.694 6.42463 10.6653 6.38287 10.6384 6.34383C10.606 6.29665 10.5763 6.25344 10.4883 6.16081ZM19.4935 5.41602C19.4935 4.80241 19.0238 4.33268 18.4102 4.33268C17.695 4.33268 16.4466 5.16211 15.4987 6.16081C15.4107 6.25344 15.381 6.29665 15.3486 6.34383C15.3217 6.38287 15.293 6.42463 15.2279 6.49935H18.4102C19.0238 6.49935 19.4935 6.02962 19.4935 5.41602Z" fill="currentColor"/>
            <path d="M22.7435 21.666V12.4088H13.9004V23.8327H20.5768H22.7435V21.666Z" fill="currentColor"/>
        </g>
        <defs>
            <clipPath id="clip0_882_48560">
                <rect width="26" height="26" fill="white"/>
            </clipPath>
        </defs>
    </symbol>
    <symbol id="icon-best-slot-sites-2" viewBox="0 0 26 26" fill="none" xmlns="http://www.w3.org/2000/svg">
        <g clip-path="url(#clip0_882_48522)">
            <path d="M4.69631 2.00001C4.19134 2.00791 3.7881 2.42315 3.79501 2.92813V23.0713C3.79034 23.4015 3.96383 23.7087 4.24903 23.8751C4.53424 24.0416 4.88699 24.0416 5.17219 23.8751C5.4574 23.7087 5.63089 23.4015 5.62621 23.0713V12.9997H13.8666C14.372 12.9997 14.7822 12.5895 14.7822 12.0841V3.84373C14.7822 2.83199 13.9628 2.01253 12.951 2.01253H4.85189C4.80048 2.00394 4.74843 1.99975 4.69631 2.00001L4.69631 2.00001ZM16.6134 5.67493V12.9997C16.6134 14.0115 15.794 14.8309 14.7822 14.8309H10.2042V16.6621C10.2042 17.6739 11.0237 18.4933 12.0354 18.4933H23.9382L22.107 12.0841L23.9382 5.67494L16.6134 5.67493Z" fill="currentColor"/>
        </g>
        <defs>
            <clipPath id="clip0_882_48522">
                <rect width="26" height="26" fill="white"/>
            </clipPath>
        </defs>
    </symbol>
    <symbol id="icon-best-slot-sites-3" viewBox="0 0 26 26" fill="none" xmlns="http://www.w3.org/2000/svg">
        <g clip-path="url(#clip0_882_48509)">
            <path d="M12.9995 1.73242C12.0423 1.73242 11.2662 2.50846 11.2662 3.46576C11.2665 4.10553 11.6192 4.69313 12.1837 4.99427L8.75593 11.4215L4.09251 8.6776C4.24952 8.41143 4.3325 8.10812 4.33288 7.79909C4.33288 6.84179 3.55684 6.06575 2.59954 6.06575C1.64225 6.06575 0.866211 6.84179 0.866211 7.79909C0.866211 8.75638 1.64225 9.53242 2.59954 9.53242C2.65723 9.53191 2.71485 9.52852 2.7722 9.52227L3.46621 16.4658H6.06621H17.3329H19.9329H22.5329L23.2269 9.52396C23.2843 9.52965 23.3419 9.53247 23.3995 9.53242C24.3568 9.53242 25.1329 8.75638 25.1329 7.79909C25.1329 6.84179 24.3568 6.06575 23.3995 6.06575C22.4422 6.06575 21.6662 6.84179 21.6662 7.79909C21.6666 8.10812 21.7496 8.41143 21.9066 8.6776L17.2432 11.4215L13.8154 4.99427C14.3799 4.69313 14.7326 4.10553 14.7329 3.46576C14.7329 2.50846 13.9568 1.73242 12.9995 1.73242H12.9995ZM3.46621 18.1991V19.9324C3.46621 20.8901 4.24188 21.6658 5.19955 21.6658H20.7995C21.7572 21.6658 22.5329 20.8901 22.5329 19.9324V18.1991H3.46621Z" fill="currentColor"/>
        </g>
        <defs>
            <clipPath id="clip0_882_48509">
                <rect width="26" height="26" fill="white"/>
            </clipPath>
        </defs>
    </symbol>

    <symbol id="icon-search" viewBox="0 0 16 16" fill="none" xmlns="http://www.w3.org/2000/svg">
        <path d="M6.99446 12.0299C9.77656 12.0299 12.0319 9.77461 12.0319 6.99251C12.0319 4.21041 9.77656 1.95508 6.99446 1.95508C4.21237 1.95508 1.95703 4.21041 1.95703 6.99251C1.95703 9.77461 4.21237 12.0299 6.99446 12.0299Z" stroke="currentColor" stroke-width="1.71429" stroke-linecap="round" stroke-linejoin="round"/>
        <path d="M14.0467 14.0428L11.125 11.1211" stroke="currentColor" stroke-width="1.71429" stroke-linecap="square" stroke-linejoin="round"/>
    </symbol>
    <symbol id="logo-slot" viewBox="0 0 72 72" fill="none" xmlns="http://www.w3.org/2000/svg">
        <path d="M46.4942 0C46.4942 0 42.0583 2.47791 39.5979 7.01207C38.0879 7.38836 33.8143 8.57759 28.8732 12.3209C23.2265 16.5989 17.6243 24.2073 17.1461 35.9216C16.7525 35.8774 16.3516 35.838 15.9081 35.838C10.083 35.838 3.27271 39.341 3.27271 49.2066C3.27271 58.0159 11.1613 65.4545 20.4967 65.4545C28.6264 65.4545 37.7207 58.5062 37.7207 49.2066C37.7207 39.4002 30.1629 35.838 25.0853 35.838C24.7058 35.838 24.3701 35.877 24.029 35.9087C24.4682 26.1965 28.7754 20.7915 33.1523 17.4755C33.6821 17.0742 34.2072 16.7121 34.7267 16.3765C33.2725 26.2146 37.796 34.1883 42.3026 39.3601C43.7592 42.0942 44.6103 45.3706 44.6103 49.168C44.6103 53.1827 43.5109 56.8331 41.6163 59.9593C44.5099 61.4072 47.7437 62.1638 50.9818 62.1638C54.2199 62.1638 57.4613 61.4046 60.3205 59.7922C64.282 57.5874 67.1708 53.6714 68.2731 49.0973C69.341 44.5561 68.5161 40.0193 65.8981 36.3008C59.9041 27.712 50.98 28.3681 46.4673 30.9019C45.9193 31.2088 45.4551 31.528 45.0409 31.8532C42.8271 28.6205 41.1883 24.778 41.2597 20.1557C45.1122 23.3477 51.4249 22.9277 54.9447 21.9874C54.9447 21.9874 53.4909 14.5837 49.2056 11.1383C47.8785 10.0716 46.8801 9.3633 46.0367 8.79883C47.4617 7.21689 49.616 5.8616 49.616 5.8616L46.4942 0Z" fill="currentColor"/>
    </symbol>
    <symbol id="icon-plus" viewBox="0 0 16 16" fill="none" xmlns="http://www.w3.org/2000/svg">
        <path d="M8 4V12" stroke="currentColor" stroke-width="1.6" stroke-linecap="square" stroke-linejoin="round"/>
        <path d="M4 8H12" stroke="currentColor" stroke-width="1.6" stroke-linecap="square" stroke-linejoin="round"/>
    </symbol>
    <symbol id="icon-pros" viewBox="0 0 12 12" fill="none" xmlns="http://www.w3.org/2000/svg">
        <path d="M7.25223 4.74854H11.3997V7.25174H7.25223V11.3992H4.74902V7.25174H0.601562V4.74854H4.74902V0.601074H7.25223V4.74854Z" fill="currentColor"/>
    </symbol>
    <symbol id="icon-cons" viewBox="0 0 12 12" fill="none" xmlns="http://www.w3.org/2000/svg">
        <path d="M10.7991 7.34982H1.19531V4.65039H10.7991V7.34982Z" fill="currentColor"/>
    </symbol>
    <symbol id="icon-opinion" viewBox="0 0 24 18" fill="none" xmlns="http://www.w3.org/2000/svg">
        <path d="M0.477273 18V13.3977C0.477273 12 0.724432 10.517 1.21875 8.94886C1.73011 7.36364 2.46307 5.83807 3.41761 4.37216C4.3892 2.8892 5.55682 1.60227 6.92045 0.511362L10.1932 3.17045C9.11932 4.70454 8.18182 6.30682 7.38068 7.97727C6.59659 9.63068 6.20455 11.4034 6.20455 13.2955V18H0.477273ZM13.5682 18V13.3977C13.5682 12 13.8153 10.517 14.3097 8.94886C14.821 7.36364 15.554 5.83807 16.5085 4.37216C17.4801 2.8892 18.6477 1.60227 20.0114 0.511362L23.2841 3.17045C22.2102 4.70454 21.2727 6.30682 20.4716 7.97727C19.6875 9.63068 19.2955 11.4034 19.2955 13.2955V18H13.5682Z" fill="currentColor"/>
    </symbol>
    <symbol id="icon-filter-btn" viewBox="0 0 18 18" fill="none" xmlns="http://www.w3.org/2000/svg">
        <path d="M1 5.125C1 4.91789 1.16789 4.75 1.375 4.75H16.625C16.8321 4.75 17 4.91789 17 5.125V5.875C17 6.08211 16.8321 6.25 16.625 6.25H1.375C1.16789 6.25 1 6.08211 1 5.875V5.125Z" fill="currentColor"/>
        <path d="M5 8.625C5 8.41789 5.16789 8.25 5.375 8.25H12.625C12.8321 8.25 13 8.41789 13 8.625V9.375C13 9.58211 12.8321 9.75 12.625 9.75H5.375C5.16789 9.75 5 9.58211 5 9.375V8.625Z" fill="currentColor"/>
        <path d="M7 12.125C7 11.9179 7.16789 11.75 7.375 11.75H10.625C10.8321 11.75 11 11.9179 11 12.125V12.875C11 13.0821 10.8321 13.25 10.625 13.25H7.375C7.16789 13.25 7 13.0821 7 12.875V12.125Z" fill="currentColor"/>
    </symbol>
    <symbol id="icon-hint" viewBox="0 0 16 16" fill="none" xmlns="http://www.w3.org/2000/svg">
        <g>
            <path d="M7.16948 9.36222V9.26989C7.17185 8.84138 7.21209 8.50047 7.29022 8.24716C7.37071 7.99384 7.48435 7.79025 7.63113 7.63636C7.77791 7.48011 7.95665 7.33688 8.16735 7.20668C8.31176 7.11671 8.44078 7.01847 8.55442 6.91193C8.67042 6.80303 8.76157 6.68229 8.82786 6.54972C8.89415 6.41477 8.92729 6.26444 8.92729 6.09872C8.92729 5.9117 8.88349 5.74953 8.7959 5.61222C8.7083 5.47491 8.58993 5.36837 8.44078 5.29261C8.294 5.21686 8.12947 5.17898 7.94718 5.17898C7.77909 5.17898 7.61929 5.21567 7.46777 5.28906C7.31863 5.36009 7.19434 5.46899 7.0949 5.61577C6.99784 5.76018 6.94339 5.94366 6.93155 6.16619H5.66735C5.67918 5.71638 5.78809 5.33996 5.99405 5.03693C6.20239 4.7339 6.47701 4.50663 6.81792 4.35511C7.16119 4.2036 7.53998 4.12784 7.95428 4.12784C8.40646 4.12784 8.80418 4.20715 9.14746 4.36577C9.4931 4.52438 9.76181 4.75047 9.95357 5.04403C10.1477 5.33523 10.2448 5.68087 10.2448 6.08097C10.2448 6.35085 10.201 6.59233 10.1134 6.8054C10.0281 7.01847 9.90622 7.20786 9.7476 7.37358C9.58899 7.5393 9.40078 7.68726 9.18297 7.81747C8.99121 7.93584 8.83378 8.05895 8.71067 8.18679C8.58993 8.31463 8.49997 8.46496 8.44078 8.63778C8.38397 8.80824 8.35437 9.01894 8.35201 9.26989V9.36222H7.16948ZM7.78738 11.5781C7.57431 11.5781 7.39083 11.5024 7.23695 11.3509C7.08307 11.1993 7.00613 11.0147 7.00613 10.7969C7.00613 10.5838 7.08307 10.4015 7.23695 10.25C7.39083 10.0985 7.57431 10.0227 7.78738 10.0227C7.99808 10.0227 8.18037 10.0985 8.33425 10.25C8.4905 10.4015 8.56863 10.5838 8.56863 10.7969C8.56863 10.9413 8.53193 11.0727 8.45854 11.1911C8.38752 11.3094 8.29282 11.4041 8.17445 11.4751C8.05845 11.5438 7.92942 11.5781 7.78738 11.5781Z" fill="currentColor"/>
            <rect x="0.6" y="0.6" width="14.8" height="14.8" rx="7.4" stroke="currentColor" stroke-width="1.2"/>
        </g>
    </symbol>
</svg>