<svg width="72" height="72" viewBox="0 0 72 72" fill="none" xmlns="http://www.w3.org/2000/svg">
<path d="M46.4942 0C46.4942 0 42.0583 2.47791 39.5979 7.01207C38.0879 7.38836 33.8143 8.57759 28.8732 12.3209C23.2265 16.5989 17.6243 24.2073 17.1461 35.9216C16.7525 35.8774 16.3516 35.838 15.9081 35.838C10.083 35.838 3.27271 39.341 3.27271 49.2066C3.27271 58.0159 11.1613 65.4545 20.4967 65.4545C28.6264 65.4545 37.7207 58.5062 37.7207 49.2066C37.7207 39.4002 30.1629 35.838 25.0853 35.838C24.7058 35.838 24.3701 35.877 24.029 35.9087C24.4682 26.1965 28.7754 20.7915 33.1523 17.4755C33.6821 17.0742 34.2072 16.7121 34.7267 16.3765C33.2725 26.2146 37.796 34.1883 42.3026 39.3601C43.7592 42.0942 44.6103 45.3706 44.6103 49.168C44.6103 53.1827 43.5109 56.8331 41.6163 59.9593C44.5099 61.4072 47.7437 62.1638 50.9818 62.1638C54.2199 62.1638 57.4613 61.4046 60.3205 59.7922C64.282 57.5874 67.1708 53.6714 68.2731 49.0973C69.341 44.5561 68.5161 40.0193 65.8981 36.3008C59.9041 27.712 50.98 28.3681 46.4673 30.9019C45.9193 31.2088 45.4551 31.528 45.0409 31.8532C42.8271 28.6205 41.1883 24.778 41.2597 20.1557C45.1122 23.3477 51.4249 22.9277 54.9447 21.9874C54.9447 21.9874 53.4909 14.5837 49.2056 11.1383C47.8785 10.0716 46.8801 9.3633 46.0367 8.79883C47.4617 7.21689 49.616 5.8616 49.616 5.8616L46.4942 0Z" fill="#F2F3F6"/>
</svg>
