<svg width="22" height="22" viewBox="0 0 22 22" fill="none" xmlns="http://www.w3.org/2000/svg">
<g clip-path="url(#clip0_645_60906)">
<path d="M22.0003 11.0001C22.0003 17.0753 17.0753 22.0003 11.0001 22.0003C4.92492 22.0003 0 17.0753 0 11.0001C0 4.92492 4.92492 0 11.0001 0C17.0753 0 22.0003 4.92492 22.0003 11.0001Z" fill="#222222"/>
<path d="M13.0417 4.1788C13.5917 4.52318 13.7584 5.24818 13.414 5.79811C13.0697 6.34803 12.3447 6.5148 11.7947 6.17042C11.2447 5.82604 11.078 5.10103 11.4224 4.55111C11.7668 4.00107 12.4918 3.83441 13.0417 4.1788Z" fill="white"/>
<path d="M9.05782 9.12546L9.35106 9.10638C9.58834 9.09089 9.81844 9.19071 9.96918 9.37455C10.12 9.55838 10.1729 9.80366 10.1114 10.0332L8.46668 16.1718C8.1537 17.3398 9.50549 18.1056 11.2874 17.2037C11.939 16.8739 12.8158 16.1671 13.5073 15.416C13.57 15.3483 13.5764 15.2462 13.5227 15.1712C13.4691 15.0963 13.3701 15.0694 13.286 15.1069C12.2789 15.5532 10.7313 16.0301 11.1373 14.5147L12.982 7.63034L8.97607 7.90683C8.75861 7.9218 8.5656 8.05146 8.46967 8.24709C8.37364 8.44283 8.38924 8.67485 8.51046 8.85592C8.63179 9.03701 8.84027 9.1397 9.05782 9.12546Z" fill="white"/>
</g>
<defs>
<clipPath id="clip0_645_60906">
<rect width="22.0003" height="22.0003" fill="white"/>
</clipPath>
</defs>
</svg>
