<svg width="16" height="16" viewBox="0 0 16 16" fill="none" xmlns="http://www.w3.org/2000/svg">
<path d="M6.98882 2.76529H7.06382V2.69029V1.54297V1.46797H6.98882H3.26004C2.26246 1.46797 1.46406 2.2664 1.46406 3.26394V12.7293C1.46406 13.7269 2.26249 14.5253 3.26004 14.5253H12.7254C13.723 14.5253 14.5214 13.7269 14.5214 12.7293V9.00053V8.92553H14.4464H13.2991H13.2241V9.00053V12.7293C13.2241 13.0066 13.0027 13.228 12.7254 13.228H3.26004C2.98279 13.228 2.76138 13.0066 2.76138 12.7293V3.26394C2.76138 2.98669 2.98279 2.76529 3.26004 2.76529H6.98882Z" fill="#222222" stroke="#222222" stroke-width="0.15"/>
<path d="M9.00421 1.468L8.92921 1.468V1.543V2.69031V2.76531H9.00421H12.3129L7.93134 7.14687L7.87831 7.19991L7.93134 7.25294L8.744 8.06559L8.79703 8.11863L8.85006 8.06559L13.2316 3.68403V6.99272V7.06772H13.3066H14.4539H14.5289V6.99272V1.54297V1.46797L14.4539 1.46797L9.00421 1.468Z" fill="#222222" stroke="#222222" stroke-width="0.15"/>
</svg>
