<svg width="22" height="22" viewBox="0 0 22 22" fill="none" xmlns="http://www.w3.org/2000/svg">
<g clip-path="url(#clip0_645_60959)">
<path d="M1.10156 2V3C1.10156 5.76667 2.22969 7.76202 3.24785 9.30469C4.26601 10.8474 5.06156 11.9444 5.06156 13H7.04156C7.04156 12.9838 7.03786 12.9692 7.03769 12.9531C8.00639 15.1662 9.02156 16 9.02156 16H12.9816C12.9816 16 13.9967 15.1662 14.9654 12.9531C14.9653 12.9692 14.9616 12.9838 14.9616 13H16.9416C16.9416 11.9444 17.7371 10.8474 18.7553 9.30469C19.7734 7.76202 20.9016 5.76667 20.9016 3V2H1.10156ZM3.27105 4H5.33226C5.39547 6.40807 5.67413 8.38024 6.0593 9.97461C5.69177 9.36679 5.28242 8.7819 4.89527 8.19531C4.09994 6.99027 3.49656 5.65498 3.27105 4ZM16.6709 4H18.7321C18.5066 5.65498 17.9032 6.99026 17.1078 8.19531C16.7207 8.78191 16.3114 9.36679 15.9438 9.97461C16.329 8.38024 16.6076 6.40807 16.6709 4ZM6.05156 18V20H15.9516V18H6.05156Z" fill="#222222"/>
</g>
<defs>
<clipPath id="clip0_645_60959">
<rect width="22" height="22" fill="white"/>
</clipPath>
</defs>
</svg>
