<svg width="22" height="22" viewBox="0 0 22 22" fill="none" xmlns="http://www.w3.org/2000/svg">
<g clip-path="url(#clip0_645_60942)">
<path d="M11.0013 0C5.43327 0 0.917969 4.10352 0.917969 9.16667C0.917969 14.2298 5.43327 18.3333 11.0013 18.3333V22C11.0013 22 21.0846 17.0872 21.0846 9.16667C21.0846 4.10352 16.5693 1.27907e-06 11.0013 1.27907e-06V0ZM12.1221 13.8646H9.88053V7.48014H12.1221V13.8646ZM11.0049 5.68262C9.79102 5.68262 9.78385 4.78744 9.78385 4.57975C9.78385 4.36849 9.78385 3.48405 11.0049 3.48405C12.2295 3.48405 12.2259 4.36849 12.2259 4.57975C12.2259 4.78743 12.2188 5.68262 11.0049 5.68262Z" fill="#222222"/>
</g>
<defs>
<clipPath id="clip0_645_60942">
<rect width="22" height="22" fill="white"/>
</clipPath>
</defs>
</svg>
