<svg width="22" height="22" viewBox="0 0 22 22" fill="none" xmlns="http://www.w3.org/2000/svg">
<g clip-path="url(#clip0_645_60910)">
<path d="M11 0C4.94857 0 0 4.94857 0 11C0 17.0514 4.94857 22 11 22C17.0514 22 22 17.0514 22 11C22 4.94857 17.0514 0 11 0ZM11 1.08854C11.5514 1.08854 12.11 1.19596 12.6615 1.28906V3.58073C12.11 3.48763 11.5514 3.38021 11 3.38021C10.4486 3.38021 9.88997 3.48763 9.33854 3.58073V1.28906C9.88997 1.19596 10.4486 1.08854 11 1.08854ZM11 4.58333C14.5736 4.58333 17.4167 7.42643 17.4167 11C17.4167 14.5736 14.5736 17.4167 11 17.4167C7.42643 17.4167 4.58333 14.5736 4.58333 11C4.58333 7.42643 7.42643 4.58333 11 4.58333ZM3.38021 4.66927L5.41406 5.78646C4.59049 6.61003 4.0319 7.60905 3.66667 8.70833L1.74739 7.61979C2.11263 6.52051 2.64616 5.49284 3.38021 4.66927ZM18.6198 4.66927C19.3538 5.49284 19.8874 6.52051 20.2526 7.61979L18.3333 8.70833C17.9681 7.60905 17.4059 6.61003 16.6719 5.78646L18.6198 4.66927ZM3.66667 13.2917C4.0319 14.391 4.59408 15.39 5.32812 16.2135L3.38021 17.3307C2.64616 16.5072 2.11263 15.4795 1.74739 14.3802L3.66667 13.2917ZM18.2474 13.2917L20.1667 14.3802C19.891 15.4795 19.3538 16.5072 18.6198 17.3307L16.5859 16.2135C17.32 15.39 17.9717 14.391 18.2474 13.2917ZM9.33854 18.4193C9.88997 18.5124 10.4486 18.6198 11 18.6198C11.5514 18.6198 12.11 18.5124 12.6615 18.4193V20.7109C12.11 20.804 11.5514 20.9115 11 20.9115C10.4486 20.9115 9.88997 20.804 9.33854 20.7109V18.4193Z" fill="#222222"/>
<path d="M8.30334 13.8747L8.32993 13.8481C8.61683 13.5612 8.83558 13.2689 8.98798 12.9715C9.137 12.6732 9.21441 12.2837 9.21441 11.7977C9.21441 11.6994 9.20743 11.5984 9.19338 11.4948H7.89842V10.3234H8.83027C8.77813 10.1633 8.73087 9.99841 8.68848 9.82883L8.68773 9.82584C8.64129 9.60914 8.61828 9.38152 8.61828 9.14319C8.61828 8.63525 8.72612 8.19142 8.94558 7.8152L8.94629 7.81399C9.17281 7.43906 9.48585 7.15352 9.88354 6.9585C10.2878 6.75645 10.7481 6.65663 11.2623 6.65663C11.8433 6.65663 12.3326 6.76745 12.7251 6.99507C13.114 7.22067 13.4113 7.5253 13.6146 7.90838C13.8163 8.28851 13.9281 8.71032 13.9512 9.1724L13.956 9.26771H12.4463L12.4426 9.1808C12.4284 8.84667 12.3225 8.57523 12.1285 8.36045L12.1276 8.35939C11.9389 8.14383 11.663 8.03045 11.2848 8.03045C10.9751 8.03045 10.7112 8.12484 10.4885 8.31274C10.2757 8.49232 10.1608 8.77732 10.1608 9.18818C10.1608 9.37364 10.1893 9.56756 10.2472 9.77021C10.3009 9.95148 10.3607 10.1359 10.4266 10.3234H12.5566V11.4948H10.7375C10.7504 11.5976 10.7569 11.6986 10.7569 11.7977C10.7569 12.1172 10.6946 12.4393 10.571 12.7636C10.4687 13.0321 10.3122 13.2834 10.1029 13.5178H13.9851V14.8466H8.30334V13.8747Z" fill="#222222"/>
</g>
<defs>
<clipPath id="clip0_645_60910">
<rect width="22" height="22" fill="white"/>
</clipPath>
</defs>
</svg>
