<svg width="22" height="22" viewBox="0 0 22 22" fill="none" xmlns="http://www.w3.org/2000/svg">
<g clip-path="url(#clip0_645_60934)">
<path d="M4.60156 1L1.16406 16.8073H5.72135L6.84115 11.5729H10.0964C13.2148 11.5729 15.832 9.65885 16.5286 6.39063C17.3197 2.68945 14.6699 1 12.388 1L4.60156 1ZM8.48177 4.22917H10.6953C11.8118 4.22917 12.5573 5.18945 12.2318 6.39062C11.9518 7.5918 10.793 8.55208 9.6276 8.55208H7.49219L8.48177 4.22917ZM18.4818 5.53125C18.4785 6.00651 18.446 6.50456 18.3255 7.06771C18.0163 8.52279 17.3783 9.80859 16.5026 10.8177C16.1348 11.9049 15.0605 12.7448 13.9766 12.7448H13.9245C12.873 13.2233 11.6849 13.474 10.4089 13.474H8.3776L7.51823 17.5104L7.25781 18.7083H6.00781L5.51302 21H10.0703L11.1901 15.7656H14.4453C17.5638 15.7656 20.1777 13.8255 20.8776 10.5573C21.4635 7.8099 20.1289 6.19206 18.4818 5.53125V5.53125Z" fill="#222222"/>
</g>
<defs>
<clipPath id="clip0_645_60934">
<rect width="22" height="22" fill="white"/>
</clipPath>
</defs>
</svg>
