<svg width="23" height="24" viewBox="0 0 23 24" fill="none" xmlns="http://www.w3.org/2000/svg">
<path fill-rule="evenodd" clip-rule="evenodd" d="M6.3261 13.1562C5.12379 13.1562 4.01621 13.5479 3.12068 14.2104C2.66422 14.5481 2.26286 14.9561 1.93212 15.4185C1.29332 16.3116 0.917969 17.4076 0.917969 18.5911C0.917969 21.5896 3.35435 23.9992 6.3261 23.9992C8.06585 23.9992 9.60735 23.1791 10.595 21.91C10.9396 21.4672 11.2168 20.9698 11.4114 20.4335C11.6204 19.8577 11.7342 19.237 11.7342 18.5911C11.7341 17.0495 11.0972 15.6564 10.0708 14.6667C9.87933 14.4821 9.67436 14.3115 9.45743 14.1566C8.57521 13.5267 7.49544 13.1562 6.3261 13.1562ZM4.36935 20.5627L4.38873 20.5433C4.59789 20.3342 4.75736 20.1211 4.86846 19.9043C4.97709 19.6868 5.03352 19.4028 5.03352 19.0486C5.03352 18.9769 5.02843 18.9033 5.01818 18.8278H4.07416V17.9739H4.75348C4.71547 17.8571 4.68102 17.7369 4.65011 17.6133L4.64957 17.6111C4.61572 17.4532 4.59894 17.2872 4.59894 17.1135C4.59894 16.7432 4.67756 16.4196 4.83754 16.1454L4.83805 16.1445C5.00319 15.8712 5.23139 15.663 5.52131 15.5208C5.816 15.3736 6.15157 15.3008 6.52642 15.3008C6.94996 15.3008 7.30667 15.3816 7.59277 15.5475C7.87632 15.712 8.09301 15.934 8.24119 16.2133C8.38823 16.4904 8.46977 16.7979 8.48662 17.1348L8.49009 17.2042H7.38956L7.38686 17.1409C7.3765 16.8973 7.2993 16.6994 7.15788 16.5429L7.15718 16.5421C7.01968 16.3849 6.81854 16.3023 6.54282 16.3023C6.31705 16.3023 6.12467 16.3711 5.96232 16.5081C5.80717 16.639 5.72343 16.8468 5.72343 17.1463C5.72343 17.2815 5.74421 17.4228 5.7864 17.5706C5.82556 17.7027 5.86916 17.8371 5.91721 17.9739H7.46995V18.8278H6.1438C6.15326 18.9027 6.15801 18.9764 6.15801 19.0486C6.15801 19.2815 6.11254 19.5163 6.02248 19.7527C5.94792 19.9484 5.83379 20.1317 5.6812 20.3025H8.5113V21.2713H4.36935V20.5627Z" fill="#222222"/>
<path d="M12.0007 0C5.94929 0 1.00072 4.94857 1.00072 11C1.00072 12.5694 1.33354 14.0646 1.93212 15.4185C2.26286 14.9561 2.66422 14.5481 3.12068 14.2104C2.75212 13.2091 2.5476 12.1284 2.5476 11C2.5476 10.9417 2.55499 10.8844 2.56231 10.8276C2.56848 10.7798 2.57461 10.7324 2.57624 10.6849L3.46426 11.6302L5.87051 8.9948L5.49812 5.5L4.18041 5.72917C5.41576 3.89942 7.27058 2.528 9.45124 1.91927L8.79239 3.1224L12.0007 4.4974L15.2091 3.1224L14.5502 1.91927C16.7309 2.528 18.5857 3.89941 19.821 5.72917L18.5033 5.5L18.1309 8.99479L20.5372 11.6302L21.4252 10.6849C21.4268 10.7324 21.433 10.7798 21.4391 10.8276C21.44 10.8347 21.441 10.8418 21.4419 10.8489C21.4482 10.8987 21.4538 10.949 21.4538 11C21.4538 13.1842 20.6876 15.1895 19.4486 16.7865L19.2481 15.4974L15.8393 16.2135L14.0059 19.25L15.2663 19.8516C14.2458 20.2275 13.1537 20.4531 12.0007 20.4531C11.8025 20.4531 11.606 20.4465 11.4114 20.4335C11.2168 20.9698 10.9396 21.4672 10.595 21.91C11.0555 21.9694 11.5247 22 12.0007 22C18.0522 22 23.0007 17.0514 23.0007 11C23.0007 4.94857 18.0522 0 12.0007 0Z" fill="#222222"/>
<path d="M12.0007 7.33333L8.16218 10.1693L9.45743 14.1566C9.67436 14.3115 9.87933 14.4821 10.0708 14.6667H14.3783L15.8393 10.1693L12.0007 7.33333Z" fill="#222222"/>
</svg>
