<svg width="22" height="22" viewBox="0 0 22 22" fill="none" xmlns="http://www.w3.org/2000/svg">
<g clip-path="url(#clip0_882_48547)">
<path d="M10.2667 2.93367C10.0723 2.9337 9.88575 3.01098 9.74824 3.14851L7.76309 5.13367H2.20007C1.38973 5.13367 0.733398 5.79 0.733398 6.60033V16.867C0.733398 17.6773 1.38973 18.3337 2.20007 18.3337H13.9334C14.7437 18.3337 15.4001 17.6773 15.4001 16.867V6.60033V4.40033C15.4001 3.59876 14.735 2.93367 13.9334 2.93367H10.2667ZM16.8667 2.93367V3.54382C16.8536 3.62302 16.8536 3.70382 16.8667 3.78302V4.40033H17.6001H18.3334H19.0667C19.3312 4.40407 19.5772 4.26512 19.7105 4.03669C19.8438 3.80826 19.8438 3.52574 19.7105 3.29731C19.5772 3.06888 19.3312 2.92993 19.0667 2.93367H18.3334H17.6001H16.8667ZM10.5704 4.40033H13.9334V5.13367H9.83704L10.5704 4.40033ZM20.5334 6.60033C20.388 6.60048 20.2459 6.64385 20.1252 6.72494L16.8667 8.80033V11.7337V14.667L20.1152 16.7367C20.1269 16.7442 20.1388 16.7513 20.151 16.7581C20.266 16.829 20.3983 16.8666 20.5334 16.867C20.9384 16.867 21.2667 16.5387 21.2667 16.1337V11.7337V7.33367C21.2667 6.92866 20.9384 6.60033 20.5334 6.60033V6.60033ZM2.9334 7.33367H6.60006V9.53367H2.9334V7.33367Z" fill="#222222"/>
</g>
<defs>
<clipPath id="clip0_882_48547">
<rect width="22" height="22" fill="white"/>
</clipPath>
</defs>
</svg>
