<svg width="22" height="22" viewBox="0 0 22 22" fill="none" xmlns="http://www.w3.org/2000/svg">
<path d="M9.084 1.27539C7.52359 1.27539 6.11133 1.67902 5.08874 2.08264H3.43325C2.54124 2.08264 1.81875 2.80513 1.81875 3.69714V18.2276C1.52762 18.2235 1.25684 18.3765 1.11007 18.6279C0.963309 18.8794 0.963309 19.1904 1.11007 19.4419C1.25684 19.6933 1.52762 19.8463 1.81875 19.8421H16.3493C16.6404 19.8463 16.9112 19.6933 17.0579 19.4419C17.2047 19.1904 17.2047 18.8794 17.0579 18.6279C16.9112 18.3765 16.6404 18.2235 16.3493 18.2276V3.69714C16.3493 2.80513 15.6268 2.08264 14.7347 2.08264H13.0793C12.0567 1.67901 10.6444 1.27539 9.084 1.27539ZM20.3855 3.69714C19.4938 3.69714 18.771 4.41998 18.771 5.31164C18.7715 5.88799 19.0791 6.42039 19.5783 6.70856V10.9624C19.5783 11.4185 19.2271 11.7696 18.771 11.7696H17.9638V13.3841H18.771C20.0989 13.3841 21.1927 12.2903 21.1927 10.9624V6.70699C21.6914 6.41909 21.999 5.88743 22 5.31164C22 4.41998 21.2772 3.69714 20.3855 3.69714L20.3855 3.69714ZM5.04775 4.50439H13.1202C14.0123 4.50439 14.7348 5.22688 14.7348 6.11889V9.34789C14.7348 10.2399 14.0123 10.9624 13.1202 10.9624H5.04775C4.15574 10.9624 3.43325 10.2399 3.43325 9.34789V6.11889C3.43325 5.22688 4.15574 4.50439 5.04775 4.50439ZM5.04775 6.11889V9.34789H6.66225V6.11889H5.04775ZM8.27675 6.11889V9.34789H9.89125V6.11889H8.27675ZM11.5057 6.11889V9.34789H13.1202V6.11889H11.5057ZM5.04775 13.3841H13.1202V16.6131H5.04775V13.3841Z" fill="#222222"/>
</svg>
